SplineFontDB: 3.0
FontName: Alegreya-Regular
FullName: Alegreya
FamilyName: Alegreya
Weight: Regular
Copyright: Copyright (c) 2011, Juan Pablo del Peral (juan@huertatipografica.com.ar), with Reserved Font Names "Alegreya" "Alegreya SC"
Version: 001.001
ItalicAngle: 0
UnderlinePosition: -59
UnderlineWidth: 56
Ascent: 800
Descent: 200
sfntRevision: 0x000100c5
LayerCount: 2
Layer: 0 0 "Back"  1
Layer: 1 0 "Fore"  0
XUID: [1021 94 324875875 1203449]
FSType: 0
OS2Version: 2
OS2_WeightWidthSlopeOnly: 0
OS2_UseTypoMetrics: 1
CreationTime: 1325707245
ModificationTime: 1461364273
PfmFamily: 17
TTFWeight: 400
TTFWidth: 5
LineGap: 0
VLineGap: 0
Panose: 2 0 5 3 5 0 0 2 0 4
OS2TypoAscent: 1016
OS2TypoAOffset: 0
OS2TypoDescent: -345
OS2TypoDOffset: 0
OS2TypoLinegap: 0
OS2WinAscent: 1016
OS2WinAOffset: 0
OS2WinDescent: 345
OS2WinDOffset: 0
HheadAscent: 1016
HheadAOffset: 0
HheadDescent: -345
HheadDOffset: 0
OS2SubXSize: 700
OS2SubYSize: 650
OS2SubXOff: 0
OS2SubYOff: 140
OS2SupXSize: 700
OS2SupYSize: 650
OS2SupXOff: 0
OS2SupYOff: 477
OS2StrikeYSize: 50
OS2StrikeYPos: 250
OS2FamilyClass: 258
OS2Vendor: 'pyrs'
OS2CodePages: 20000093.00000000
OS2UnicodeRanges: a00000ef.4000204b.00000000.00000000
Lookup: 258 0 0 "'kern' Horizontal Kerning lookup 0"  {"'kern' Horizontal Kerning lookup 0 subtable"  } ['kern' ('DFLT' <'dflt' > ) ]
DEI: 91125
LangName: 1033 "" "" "" "FONTLAB:OTFEXPORT" "" "Version 1.003" "" "Alegreya is a trademark of Juan Pablo del Peral" "Juan Pablo del Peral" "Juan Pablo del Peral" "" "www.huertatipografica.com.ar" "www.huertatipografica.com.ar" "This Font Software is licensed under the SIL Open Font License, Version 1.1. This license is available with a FAQ at: http://scripts.sil.org/OFL" "http://scripts.sil.org/OFL" 
Encoding: UnicodeBmp
Compacted: 1
UnicodeInterp: none
NameList: Adobe Glyph List
DisplaySize: -96
AntiAlias: 1
FitToEm: 1
WinInfo: 64 16 7
BeginPrivate: 6
BlueValues 47 [-12 0 452 464 493 505 586 598 637 649 730 742]
OtherBlues 20 [-242 -230 -105 -93]

StartChar: AE
Encoding: 198 198 1
Width: 810
Flags: MW
HStem: -10 21G<301 301> 0 45 574 20G<269 282> 587 50<449 484 357.5 551.5> 629 20G<703 703>
LayerCount: 2
Fore
SplineSet
301 36 m 1x90
 380 42 398 51 398 87 c 0
 398 109 394 131 391 153 c 2
 373 276 l 1
 274 268 l 1
 183 258 l 1
 112 120 l 2
 100 97 96 85 96 74 c 0
 96 51 113 40 151 40 c 2
 208 40 l 1
 203 -7 l 1
 203 -7 129 0 65 0 c 0
 43 0 -3 -4 -3 -4 c 1
 -10 31 l 1
 -10 31 23 66 53 121 c 2
 300 578 l 1
 297 590 289 594 275 594 c 0x68
 263 594 241 592 241 592 c 1
 239 596 l 1
 246 640 l 2
 246 641 310 637 405 637 c 0x50
 563 637 643 640 703 649 c 1x68
 706 643 l 1
 706 643 689 569 683 477 c 1
 635 473 l 1
 635 473 637 502 637 516 c 0
 637 581 623 587 480 587 c 0
 418 587 411 584 410 556 c 1
 441 328 l 1
 559 339 l 1
 651 352 l 1
 655 347 l 1
 642 294 l 1
 556 291 l 1
 447 282 l 1
 475 113 l 2
 483 62 505 45 559 45 c 0
 704 45 722 57 737 167 c 1
 781 172 l 1
 784 167 l 1
 784 167 766 84 757 -1 c 1
 752 -7 l 2
 752 -8 584 0 483 0 c 2
 449 0 l 2x50
 372 0 301 -10 301 -10 c 1
 299 -3 l 1
 301 36 l 1x90
210 310 m 1
 294 315 l 1
 367 321 l 1
 337 539 l 1
 328 539 l 1
 210 310 l 1
EndSplineSet
Validated: 33
EndChar

StartChar: Aacute
Encoding: 193 193 2
Width: 578
Flags: MW
HStem: -10 21G<329 329> 0 21G<68 125 439.5 495> 232 41<253.5 270 270 283.5 182 287> 629 20G<326 334 334 334> 821 20G<430 430>
LayerCount: 2
Fore
SplineSet
493 113 m 0x78
 509 63 531 47 589 42 c 1
 591 38 l 1
 584 -3 l 1
 584 -3 512 0 478 0 c 0x78
 401 0 329 -10 329 -10 c 1xb8
 326 -3 l 1
 330 36 l 1
 399 41 419 50 419 74 c 0
 419 87 416 103 410 122 c 2
 377 231 l 1
 353 232 301 232 273 232 c 0
 234 232 187 227 164 224 c 1
 127 120 l 2
 121 102 118 90 118 81 c 0
 118 52 136 40 178 40 c 2
 235 40 l 1
 237 36 l 1
 231 -7 l 1
 231 -7 158 0 92 0 c 0
 44 0 -18 -3 -18 -3 c 1
 -10 44 l 1
 27 48 46 65 68 121 c 2
 263 632 l 1
 326 649 l 1
 334 649 l 1
 334 649 418 338 493 113 c 0x78
277 540 m 1
 182 273 l 1
 270 273 l 2
 297 273 340 276 363 278 c 1
 284 540 l 1
 277 540 l 1
455 787 m 1
 451 777 l 1
 451 777 350 743 245 703 c 1
 237 708 l 1
 231 732 l 1
 325 781 430 841 430 841 c 1
 439 835 l 1
 455 787 l 1
EndSplineSet
Validated: 1
EndChar

StartChar: acute.cap
Encoding: 65537 -1 3
Width: 398
Flags: MW
HStem: 703 21G<139 139> 821 20G<324 324>
LayerCount: 2
Fore
SplineSet
349 787 m 1
 345 777 l 1
 345 777 244 743 139 703 c 1
 131 708 l 1
 125 732 l 1
 219 781 324 841 324 841 c 1
 333 835 l 1
 349 787 l 1
EndSplineSet
Validated: 1
EndChar

StartChar: Abreve
Encoding: 258 258 4
Width: 578
Flags: MW
HStem: -10 21G<329 329> 0 21G<68 125 439.5 495> 232 41<253.5 270 270 283.5 182 287> 629 20G<326 334 334 334> 710 58<273 315 273 328.5> 798 20G<190 198 198 198 390 398 398 398>
LayerCount: 2
Fore
SplineSet
493 113 m 0x7c
 509 63 531 47 589 42 c 1
 591 38 l 1
 584 -3 l 1
 584 -3 512 0 478 0 c 0x7c
 401 0 329 -10 329 -10 c 1xbc
 326 -3 l 1
 330 36 l 1
 399 41 419 50 419 74 c 0
 419 87 416 103 410 122 c 2
 377 231 l 1
 353 232 301 232 273 232 c 0
 234 232 187 227 164 224 c 1
 127 120 l 2
 121 102 118 90 118 81 c 0
 118 52 136 40 178 40 c 2
 235 40 l 1
 237 36 l 1
 231 -7 l 1
 231 -7 158 0 92 0 c 0
 44 0 -18 -3 -18 -3 c 1
 -10 44 l 1
 27 48 46 65 68 121 c 2
 263 632 l 1
 326 649 l 1
 334 649 l 1
 334 649 418 338 493 113 c 0x7c
277 540 m 1
 182 273 l 1
 270 273 l 2
 297 273 340 276 363 278 c 1
 284 540 l 1
 277 540 l 1
294 768 m 0
 336 768 373 785 390 818 c 1
 398 818 l 1
 414 808 l 1
 400 759 363 710 294 710 c 0
 225 710 188 759 174 808 c 1
 190 818 l 1
 198 818 l 1
 215 785 252 768 294 768 c 0
EndSplineSet
Validated: 1
EndChar

StartChar: breve.cap
Encoding: 65538 -1 5
Width: 398
Flags: MW
HStem: 710 58<178 220 178 233.5> 798 20G<95 103 103 103 295 303 303 303>
LayerCount: 2
Fore
SplineSet
199 768 m 0
 241 768 278 785 295 818 c 1
 303 818 l 1
 319 808 l 1
 305 759 268 710 199 710 c 0
 130 710 93 759 79 808 c 1
 95 818 l 1
 103 818 l 1
 120 785 157 768 199 768 c 0
EndSplineSet
Validated: 1
EndChar

StartChar: Acircumflex
Encoding: 194 194 6
Width: 578
Flags: MW
HStem: -10 21G<329 329> 0 21G<68 125 439.5 495> 232 41<253.5 270 270 283.5 182 287> 629 20G<326 334 334 334> 826 20G<288 302 302 302>
LayerCount: 2
Fore
SplineSet
493 113 m 0x78
 509 63 531 47 589 42 c 1
 591 38 l 1
 584 -3 l 1
 584 -3 512 0 478 0 c 0x78
 401 0 329 -10 329 -10 c 1xb8
 326 -3 l 1
 330 36 l 1
 399 41 419 50 419 74 c 0
 419 87 416 103 410 122 c 2
 377 231 l 1
 353 232 301 232 273 232 c 0
 234 232 187 227 164 224 c 1
 127 120 l 2
 121 102 118 90 118 81 c 0
 118 52 136 40 178 40 c 2
 235 40 l 1
 237 36 l 1
 231 -7 l 1
 231 -7 158 0 92 0 c 0
 44 0 -18 -3 -18 -3 c 1
 -10 44 l 1
 27 48 46 65 68 121 c 2
 263 632 l 1
 326 649 l 1
 334 649 l 1
 334 649 418 338 493 113 c 0x78
277 540 m 1
 182 273 l 1
 270 273 l 2
 297 273 340 276 363 278 c 1
 284 540 l 1
 277 540 l 1
164 713 m 1
 150 735 l 1
 215 784 288 846 288 846 c 1
 302 846 l 1
 302 846 375 784 440 735 c 1
 426 713 l 1
 417 712 l 1
 370 739 322 764 295 777 c 1
 267 764 221 740 173 712 c 1
 164 713 l 1
EndSplineSet
Validated: 1
EndChar

StartChar: circumflex.cap
Encoding: 65539 -1 7
Width: 398
Flags: MW
HStem: 712 21G<77 77 321 321> 826 20G<192 206 206 206>
LayerCount: 2
Fore
SplineSet
68 713 m 1
 54 735 l 1
 119 784 192 846 192 846 c 1
 206 846 l 1
 206 846 279 784 344 735 c 1
 330 713 l 1
 321 712 l 1
 274 739 226 764 199 777 c 1
 171 764 125 740 77 712 c 1
 68 713 l 1
EndSplineSet
Validated: 1
EndChar

StartChar: Adieresis
Encoding: 196 196 8
Width: 578
Flags: MW
HStem: -10 21G<329 329> 0 21G<68 125 439.5 495> 232 41<253.5 270 270 283.5 182 287> 629 20G<326 334 334 334> 725 93<201.5 221.5 367.5 387.5>
LayerCount: 2
Fore
SplineSet
493 113 m 0x78
 509 63 531 47 589 42 c 1
 591 38 l 1
 584 -3 l 1
 584 -3 512 0 478 0 c 0x78
 401 0 329 -10 329 -10 c 1xb8
 326 -3 l 1
 330 36 l 1
 399 41 419 50 419 74 c 0
 419 87 416 103 410 122 c 2
 377 231 l 1
 353 232 301 232 273 232 c 0
 234 232 187 227 164 224 c 1
 127 120 l 2
 121 102 118 90 118 81 c 0
 118 52 136 40 178 40 c 2
 235 40 l 1
 237 36 l 1
 231 -7 l 1
 231 -7 158 0 92 0 c 0
 44 0 -18 -3 -18 -3 c 1
 -10 44 l 1
 27 48 46 65 68 121 c 2
 263 632 l 1
 326 649 l 1
 334 649 l 1
 334 649 418 338 493 113 c 0x78
277 540 m 1
 182 273 l 1
 270 273 l 2
 297 273 340 276 363 278 c 1
 284 540 l 1
 277 540 l 1
373 725 m 0
 346 725 332 747 332 768 c 0
 332 795 353 818 382 818 c 0
 409 818 423 797 423 775 c 0
 423 748 402 725 373 725 c 0
207 725 m 0
 180 725 166 747 166 768 c 0
 166 795 187 818 216 818 c 0
 243 818 257 797 257 775 c 0
 257 748 236 725 207 725 c 0
EndSplineSet
Validated: 1
EndChar

StartChar: dieresis.cap
Encoding: 65540 -1 9
Width: 398
Flags: MW
HStem: 725 93<105.5 125.5 271.5 291.5>
LayerCount: 2
Fore
SplineSet
277 725 m 0
 250 725 236 747 236 768 c 0
 236 795 257 818 286 818 c 0
 313 818 327 797 327 775 c 0
 327 748 306 725 277 725 c 0
111 725 m 0
 84 725 70 747 70 768 c 0
 70 795 91 818 120 818 c 0
 147 818 161 797 161 775 c 0
 161 748 140 725 111 725 c 0
EndSplineSet
Validated: 1
EndChar

StartChar: Agrave
Encoding: 192 192 10
Width: 578
Flags: MW
HStem: -10 21G<329 329> 0 21G<68 125 439.5 495> 232 41<253.5 270 270 283.5 182 287> 629 20G<326 334 334 334> 821 20G<167 167>
LayerCount: 2
Fore
SplineSet
493 113 m 0x78
 509 63 531 47 589 42 c 1
 591 38 l 1
 584 -3 l 1
 584 -3 512 0 478 0 c 0x78
 401 0 329 -10 329 -10 c 1xb8
 326 -3 l 1
 330 36 l 1
 399 41 419 50 419 74 c 0
 419 87 416 103 410 122 c 2
 377 231 l 1
 353 232 301 232 273 232 c 0
 234 232 187 227 164 224 c 1
 127 120 l 2
 121 102 118 90 118 81 c 0
 118 52 136 40 178 40 c 2
 235 40 l 1
 237 36 l 1
 231 -7 l 1
 231 -7 158 0 92 0 c 0
 44 0 -18 -3 -18 -3 c 1
 -10 44 l 1
 27 48 46 65 68 121 c 2
 263 632 l 1
 326 649 l 1
 334 649 l 1
 334 649 418 338 493 113 c 0x78
277 540 m 1
 182 273 l 1
 270 273 l 2
 297 273 340 276 363 278 c 1
 284 540 l 1
 277 540 l 1
146 777 m 1
 142 787 l 1
 158 835 l 1
 167 841 l 1
 167 841 272 781 366 732 c 1
 360 708 l 1
 352 703 l 1
 247 743 146 777 146 777 c 1
EndSplineSet
Validated: 1
EndChar

StartChar: grave.cap
Encoding: 65541 -1 11
Width: 398
Flags: MW
HStem: 703 21G<259 259> 821 20G<74 74>
LayerCount: 2
Fore
SplineSet
53 777 m 1
 49 787 l 1
 65 835 l 1
 74 841 l 1
 74 841 179 781 273 732 c 1
 267 708 l 1
 259 703 l 1
 154 743 53 777 53 777 c 1
EndSplineSet
Validated: 1
EndChar

StartChar: Amacron
Encoding: 256 256 12
Width: 578
Flags: MW
HStem: -10 21G<329 329> 0 21G<68 125 439.5 495> 232 41<253.5 270 270 283.5 182 287> 629 20G<326 334 334 334> 720 52<279.5 295> 758 20G<438 438>
LayerCount: 2
Fore
SplineSet
493 113 m 0x78
 509 63 531 47 589 42 c 1
 591 38 l 1
 584 -3 l 1
 584 -3 512 0 478 0 c 0x74
 401 0 329 -10 329 -10 c 1xb8
 326 -3 l 1
 330 36 l 1
 399 41 419 50 419 74 c 0
 419 87 416 103 410 122 c 2
 377 231 l 1
 353 232 301 232 273 232 c 0
 234 232 187 227 164 224 c 1
 127 120 l 2
 121 102 118 90 118 81 c 0
 118 52 136 40 178 40 c 2
 235 40 l 1
 237 36 l 1
 231 -7 l 1
 231 -7 158 0 92 0 c 0
 44 0 -18 -3 -18 -3 c 1
 -10 44 l 1
 27 48 46 65 68 121 c 2
 263 632 l 1
 326 649 l 1
 334 649 l 1
 334 649 418 338 493 113 c 0x78
277 540 m 1
 182 273 l 1
 270 273 l 2
 297 273 340 276 363 278 c 1
 284 540 l 1
 277 540 l 1
438 778 m 1
 444 768 l 1
 437 721 l 1
 295 720 l 2
 236 720 151 719 151 719 c 1
 145 728 l 1
 155 773 l 1
 155 773 250 772 309 772 c 0x78
 359 772 438 778 438 778 c 1
EndSplineSet
Validated: 1
EndChar

StartChar: macron.cap
Encoding: 65542 -1 13
Width: 398
Flags: MW
HStem: 719 21G<56 56> 720 52<184.5 200> 758 20G<343 343>
LayerCount: 2
Fore
SplineSet
343 778 m 1xa0
 349 768 l 1
 342 721 l 1
 200 720 l 2x40
 141 720 56 719 56 719 c 1xa0
 50 728 l 1
 60 773 l 1
 60 773 155 772 214 772 c 0x40
 264 772 343 778 343 778 c 1xa0
EndSplineSet
Validated: 1
EndChar

StartChar: Aogonek
Encoding: 260 260 14
Width: 578
Flags: MW
HStem: -241 59<483.5 491> 0 21G<68 125 436.5 474> 232 41<253.5 270 270 283.5 182 287> 629 20G<326 334 334 334>
LayerCount: 2
Fore
SplineSet
578 -159 m 1
 591 -178 l 1
 591 -178 542 -224 491 -241 c 1
 426 -241 380 -207 380 -147 c 0
 380 -100 421 -53 474 0 c 1
 399 0 329 -10 329 -10 c 1
 326 -3 l 1
 330 36 l 1
 399 41 419 50 419 74 c 0
 419 87 416 103 410 122 c 2
 377 231 l 1
 353 232 301 232 273 232 c 0
 234 232 187 227 164 224 c 1
 127 120 l 2
 121 102 118 90 118 81 c 0
 118 52 136 40 178 40 c 2
 235 40 l 1
 237 36 l 1
 231 -7 l 1
 231 -7 158 0 92 0 c 0
 44 0 -18 -3 -18 -3 c 1
 -10 44 l 1
 27 48 46 65 68 121 c 2
 263 632 l 1
 326 649 l 1
 334 649 l 1
 334 649 418 338 493 113 c 0
 509 63 531 47 589 42 c 1
 591 38 l 1
 584 -3 l 1
 584 -3 550 -1 518 0 c 1
 465 -56 443 -88 443 -128 c 0
 443 -159 466 -182 501 -182 c 0
 540 -182 578 -159 578 -159 c 1
277 540 m 1
 182 273 l 1
 270 273 l 2
 297 273 340 276 363 278 c 1
 284 540 l 1
 277 540 l 1
EndSplineSet
Validated: 1
EndChar

StartChar: ogonek
Encoding: 731 731 15
Width: 398
Flags: MW
HStem: -241 59<195.5 203> 22 20G<229 271 271 271>
LayerCount: 2
Fore
SplineSet
290 -159 m 1
 303 -178 l 1
 303 -178 254 -224 203 -241 c 1
 138 -241 92 -207 92 -147 c 0
 92 -89 157 -30 229 42 c 1
 271 42 l 1
 189 -42 155 -79 155 -128 c 0
 155 -159 178 -182 213 -182 c 0
 252 -182 290 -159 290 -159 c 1
EndSplineSet
Validated: 1
EndChar

StartChar: Aring
Encoding: 197 197 16
Width: 578
Flags: MW
HStem: -10 21G<329 329> 0 21G<68 125 439.5 495> 232 41<253.5 270 270 283.5 182 287> 629 20G<326 334 334 334> 674 164<272.5 317>
LayerCount: 2
Fore
SplineSet
493 113 m 0x78
 509 63 531 47 589 42 c 1
 591 38 l 1
 584 -3 l 1
 584 -3 512 0 478 0 c 0x78
 401 0 329 -10 329 -10 c 1xb8
 326 -3 l 1
 330 36 l 1
 399 41 419 50 419 74 c 0
 419 87 416 103 410 122 c 2
 377 231 l 1
 353 232 301 232 273 232 c 0
 234 232 187 227 164 224 c 1
 127 120 l 2
 121 102 118 90 118 81 c 0
 118 52 136 40 178 40 c 2
 235 40 l 1
 237 36 l 1
 231 -7 l 1
 231 -7 158 0 92 0 c 0
 44 0 -18 -3 -18 -3 c 1
 -10 44 l 1
 27 48 46 65 68 121 c 2
 263 632 l 1
 326 649 l 1
 334 649 l 1
 334 649 418 338 493 113 c 0x78
277 540 m 1
 182 273 l 1
 270 273 l 2
 297 273 340 276 363 278 c 1
 284 540 l 1
 277 540 l 1
297 712 m 0
 313 712 341 716 341 751 c 0
 341 779 323 799 290 799 c 0
 261 799 246 784 246 760 c 0
 246 725 276 712 297 712 c 0
290 674 m 0
 241 674 214 707 214 754 c 0
 214 802 247 838 298 838 c 0
 353 838 375 800 375 762 c 0
 375 716 344 674 290 674 c 0
EndSplineSet
Validated: 1
EndChar

StartChar: ring.cap
Encoding: 65543 -1 17
Width: 398
Flags: MW
HStem: 674 164<176.5 221>
LayerCount: 2
Fore
SplineSet
201 712 m 0
 217 712 245 716 245 751 c 0
 245 779 227 799 194 799 c 0
 165 799 150 784 150 760 c 0
 150 725 180 712 201 712 c 0
194 674 m 0
 145 674 118 707 118 754 c 0
 118 802 151 838 202 838 c 0
 257 838 279 800 279 762 c 0
 279 716 248 674 194 674 c 0
EndSplineSet
Validated: 1
EndChar

StartChar: Atilde
Encoding: 195 195 18
Width: 578
Flags: MW
HStem: -10 21G<329 329> 0 21G<68 125 439.5 495> 232 41<253.5 270 270 283.5 182 287> 629 20G<326 334 334 334> 711 64<356 369> 744 64<224 237> 800 20G<433 439 439 439>
LayerCount: 2
Fore
SplineSet
493 113 m 0x7a
 509 63 531 47 589 42 c 1
 591 38 l 1
 584 -3 l 1
 584 -3 512 0 478 0 c 0x74
 401 0 329 -10 329 -10 c 1xba
 326 -3 l 1
 330 36 l 1
 399 41 419 50 419 74 c 0
 419 87 416 103 410 122 c 2
 377 231 l 1
 353 232 301 232 273 232 c 0
 234 232 187 227 164 224 c 1
 127 120 l 2
 121 102 118 90 118 81 c 0
 118 52 136 40 178 40 c 2
 235 40 l 1
 237 36 l 1
 231 -7 l 1
 231 -7 158 0 92 0 c 0
 44 0 -18 -3 -18 -3 c 1
 -10 44 l 1
 27 48 46 65 68 121 c 2
 263 632 l 1
 326 649 l 1
 334 649 l 1
 334 649 418 338 493 113 c 0x7a
277 540 m 1
 182 273 l 1
 270 273 l 2
 297 273 340 276 363 278 c 1
 284 540 l 1
 277 540 l 1
160 699 m 1
 154 699 l 1
 132 720 l 1
 132 725 l 1
 208 804 l 1
 224 808 l 1x74
 257 808 342 775 370 775 c 0
 393 775 433 820 433 820 c 1
 439 820 l 1
 461 799 l 1
 461 794 l 1
 385 715 l 1
 369 711 l 1x7a
 336 711 251 744 223 744 c 0
 199 744 160 699 160 699 c 1
EndSplineSet
Validated: 1
EndChar

StartChar: tilde.cap
Encoding: 65544 -1 19
Width: 398
Flags: MW
HStem: 699 21G 711 64<259 272> 744 64<127 140> 800 20G<336 342 342 342>
LayerCount: 2
Fore
SplineSet
63 699 m 1xa0
 57 699 l 1
 35 720 l 1
 35 725 l 1
 111 804 l 1
 127 808 l 1xa0
 160 808 245 775 273 775 c 0
 296 775 336 820 336 820 c 1
 342 820 l 1
 364 799 l 1
 364 794 l 1
 288 715 l 1
 272 711 l 1x50
 239 711 154 744 126 744 c 0
 102 744 63 699 63 699 c 1xa0
EndSplineSet
Validated: 1
EndChar

StartChar: B
Encoding: 66 66 20
Width: 597
Flags: MW
HStem: -12 21G<58 58> -10 51<285.5 367 285.5 370> 0 21G<147 197.5> 574 20G<100 121> 598 43<239 369.5> 617 20G<169 206.5>
VStem: 142 73 422 81<456 515> 456 86<131 201>
LayerCount: 2
Fore
SplineSet
172 0 m 0x3b
 122 0 58 -12 58 -12 c 1
 64 34 l 1
 126 46 142 64 142 120 c 2
 143 540 l 2
 143 583 136 594 106 594 c 0
 94 594 72 592 72 592 c 1
 70 596 l 1
 77 640 l 1
 77 640 150 637 188 637 c 0x97
 225 637 306 641 306 641 c 1
 433 641 503 587 503 489 c 0x5b
 503 423 461 367 387 335 c 1
 484 314 542 257 542 183 c 0
 542 79 433 -10 307 -10 c 0x5a80
 263 -10 223 0 172 0 c 0x3b
321 300 m 1
 217 298 l 1
 213 111 l 1
 213 60 244 41 327 41 c 0x5b
 407 41 456 89 456 165 c 0
 456 237 410 284 321 300 c 1
219 351 m 1
 219 351 313 343 328 343 c 1
 328 343 422 365 422 472 c 0
 422 558 366 598 246 598 c 0
 232 598 229 593 228 575 c 0
 224 510 221 434 219 351 c 1
EndSplineSet
Validated: 1
EndChar

StartChar: C
Encoding: 67 67 21
Width: 629
Flags: MW
HStem: -12 50<290 398.5> 590 59<288 399>
VStem: 40 90<242 398.5>
LayerCount: 2
Fore
SplineSet
339 -12 m 0
 157 -12 40 108 40 297 c 0
 40 500 187 649 389 649 c 0
 472 649 563 625 563 625 c 1
 567 619 l 1
 567 619 548 544 542 452 c 1
 494 448 l 1
 494 448 497 475 497 497 c 0
 497 559 448 590 350 590 c 0
 216 590 130 489 130 330 c 0
 130 154 221 38 359 38 c 0
 450 38 504 88 529 196 c 1
 577 200 l 1
 577 200 557 109 550 37 c 1
 544 28 l 1
 544 28 458 -12 339 -12 c 0
EndSplineSet
Validated: 1
EndChar

StartChar: Cacute
Encoding: 262 262 22
Width: 629
Flags: MW
HStem: -12 50<290 398.5> 590 59<288 399> 821 20G<494 494>
VStem: 40 90<242 398.5>
LayerCount: 2
Fore
SplineSet
339 -12 m 0
 157 -12 40 108 40 297 c 0
 40 500 187 649 389 649 c 0
 472 649 563 625 563 625 c 1
 567 619 l 1
 567 619 548 544 542 452 c 1
 494 448 l 1
 494 448 497 475 497 497 c 0
 497 559 448 590 350 590 c 0
 216 590 130 489 130 330 c 0
 130 154 221 38 359 38 c 0
 450 38 504 88 529 196 c 1
 577 200 l 1
 577 200 557 109 550 37 c 1
 544 28 l 1
 544 28 458 -12 339 -12 c 0
519 787 m 1
 515 777 l 1
 515 777 414 743 309 703 c 1
 301 708 l 1
 295 732 l 1
 389 781 494 841 494 841 c 1
 503 835 l 1
 519 787 l 1
EndSplineSet
Validated: 1
EndChar

StartChar: Ccaron
Encoding: 268 268 23
Width: 629
Flags: MW
HStem: -12 50<290 398.5> 590 59<288 399> 818 20G<237 237 481 481>
VStem: 40 90<242 398.5>
LayerCount: 2
Fore
SplineSet
339 -12 m 0
 157 -12 40 108 40 297 c 0
 40 500 187 649 389 649 c 0
 472 649 563 625 563 625 c 1
 567 619 l 1
 567 619 548 544 542 452 c 1
 494 448 l 1
 494 448 497 475 497 497 c 0
 497 559 448 590 350 590 c 0
 216 590 130 489 130 330 c 0
 130 154 221 38 359 38 c 0
 450 38 504 88 529 196 c 1
 577 200 l 1
 577 200 557 109 550 37 c 1
 544 28 l 1
 544 28 458 -12 339 -12 c 0
490 837 m 1
 504 815 l 1
 439 766 366 704 366 704 c 1
 352 704 l 1
 352 704 279 766 214 815 c 1
 228 837 l 1
 237 838 l 1
 284 811 332 786 359 773 c 1
 387 786 433 810 481 838 c 1
 490 837 l 1
EndSplineSet
Validated: 1
EndChar

StartChar: caron.cap
Encoding: 65545 -1 24
Width: 398
Flags: MW
HStem: 704 21G<192 206 192 192> 818 20G<77 77 321 321>
LayerCount: 2
Fore
SplineSet
330 837 m 1
 344 815 l 1
 279 766 206 704 206 704 c 1
 192 704 l 1
 192 704 119 766 54 815 c 1
 68 837 l 1
 77 838 l 1
 124 811 172 786 199 773 c 1
 227 786 273 810 321 838 c 1
 330 837 l 1
EndSplineSet
Validated: 1
EndChar

StartChar: Ccedilla
Encoding: 199 199 25
Width: 629
Flags: MW
HStem: -233 21G<299 341.5> -218 20G<319 348> -161 20G<271 280 280 280> -11 49<320 320 362 362> 590 59<288 399>
VStem: 40 90<242 398.5>
LayerCount: 2
Fore
SplineSet
298 -85 m 1x7c
 320 -11 l 1
 149 -3 40 114 40 297 c 0
 40 500 187 649 389 649 c 0
 472 649 563 625 563 625 c 1
 567 619 l 1
 567 619 548 544 542 452 c 1
 494 448 l 1
 494 448 497 475 497 497 c 0
 497 559 448 590 350 590 c 0
 216 590 130 489 130 330 c 0
 130 154 221 38 359 38 c 0
 450 38 504 88 529 196 c 1
 577 200 l 1
 577 200 557 109 550 37 c 1
 544 28 l 1
 544 28 468 -7 362 -11 c 1
 349 -50 l 1
 382 -73 434 -102 434 -139 c 0
 434 -191 369 -233 314 -233 c 0xbc
 284 -233 246 -220 246 -197 c 0
 246 -184 261 -157 271 -141 c 1
 280 -141 l 1
 281 -178 303 -198 335 -198 c 0
 361 -198 383 -183 383 -160 c 0
 383 -136 338 -108 298 -85 c 1x7c
EndSplineSet
Validated: 1
EndChar

StartChar: cedilla
Encoding: 184 184 26
Width: 398
Flags: MW
HStem: -233 21G<152 194.5> -218 20G<172 201> -161 20G<124 133 133 133> 3 20G<184 227 227 227>
LayerCount: 2
Fore
SplineSet
151 -85 m 1x70
 184 23 l 1
 227 23 l 1
 202 -50 l 1
 235 -73 287 -102 287 -139 c 0
 287 -191 222 -233 167 -233 c 0xb0
 137 -233 99 -220 99 -197 c 0
 99 -184 114 -157 124 -141 c 1
 133 -141 l 1
 134 -178 156 -198 188 -198 c 0
 214 -198 236 -183 236 -160 c 0
 236 -136 191 -108 151 -85 c 1x70
EndSplineSet
Validated: 1
EndChar

StartChar: Cdotaccent
Encoding: 266 266 27
Width: 629
Flags: MW
HStem: -12 50<290 398.5> 590 59<288 399> 719 110<347 371>
VStem: 40 90<242 398.5>
LayerCount: 2
Fore
SplineSet
339 -12 m 0
 157 -12 40 108 40 297 c 0
 40 500 187 649 389 649 c 0
 472 649 563 625 563 625 c 1
 567 619 l 1
 567 619 548 544 542 452 c 1
 494 448 l 1
 494 448 497 475 497 497 c 0
 497 559 448 590 350 590 c 0
 216 590 130 489 130 330 c 0
 130 154 221 38 359 38 c 0
 450 38 504 88 529 196 c 1
 577 200 l 1
 577 200 557 109 550 37 c 1
 544 28 l 1
 544 28 458 -12 339 -12 c 0
354 719 m 0
 321 719 305 745 305 770 c 0
 305 802 330 829 364 829 c 0
 396 829 413 804 413 778 c 0
 413 746 388 719 354 719 c 0
EndSplineSet
Validated: 1
EndChar

StartChar: dotaccent.cap
Encoding: 65546 -1 28
Width: 398
Flags: MW
HStem: 719 110<187 211>
LayerCount: 2
Fore
SplineSet
194 719 m 0
 161 719 145 745 145 770 c 0
 145 802 170 829 204 829 c 0
 236 829 253 804 253 778 c 0
 253 746 228 719 194 719 c 0
EndSplineSet
Validated: 1
EndChar

StartChar: D
Encoding: 68 68 29
Width: 703
Flags: MW
HStem: -12 51<317 412 289.5 414> 0 21G<148 198.5> 574 20G<100 121> 592 49<334 363.5> 617 20G<163 205>
VStem: 142 72<94.5 120> 142 87
LayerCount: 2
Fore
SplineSet
317 -12 m 1x94
 317 -12 224 0 173 0 c 0x54
 123 0 58 -12 58 -12 c 1
 64 34 l 1
 126 46 142 64 142 120 c 2
 143 540 l 2
 143 583 136 594 106 594 c 0xac
 94 594 72 592 72 592 c 1x94
 70 596 l 1
 77 640 l 1
 77 640 144 637 182 637 c 0xac
 228 637 334 641 334 641 c 1
 529 641 663 520 663 342 c 0
 663 143 511 -12 317 -12 c 1x94
265 592 m 0
 237 592 230 588 229 570 c 0x92
 220 339 214 176 214 131 c 0
 214 58 239 39 340 39 c 0
 484 39 572 145 572 318 c 0
 572 494 462 592 265 592 c 0
EndSplineSet
Validated: 1
EndChar

StartChar: Dcaron
Encoding: 270 270 30
Width: 703
Flags: MW
HStem: -12 51<317 412 289.5 414> 0 21G<148 198.5> 574 20G<100 121> 592 49<334 363.5> 617 20G<163 205> 818 20G<209 209 453 453>
VStem: 142 72<94.5 120> 142 87
LayerCount: 2
Fore
SplineSet
317 -12 m 1x96
 317 -12 224 0 173 0 c 0x56
 123 0 58 -12 58 -12 c 1
 64 34 l 1
 126 46 142 64 142 120 c 2
 143 540 l 2
 143 583 136 594 106 594 c 0xae
 94 594 72 592 72 592 c 1x96
 70 596 l 1
 77 640 l 1
 77 640 144 637 182 637 c 0xae
 228 637 334 641 334 641 c 1
 529 641 663 520 663 342 c 0
 663 143 511 -12 317 -12 c 1x96
265 592 m 0
 237 592 230 588 229 570 c 0x95
 220 339 214 176 214 131 c 0
 214 58 239 39 340 39 c 0
 484 39 572 145 572 318 c 0
 572 494 462 592 265 592 c 0
462 837 m 1
 476 815 l 1
 411 766 338 704 338 704 c 1
 324 704 l 1
 324 704 251 766 186 815 c 1
 200 837 l 1
 209 838 l 1
 256 811 304 786 331 773 c 1
 359 786 405 810 453 838 c 1
 462 837 l 1
EndSplineSet
Validated: 1
EndChar

StartChar: E
Encoding: 69 69 31
Width: 591
Flags: MW
HStem: -10 21G<58 58> 0 45<159 371> 303 50<307 321> 574 20G<100 121> 587 50<264.5 295.5 186 367.5> 629 20G<516 516>
VStem: 142 81
LayerCount: 2
Fore
SplineSet
213 105 m 0x6a
 213 51 220 45 292 45 c 0
 450 45 469 57 485 167 c 1
 529 172 l 1
 532 167 l 1
 532 167 514 84 505 -1 c 1
 500 -7 l 1
 500 -7 292 0 197 0 c 0x6a
 121 0 58 -10 58 -10 c 1
 64 36 l 1
 124 44 142 63 142 120 c 2
 143 540 l 2
 143 583 136 594 106 594 c 0xb6
 94 594 72 592 72 592 c 1
 70 596 l 1
 77 640 l 1
 77 640 156 637 216 637 c 0x6a
 375 637 450 640 516 649 c 1x76
 519 643 l 1
 519 643 502 569 496 477 c 1
 448 473 l 1
 448 473 450 502 450 516 c 0
 450 581 438 587 297 587 c 0
 232 587 228 585 227 548 c 2
 219 354 l 1
 241 354 292 353 322 353 c 0
 358 353 444 364 444 364 c 1
 448 359 l 1
 434 300 l 1
 434 300 348 303 294 303 c 0
 264 303 234 299 217 296 c 1
 214 188 213 138 213 105 c 0x6a
EndSplineSet
Validated: 1
EndChar

StartChar: Eacute
Encoding: 201 201 32
Width: 591
Flags: MW
HStem: -10 21G<58 58> 0 45<159 371> 303 50<307 321> 574 20G<100 121> 587 50<264.5 295.5 186 367.5> 821 20G<445 445>
VStem: 142 81
LayerCount: 2
Fore
SplineSet
213 105 m 0x6e
 213 51 220 45 292 45 c 0
 450 45 469 57 485 167 c 1
 529 172 l 1
 532 167 l 1
 532 167 514 84 505 -1 c 1
 500 -7 l 1
 500 -7 292 0 197 0 c 0x6e
 121 0 58 -10 58 -10 c 1
 64 36 l 1
 124 44 142 63 142 120 c 2
 143 540 l 2
 143 583 136 594 106 594 c 0xb6
 94 594 72 592 72 592 c 1
 70 596 l 1
 77 640 l 1
 77 640 156 637 216 637 c 0
 375 637 450 640 516 649 c 1
 519 643 l 1
 519 643 502 569 496 477 c 1
 448 473 l 1
 448 473 450 502 450 516 c 0
 450 581 438 587 297 587 c 0
 232 587 228 585 227 548 c 2
 219 354 l 1
 241 354 292 353 322 353 c 0
 358 353 444 364 444 364 c 1
 448 359 l 1
 434 300 l 1
 434 300 348 303 294 303 c 0
 264 303 234 299 217 296 c 1
 214 188 213 138 213 105 c 0x6e
470 787 m 1
 466 777 l 1
 466 777 365 743 260 703 c 1
 252 708 l 1
 246 732 l 1
 340 781 445 841 445 841 c 1
 454 835 l 1
 470 787 l 1
EndSplineSet
Validated: 1
EndChar

StartChar: Ecaron
Encoding: 282 282 33
Width: 591
Flags: MW
HStem: -10 21G<58 58> 0 45<159 371> 303 50<307 321> 574 20G<100 121> 587 50<264.5 295.5 186 367.5> 818 20G<188 188 432 432>
VStem: 142 81
LayerCount: 2
Fore
SplineSet
213 105 m 0x6e
 213 51 220 45 292 45 c 0
 450 45 469 57 485 167 c 1
 529 172 l 1
 532 167 l 1
 532 167 514 84 505 -1 c 1
 500 -7 l 1
 500 -7 292 0 197 0 c 0x6e
 121 0 58 -10 58 -10 c 1
 64 36 l 1
 124 44 142 63 142 120 c 2
 143 540 l 2
 143 583 136 594 106 594 c 0xb6
 94 594 72 592 72 592 c 1
 70 596 l 1
 77 640 l 1
 77 640 156 637 216 637 c 0
 375 637 450 640 516 649 c 1
 519 643 l 1
 519 643 502 569 496 477 c 1
 448 473 l 1
 448 473 450 502 450 516 c 0
 450 581 438 587 297 587 c 0
 232 587 228 585 227 548 c 2
 219 354 l 1
 241 354 292 353 322 353 c 0
 358 353 444 364 444 364 c 1
 448 359 l 1
 434 300 l 1
 434 300 348 303 294 303 c 0
 264 303 234 299 217 296 c 1
 214 188 213 138 213 105 c 0x6e
441 837 m 1
 455 815 l 1
 390 766 317 704 317 704 c 1
 303 704 l 1
 303 704 230 766 165 815 c 1
 179 837 l 1
 188 838 l 1
 235 811 283 786 310 773 c 1
 338 786 384 810 432 838 c 1
 441 837 l 1
EndSplineSet
Validated: 1
EndChar

StartChar: Ecircumflex
Encoding: 202 202 34
Width: 591
Flags: MW
HStem: -10 21G<58 58> 0 45<159 371> 303 50<307 321> 574 20G<100 121> 587 50<264.5 295.5 186 367.5> 826 20G<303 317 317 317>
VStem: 142 81
LayerCount: 2
Fore
SplineSet
213 105 m 0x6e
 213 51 220 45 292 45 c 0
 450 45 469 57 485 167 c 1
 529 172 l 1
 532 167 l 1
 532 167 514 84 505 -1 c 1
 500 -7 l 1
 500 -7 292 0 197 0 c 0x6e
 121 0 58 -10 58 -10 c 1
 64 36 l 1
 124 44 142 63 142 120 c 2
 143 540 l 2
 143 583 136 594 106 594 c 0xb6
 94 594 72 592 72 592 c 1
 70 596 l 1
 77 640 l 1
 77 640 156 637 216 637 c 0
 375 637 450 640 516 649 c 1
 519 643 l 1
 519 643 502 569 496 477 c 1
 448 473 l 1
 448 473 450 502 450 516 c 0
 450 581 438 587 297 587 c 0
 232 587 228 585 227 548 c 2
 219 354 l 1
 241 354 292 353 322 353 c 0
 358 353 444 364 444 364 c 1
 448 359 l 1
 434 300 l 1
 434 300 348 303 294 303 c 0
 264 303 234 299 217 296 c 1
 214 188 213 138 213 105 c 0x6e
179 713 m 1
 165 735 l 1
 230 784 303 846 303 846 c 1
 317 846 l 1
 317 846 390 784 455 735 c 1
 441 713 l 1
 432 712 l 1
 385 739 337 764 310 777 c 1
 282 764 236 740 188 712 c 1
 179 713 l 1
EndSplineSet
Validated: 1
EndChar

StartChar: Edieresis
Encoding: 203 203 35
Width: 591
Flags: MW
HStem: -10 21G<58 58> 0 45<159 371> 303 50<307 321> 574 20G<100 121> 587 50<264.5 295.5 186 367.5> 725 93<216.5 236.5 382.5 402.5>
VStem: 142 81
LayerCount: 2
Fore
SplineSet
213 105 m 0x6e
 213 51 220 45 292 45 c 0
 450 45 469 57 485 167 c 1
 529 172 l 1
 532 167 l 1
 532 167 514 84 505 -1 c 1
 500 -7 l 1
 500 -7 292 0 197 0 c 0x6e
 121 0 58 -10 58 -10 c 1
 64 36 l 1
 124 44 142 63 142 120 c 2
 143 540 l 2
 143 583 136 594 106 594 c 0xb6
 94 594 72 592 72 592 c 1
 70 596 l 1
 77 640 l 1
 77 640 156 637 216 637 c 0
 375 637 450 640 516 649 c 1
 519 643 l 1
 519 643 502 569 496 477 c 1
 448 473 l 1
 448 473 450 502 450 516 c 0
 450 581 438 587 297 587 c 0
 232 587 228 585 227 548 c 2
 219 354 l 1
 241 354 292 353 322 353 c 0
 358 353 444 364 444 364 c 1
 448 359 l 1
 434 300 l 1
 434 300 348 303 294 303 c 0
 264 303 234 299 217 296 c 1
 214 188 213 138 213 105 c 0x6e
388 725 m 0
 361 725 347 747 347 768 c 0
 347 795 368 818 397 818 c 0
 424 818 438 797 438 775 c 0
 438 748 417 725 388 725 c 0
222 725 m 0
 195 725 181 747 181 768 c 0
 181 795 202 818 231 818 c 0
 258 818 272 797 272 775 c 0
 272 748 251 725 222 725 c 0
EndSplineSet
Validated: 1
EndChar

StartChar: Edotaccent
Encoding: 278 278 36
Width: 591
Flags: MW
HStem: -10 21G<58 58> 0 45<159 371> 303 50<307 321> 574 20G<100 121> 587 50<264.5 295.5 186 367.5> 719 110<298 322>
VStem: 142 81
LayerCount: 2
Fore
SplineSet
213 105 m 0x6e
 213 51 220 45 292 45 c 0
 450 45 469 57 485 167 c 1
 529 172 l 1
 532 167 l 1
 532 167 514 84 505 -1 c 1
 500 -7 l 1
 500 -7 292 0 197 0 c 0x6e
 121 0 58 -10 58 -10 c 1
 64 36 l 1
 124 44 142 63 142 120 c 2
 143 540 l 2
 143 583 136 594 106 594 c 0xb6
 94 594 72 592 72 592 c 1
 70 596 l 1
 77 640 l 1
 77 640 156 637 216 637 c 0
 375 637 450 640 516 649 c 1
 519 643 l 1
 519 643 502 569 496 477 c 1
 448 473 l 1
 448 473 450 502 450 516 c 0
 450 581 438 587 297 587 c 0
 232 587 228 585 227 548 c 2
 219 354 l 1
 241 354 292 353 322 353 c 0
 358 353 444 364 444 364 c 1
 448 359 l 1
 434 300 l 1
 434 300 348 303 294 303 c 0
 264 303 234 299 217 296 c 1
 214 188 213 138 213 105 c 0x6e
305 719 m 0
 272 719 256 745 256 770 c 0
 256 802 281 829 315 829 c 0
 347 829 364 804 364 778 c 0
 364 746 339 719 305 719 c 0
EndSplineSet
Validated: 1
EndChar

StartChar: Egrave
Encoding: 200 200 37
Width: 591
Flags: MW
HStem: -10 21G<58 58> 0 45<159 371> 303 50<307 321> 574 20G<100 121> 587 50<264.5 295.5 186 367.5> 821 20G<182 182>
VStem: 142 81
LayerCount: 2
Fore
SplineSet
213 105 m 0x6e
 213 51 220 45 292 45 c 0
 450 45 469 57 485 167 c 1
 529 172 l 1
 532 167 l 1
 532 167 514 84 505 -1 c 1
 500 -7 l 1
 500 -7 292 0 197 0 c 0x6e
 121 0 58 -10 58 -10 c 1
 64 36 l 1
 124 44 142 63 142 120 c 2
 143 540 l 2
 143 583 136 594 106 594 c 0xb6
 94 594 72 592 72 592 c 1
 70 596 l 1
 77 640 l 1
 77 640 156 637 216 637 c 0
 375 637 450 640 516 649 c 1
 519 643 l 1
 519 643 502 569 496 477 c 1
 448 473 l 1
 448 473 450 502 450 516 c 0
 450 581 438 587 297 587 c 0
 232 587 228 585 227 548 c 2
 219 354 l 1
 241 354 292 353 322 353 c 0
 358 353 444 364 444 364 c 1
 448 359 l 1
 434 300 l 1
 434 300 348 303 294 303 c 0
 264 303 234 299 217 296 c 1
 214 188 213 138 213 105 c 0x6e
161 777 m 1
 157 787 l 1
 173 835 l 1
 182 841 l 1
 182 841 287 781 381 732 c 1
 375 708 l 1
 367 703 l 1
 262 743 161 777 161 777 c 1
EndSplineSet
Validated: 1
EndChar

StartChar: Emacron
Encoding: 274 274 38
Width: 591
Flags: MW
HStem: -10 21G<58 58> 0 45<159 371> 303 50<307 321> 574 20G<100 121> 587 50<264.5 295.5 186 367.5> 720 52<294.5 310> 758 20G<453 453>
VStem: 142 81
LayerCount: 2
Fore
SplineSet
213 105 m 0x6d
 213 51 220 45 292 45 c 0
 450 45 469 57 485 167 c 1
 529 172 l 1
 532 167 l 1
 532 167 514 84 505 -1 c 1
 500 -7 l 1
 500 -7 292 0 197 0 c 0x6b
 121 0 58 -10 58 -10 c 1
 64 36 l 1
 124 44 142 63 142 120 c 2
 143 540 l 2
 143 583 136 594 106 594 c 0xb5
 94 594 72 592 72 592 c 1
 70 596 l 1
 77 640 l 1
 77 640 156 637 216 637 c 0
 375 637 450 640 516 649 c 1
 519 643 l 1
 519 643 502 569 496 477 c 1
 448 473 l 1
 448 473 450 502 450 516 c 0
 450 581 438 587 297 587 c 0
 232 587 228 585 227 548 c 2
 219 354 l 1
 241 354 292 353 322 353 c 0
 358 353 444 364 444 364 c 1
 448 359 l 1
 434 300 l 1
 434 300 348 303 294 303 c 0
 264 303 234 299 217 296 c 1
 214 188 213 138 213 105 c 0x6d
453 778 m 1
 459 768 l 1
 452 721 l 1
 310 720 l 2
 251 720 166 719 166 719 c 1
 160 728 l 1
 170 773 l 1
 170 773 265 772 324 772 c 0x6d
 374 772 453 778 453 778 c 1
EndSplineSet
Validated: 1
EndChar

StartChar: Eng
Encoding: 330 330 39
Width: 719
Flags: MW
HStem: -154 21G<441 441> 0 44<131 224> 593 44 625 20G<686 686>
LayerCount: 2
Fore
SplineSet
143 637 m 0xe0
 157 637 215 641 215 641 c 1
 356 419 551 145 551 145 c 1
 556 145 l 1
 556 550 l 2
 556 579 545 593 523 593 c 0
 505 593 485 592 485 592 c 1
 483 596 l 1
 492 641 l 1
 492 641 554 637 587 637 c 0xe0
 629 637 686 645 686 645 c 1xd0
 681 599 l 1
 633 593 614 575 613 536 c 2
 604 86 l 1
 600 -43 554 -112 441 -154 c 1
 424 -121 l 1
 427 -113 l 1
 492 -84 525 -47 539 8 c 1
 356 289 198 511 198 511 c 1
 193 511 l 1
 188 84 l 2
 188 54 196 44 219 44 c 0
 229 44 269 46 269 46 c 1
 272 42 l 1
 263 -4 l 1
 263 -4 198 0 151 0 c 0
 111 0 64 -8 64 -8 c 1
 69 38 l 1
 115 42 129 60 132 124 c 1
 144 538 l 1
 144 577 127 590 57 600 c 1
 54 605 l 1
 62 642 l 1
 62 642 122 637 143 637 c 0xe0
EndSplineSet
Validated: 1
EndChar

StartChar: Eogonek
Encoding: 280 280 40
Width: 591
Flags: MW
HStem: -241 59<420.5 428> 0 45<159 371> 303 50<307 321> 574 20G<100 121> 587 50<264.5 295.5 186 367.5> 629 20G<516 516>
VStem: 142 75
LayerCount: 2
Fore
SplineSet
515 -159 m 1xea
 528 -178 l 1
 528 -178 479 -224 428 -241 c 1
 363 -241 317 -207 317 -147 c 0
 317 -102 356 -56 407 -4 c 1
 339 -2 250 0 197 0 c 0
 121 0 58 -10 58 -10 c 1
 64 36 l 1
 124 44 142 63 142 120 c 2
 143 540 l 2
 143 583 136 594 106 594 c 0xf6
 94 594 72 592 72 592 c 1
 70 596 l 1
 77 640 l 1
 77 640 156 637 216 637 c 0xea
 375 637 450 640 516 649 c 1xf6
 519 643 l 1
 519 643 502 569 496 477 c 1
 448 473 l 1
 448 473 450 502 450 516 c 0
 450 581 438 587 297 587 c 0
 232 587 228 585 227 548 c 2
 219 354 l 1
 241 354 292 353 322 353 c 0
 358 353 444 364 444 364 c 1
 448 359 l 1
 434 300 l 1
 434 300 348 303 294 303 c 0
 264 303 234 299 217 296 c 1
 214 188 213 138 213 105 c 0
 213 51 220 45 292 45 c 0
 450 45 469 57 485 167 c 1
 529 172 l 1
 532 167 l 1
 532 167 514 84 505 -1 c 1
 500 -7 l 1
 500 -7 480 -6 450 -5 c 1
 401 -58 380 -89 380 -128 c 0
 380 -159 403 -182 438 -182 c 0
 477 -182 515 -159 515 -159 c 1xea
EndSplineSet
Validated: 1
EndChar

StartChar: Eth
Encoding: 208 208 41
Width: 713
Flags: MW
HStem: -12 51<324 419 297 421> 0 21G<155 205.5> 574 20G<107 128> 592 49<341 370.5> 617 20G<170 212>
VStem: 149 74
LayerCount: 2
Fore
SplineSet
324 -12 m 1x94
 324 -12 231 0 180 0 c 0x54
 130 0 65 -12 65 -12 c 1
 71 34 l 1
 141 47 149 61 149 157 c 2
 149 304 l 1
 16 304 l 1
 9 311 l 1
 16 343 l 1
 149 343 l 1
 150 540 l 2
 150 583 143 594 113 594 c 0xac
 101 594 79 592 79 592 c 1x94
 77 596 l 1
 84 640 l 1
 84 640 151 637 189 637 c 0xac
 235 637 341 641 341 641 c 1
 533 641 670 516 670 342 c 0
 670 143 518 -12 324 -12 c 1x94
236 570 m 2
 227 343 l 1
 397 343 l 1
 402 336 l 1
 396 304 l 1
 226 304 l 1
 221 131 l 1
 221 58 247 39 347 39 c 0
 491 39 579 145 579 318 c 0
 579 494 469 592 272 592 c 0
 244 592 237 588 236 570 c 2
EndSplineSet
Validated: 1
EndChar

StartChar: F
Encoding: 70 70 42
Width: 512
Flags: MW
HStem: -12 21G<58 58> 0 44<147 267> 285 51<279 337.5> 574 20G<100 121> 587 50<264.5 284.5 186 358> 629 20G<497 497>
VStem: 142 81
LayerCount: 2
Fore
SplineSet
213 112 m 1x6a
 213 58 222 44 257 44 c 0
 277 44 328 47 328 47 c 1
 330 43 l 1
 321 -4 l 1
 321 -4 226 0 172 0 c 0x6a
 122 0 58 -12 58 -12 c 1
 64 34 l 1
 126 46 142 64 142 120 c 2
 143 540 l 2
 143 583 136 594 106 594 c 0xb6
 94 594 72 592 72 592 c 1
 70 596 l 1
 77 640 l 1
 77 640 156 637 216 637 c 0x6a
 353 637 434 640 497 649 c 1x76
 500 643 l 1
 500 643 483 566 477 474 c 1
 429 470 l 1
 429 470 431 502 431 516 c 0
 431 581 419 587 297 587 c 0
 232 587 228 585 227 548 c 2
 219 337 l 1
 322 336 l 2
 353 336 427 347 427 347 c 1
 431 342 l 1
 417 282 l 1
 417 282 341 285 294 285 c 0
 264 285 234 281 217 278 c 1
 213 112 l 1x6a
EndSplineSet
Validated: 1
EndChar

StartChar: G
Encoding: 71 71 43
Width: 667
Flags: MW
HStem: -12 50<286 395 286 395.5> 252 50<368 523.5> 590 59<292 421>
VStem: 40 87<241 401.5>
LayerCount: 2
Fore
SplineSet
588 307 m 1
 592 285 l 1
 568 265 561 230 561 131 c 0
 561 96 564 60 568 43 c 1
 562 34 l 1
 562 34 459 -12 332 -12 c 0
 154 -12 40 108 40 297 c 0
 40 506 182 649 391 649 c 0
 474 649 585 625 585 625 c 1
 589 619 l 1
 589 619 569 544 563 452 c 1
 516 448 l 1
 516 448 519 475 519 502 c 0
 519 564 474 590 368 590 c 0
 216 590 127 495 127 329 c 0
 127 153 217 38 355 38 c 0
 435 38 492 76 492 76 c 1
 492 198 l 2
 492 243 482 252 437 252 c 2
 368 252 l 1
 366 256 l 1
 375 306 l 1
 375 306 443 302 502 302 c 0
 545 302 588 307 588 307 c 1
EndSplineSet
Validated: 1
EndChar

StartChar: Gbreve
Encoding: 286 286 44
Width: 667
Flags: MW
HStem: -12 50<286 395 286 395.5> 252 50<368 523.5> 590 59<292 421> 710 58<344 386 344 399.5> 798 20G<261 269 269 269 461 469 469 469>
VStem: 40 87<241 401.5>
LayerCount: 2
Fore
SplineSet
588 307 m 1
 592 285 l 1
 568 265 561 230 561 131 c 0
 561 96 564 60 568 43 c 1
 562 34 l 1
 562 34 459 -12 332 -12 c 0
 154 -12 40 108 40 297 c 0
 40 506 182 649 391 649 c 0
 474 649 585 625 585 625 c 1
 589 619 l 1
 589 619 569 544 563 452 c 1
 516 448 l 1
 516 448 519 475 519 502 c 0
 519 564 474 590 368 590 c 0
 216 590 127 495 127 329 c 0
 127 153 217 38 355 38 c 0
 435 38 492 76 492 76 c 1
 492 198 l 2
 492 243 482 252 437 252 c 2
 368 252 l 1
 366 256 l 1
 375 306 l 1
 375 306 443 302 502 302 c 0
 545 302 588 307 588 307 c 1
365 768 m 0
 407 768 444 785 461 818 c 1
 469 818 l 1
 485 808 l 1
 471 759 434 710 365 710 c 0
 296 710 259 759 245 808 c 1
 261 818 l 1
 269 818 l 1
 286 785 323 768 365 768 c 0
EndSplineSet
Validated: 1
EndChar

StartChar: Gcommaaccent
Encoding: 290 290 45
Width: 667
Flags: MW
HStem: -293 21G<272 272> -67 55<335 361> -12 50<286 395 286 395.5> 38 214<368 395> 252 50<368 523.5> 590 59<292 421>
VStem: 40 87<241 401.5>
LayerCount: 2
Fore
SplineSet
588 307 m 1xce
 592 285 l 1
 568 265 561 230 561 131 c 0
 561 96 564 60 568 43 c 1
 562 34 l 1
 562 34 459 -12 332 -12 c 0
 154 -12 40 108 40 297 c 0
 40 506 182 649 391 649 c 0
 474 649 585 625 585 625 c 1
 589 619 l 1
 589 619 569 544 563 452 c 1
 516 448 l 1
 516 448 519 475 519 502 c 0
 519 564 474 590 368 590 c 0
 216 590 127 495 127 329 c 0
 127 153 217 38 355 38 c 0xae
 435 38 492 76 492 76 c 1
 492 198 l 2
 492 243 482 252 437 252 c 2
 368 252 l 1
 366 256 l 1
 375 306 l 1
 375 306 443 302 502 302 c 0
 545 302 588 307 588 307 c 1xce
286 -107 m 1
 288 -93 l 1
 301 -83 324 -67 346 -67 c 0xd6
 376 -67 400 -94 400 -138 c 0
 400 -210 327 -264 272 -293 c 1
 254 -278 l 1
 254 -268 l 1
 294 -243 326 -203 326 -169 c 0
 326 -142 308 -120 286 -107 c 1
EndSplineSet
Validated: 1
EndChar

StartChar: commaaccent
Encoding: 65547 -1 46
Width: 398
Flags: MW
HStem: -293 21G<124 124> -87 20G<187 213>
LayerCount: 2
Fore
SplineSet
138 -107 m 1
 140 -93 l 1
 153 -83 176 -67 198 -67 c 0
 228 -67 252 -94 252 -138 c 0
 252 -210 179 -264 124 -293 c 1
 106 -278 l 1
 106 -268 l 1
 146 -243 178 -203 178 -169 c 0
 178 -142 160 -120 138 -107 c 1
EndSplineSet
Validated: 1
EndChar

StartChar: Gdotaccent
Encoding: 288 288 47
Width: 667
Flags: MW
HStem: -12 50<286 395 286 395.5> 252 50<368 523.5> 590 59<292 421> 719 110<354 378>
VStem: 40 87<241 401.5>
LayerCount: 2
Fore
SplineSet
588 307 m 1
 592 285 l 1
 568 265 561 230 561 131 c 0
 561 96 564 60 568 43 c 1
 562 34 l 1
 562 34 459 -12 332 -12 c 0
 154 -12 40 108 40 297 c 0
 40 506 182 649 391 649 c 0
 474 649 585 625 585 625 c 1
 589 619 l 1
 589 619 569 544 563 452 c 1
 516 448 l 1
 516 448 519 475 519 502 c 0
 519 564 474 590 368 590 c 0
 216 590 127 495 127 329 c 0
 127 153 217 38 355 38 c 0
 435 38 492 76 492 76 c 1
 492 198 l 2
 492 243 482 252 437 252 c 2
 368 252 l 1
 366 256 l 1
 375 306 l 1
 375 306 443 302 502 302 c 0
 545 302 588 307 588 307 c 1
361 719 m 0
 328 719 312 745 312 770 c 0
 312 802 337 829 371 829 c 0
 403 829 420 804 420 778 c 0
 420 746 395 719 361 719 c 0
EndSplineSet
Validated: 1
EndChar

StartChar: H
Encoding: 72 72 48
Width: 754
Flags: MW
HStem: -12 21G<58 58> 0 44<181 267> 302 46<387 406> 594 43 626 20G<295 295 688 688>
VStem: 142 80 535 71<150 153.5 85 301> 535 85
LayerCount: 2
Fore
SplineSet
620 544 m 0x6d
 613 398 606 195 606 112 c 0
 606 58 615 44 650 44 c 0
 670 44 695 47 695 47 c 1
 697 43 l 1
 688 -3 l 1
 688 -3 609 0 565 0 c 0
 530 0 450 -2 450 -2 c 1
 459 43 l 1
 522 44 535 62 535 150 c 2
 535 301 l 1
 535 301 429 302 383 302 c 0
 351 302 217 291 217 291 c 1
 213 112 l 1
 213 58 222 44 257 44 c 0
 277 44 302 47 302 47 c 1
 304 43 l 1
 295 -3 l 2
 295 -2 245 0 210 0 c 0x76
 152 0 60 -7 58 -12 c 1
 64 34 l 1
 126 46 142 64 142 120 c 2
 143 540 l 2
 143 583 136 594 106 594 c 0
 94 594 72 592 72 592 c 1
 70 596 l 1
 77 640 l 1
 77 640 150 637 188 637 c 0xb6
 231 637 295 646 295 646 c 1x6e
 291 601 l 1
 233 592 228 581 225 511 c 2
 219 349 l 1
 387 348 l 2
 437 348 476 351 535 358 c 1
 536 540 l 2
 536 583 529 594 499 594 c 0
 487 594 465 592 465 592 c 1
 463 596 l 1
 470 640 l 2
 470 639 536 637 568 637 c 0x76
 616 637 688 646 688 646 c 1
 684 601 l 1
 634 594 622 582 620 544 c 0x6d
EndSplineSet
Validated: 1
EndChar

StartChar: Hbar
Encoding: 294 294 49
Width: 750
Flags: MW
HStem: -12 21G<56 56> 0 44<179 265> 302 46<385 404> 448 47<115 141 115 141> 594 43 626 20G<293 293 686 686>
VStem: 140 73 533 71<85 301> 533 81<358 449 449 449>
LayerCount: 2
Fore
SplineSet
618 544 m 0x77
 617 529 616 514 616 498 c 1
 662 499 694 500 694 500 c 1
 707 487 l 1
 703 450 l 1
 614 449 l 1x7a80
 608 320 604 178 604 112 c 0
 604 58 613 44 648 44 c 0
 668 44 693 47 693 47 c 1
 695 43 l 1
 686 -3 l 1
 686 -3 607 0 563 0 c 0
 528 0 448 -2 448 -2 c 1
 457 43 l 1
 520 44 533 62 533 150 c 2
 533 301 l 1
 533 301 427 302 381 302 c 0
 349 302 215 291 215 291 c 1
 211 112 l 1
 211 58 220 44 255 44 c 0
 275 44 300 47 300 47 c 1
 302 43 l 1
 293 -3 l 2
 293 -2 243 0 208 0 c 0x7b
 150 0 58 -7 56 -12 c 1
 62 34 l 1
 124 46 140 64 140 120 c 2
 141 448 l 1
 51 448 l 1
 42 457 l 1
 49 496 l 1
 49 496 89 495 141 495 c 1
 141 540 l 2
 141 583 134 594 104 594 c 0
 92 594 70 592 70 592 c 1
 68 596 l 1
 75 640 l 1
 75 640 148 637 186 637 c 0xbb
 229 637 293 646 293 646 c 1x77
 289 601 l 1
 231 592 226 581 223 511 c 1
 222 495 l 1
 396 495 l 2
 438 495 487 495 534 496 c 1
 534 540 l 2
 534 583 527 594 497 594 c 0
 485 594 463 592 463 592 c 1
 461 596 l 1
 468 640 l 2
 468 639 534 637 566 637 c 0x7b
 614 637 686 646 686 646 c 1
 682 601 l 1
 632 594 620 582 618 544 c 0x77
374 449 m 1
 220 449 l 1
 217 349 l 1
 385 348 l 2
 435 348 474 351 533 358 c 1
 533 449 l 1
 374 449 l 1
EndSplineSet
Validated: 1
EndChar

StartChar: I
Encoding: 73 73 50
Width: 361
Flags: MW
HStem: -12 21G<56 56> 0 44 594 43 626 20G<303 303>
VStem: 142 71<92 120> 142 85
LayerCount: 2
Fore
SplineSet
227 544 m 0x54
 220 399 213 195 213 112 c 0
 213 58 222 44 257 44 c 0
 281 44 310 47 310 47 c 1
 312 43 l 1
 303 -3 l 1
 303 -3 219 0 172 0 c 0x68
 121 0 56 -12 56 -12 c 1
 62 34 l 1
 125 46 142 64 142 120 c 2
 143 540 l 2
 143 582 136 594 106 594 c 0
 91 594 64 592 64 592 c 1
 62 596 l 1
 69 640 l 1
 69 640 147 637 188 637 c 0xa8
 234 637 303 646 303 646 c 1
 299 601 l 1
 243 594 229 582 227 544 c 0x54
EndSplineSet
Validated: 1
EndChar

StartChar: IJ
Encoding: 306 306 51
Width: 688
Flags: MW
HStem: -144 21G<401 401> 0 44 573 20G<407 407 450 471> 594 43 626 20G<303 303 638 638>
VStem: 142 71<92 120> 142 85 492 72<115 115>
LayerCount: 2
Fore
SplineSet
227 544 m 0xeb
 220 399 213 195 213 112 c 0
 213 58 222 44 257 44 c 0
 281 44 310 47 310 47 c 1
 312 43 l 1
 303 -3 l 1
 303 -3 219 0 172 0 c 0
 121 0 56 -12 56 -12 c 1
 62 34 l 1
 125 46 142 64 142 120 c 2
 143 540 l 2
 143 582 136 594 106 594 c 0
 91 594 64 592 64 592 c 1
 62 596 l 1
 69 640 l 1
 69 640 147 637 188 637 c 0xf5
 234 637 303 646 303 646 c 1
 299 601 l 1
 243 594 229 582 227 544 c 0xeb
492 115 m 2
 493 540 l 2
 493 583 486 593 456 593 c 0
 444 593 409 589 409 589 c 1
 407 593 l 1
 414 637 l 1
 522 637 l 2xf5
 565 637 638 646 638 646 c 1
 634 601 l 1
 587 594 579 586 577 544 c 0
 573 455 565 198 564 116 c 0
 563 -20 514 -98 401 -144 c 1
 384 -111 l 1
 387 -103 l 1
 468 -54 492 -5 492 115 c 2
EndSplineSet
Validated: 1
EndChar

StartChar: J
Encoding: 74 74 52
Width: 327
Flags: MW
HStem: -144 21G<40 40> 593 44<46 161 89 110> 626 20G<277 277>
VStem: 131 72<115 115>
LayerCount: 2
Fore
SplineSet
131 115 m 2xb0
 132 540 l 2
 132 583 125 593 95 593 c 0
 83 593 48 589 48 589 c 1
 46 593 l 1
 53 637 l 1
 161 637 l 2xd0
 204 637 277 646 277 646 c 1
 273 601 l 1
 226 594 218 586 216 544 c 0
 212 455 204 198 203 116 c 0
 202 -20 153 -98 40 -144 c 1
 23 -111 l 1
 26 -103 l 1
 107 -54 131 -5 131 115 c 2xb0
EndSplineSet
Validated: 1
EndChar

StartChar: Iacute
Encoding: 205 205 53
Width: 361
Flags: MW
HStem: -12 21G<56 56> 0 44 594 43 821 20G<319 319>
VStem: 142 71<92 120> 142 85
LayerCount: 2
Fore
SplineSet
227 544 m 0xb8
 220 399 213 195 213 112 c 0
 213 58 222 44 257 44 c 0
 281 44 310 47 310 47 c 1
 312 43 l 1
 303 -3 l 1
 303 -3 219 0 172 0 c 0x78
 121 0 56 -12 56 -12 c 1
 62 34 l 1
 125 46 142 64 142 120 c 2
 143 540 l 2
 143 582 136 594 106 594 c 0
 91 594 64 592 64 592 c 1
 62 596 l 1
 69 640 l 1
 69 640 147 637 188 637 c 0
 234 637 303 646 303 646 c 1
 299 601 l 1
 243 594 229 582 227 544 c 0xb8
344 787 m 1
 340 777 l 1
 340 777 239 743 134 703 c 1
 126 708 l 1
 120 732 l 1
 214 781 319 841 319 841 c 1
 328 835 l 1
 344 787 l 1
EndSplineSet
Validated: 1
EndChar

StartChar: Icircumflex
Encoding: 206 206 54
Width: 361
Flags: MW
HStem: -12 21G<56 56> 0 44 594 43 826 20G<177 191 191 191>
VStem: 142 71<92 120> 142 85
LayerCount: 2
Fore
SplineSet
227 544 m 0xb8
 220 399 213 195 213 112 c 0
 213 58 222 44 257 44 c 0
 281 44 310 47 310 47 c 1
 312 43 l 1
 303 -3 l 1
 303 -3 219 0 172 0 c 0x78
 121 0 56 -12 56 -12 c 1
 62 34 l 1
 125 46 142 64 142 120 c 2
 143 540 l 2
 143 582 136 594 106 594 c 0
 91 594 64 592 64 592 c 1
 62 596 l 1
 69 640 l 1
 69 640 147 637 188 637 c 0
 234 637 303 646 303 646 c 1
 299 601 l 1
 243 594 229 582 227 544 c 0xb8
53 713 m 1
 39 735 l 1
 104 784 177 846 177 846 c 1
 191 846 l 1
 191 846 264 784 329 735 c 1
 315 713 l 1
 306 712 l 1
 259 739 211 764 184 777 c 1
 156 764 110 740 62 712 c 1
 53 713 l 1
EndSplineSet
Validated: 1
EndChar

StartChar: Idieresis
Encoding: 207 207 55
Width: 361
Flags: MW
HStem: -12 21G<56 56> 0 44 594 43 725 93<90.5 110.5 256.5 276.5>
VStem: 142 71<92 120> 142 85
LayerCount: 2
Fore
SplineSet
227 544 m 0xb8
 220 399 213 195 213 112 c 0
 213 58 222 44 257 44 c 0
 281 44 310 47 310 47 c 1
 312 43 l 1
 303 -3 l 1
 303 -3 219 0 172 0 c 0x78
 121 0 56 -12 56 -12 c 1
 62 34 l 1
 125 46 142 64 142 120 c 2
 143 540 l 2
 143 582 136 594 106 594 c 0
 91 594 64 592 64 592 c 1
 62 596 l 1
 69 640 l 1
 69 640 147 637 188 637 c 0
 234 637 303 646 303 646 c 1
 299 601 l 1
 243 594 229 582 227 544 c 0xb8
262 725 m 0
 235 725 221 747 221 768 c 0
 221 795 242 818 271 818 c 0
 298 818 312 797 312 775 c 0
 312 748 291 725 262 725 c 0
96 725 m 0
 69 725 55 747 55 768 c 0
 55 795 76 818 105 818 c 0
 132 818 146 797 146 775 c 0
 146 748 125 725 96 725 c 0
EndSplineSet
Validated: 1
EndChar

StartChar: Idotaccent
Encoding: 304 304 56
Width: 361
Flags: MW
HStem: -12 21G<56 56> 0 44 594 43 719 110<172 196>
VStem: 142 71<92 120> 142 85
LayerCount: 2
Fore
SplineSet
227 544 m 0xb8
 220 399 213 195 213 112 c 0
 213 58 222 44 257 44 c 0
 281 44 310 47 310 47 c 1
 312 43 l 1
 303 -3 l 1
 303 -3 219 0 172 0 c 0x78
 121 0 56 -12 56 -12 c 1
 62 34 l 1
 125 46 142 64 142 120 c 2
 143 540 l 2
 143 582 136 594 106 594 c 0
 91 594 64 592 64 592 c 1
 62 596 l 1
 69 640 l 1
 69 640 147 637 188 637 c 0
 234 637 303 646 303 646 c 1
 299 601 l 1
 243 594 229 582 227 544 c 0xb8
179 719 m 0
 146 719 130 745 130 770 c 0
 130 802 155 829 189 829 c 0
 221 829 238 804 238 778 c 0
 238 746 213 719 179 719 c 0
EndSplineSet
Validated: 1
EndChar

StartChar: Igrave
Encoding: 204 204 57
Width: 361
Flags: MW
HStem: -12 21G<56 56> 0 44 594 43 821 20G<56 56>
VStem: 142 71<92 120> 142 85
LayerCount: 2
Fore
SplineSet
227 544 m 0xb8
 220 399 213 195 213 112 c 0
 213 58 222 44 257 44 c 0
 281 44 310 47 310 47 c 1
 312 43 l 1
 303 -3 l 1
 303 -3 219 0 172 0 c 0x78
 121 0 56 -12 56 -12 c 1
 62 34 l 1
 125 46 142 64 142 120 c 2
 143 540 l 2
 143 582 136 594 106 594 c 0
 91 594 64 592 64 592 c 1
 62 596 l 1
 69 640 l 1
 69 640 147 637 188 637 c 0
 234 637 303 646 303 646 c 1
 299 601 l 1
 243 594 229 582 227 544 c 0xb8
35 777 m 1
 31 787 l 1
 47 835 l 1
 56 841 l 1
 56 841 161 781 255 732 c 1
 249 708 l 1
 241 703 l 1
 136 743 35 777 35 777 c 1
EndSplineSet
Validated: 1
EndChar

StartChar: Imacron
Encoding: 298 298 58
Width: 361
Flags: MW
HStem: -12 21G<56 56> 0 44 594 43 720 52<168.5 184> 758 20G<327 327>
VStem: 142 71<92 120> 142 85
LayerCount: 2
Fore
SplineSet
227 544 m 0xb4
 220 399 213 195 213 112 c 0
 213 58 222 44 257 44 c 0
 281 44 310 47 310 47 c 1
 312 43 l 1
 303 -3 l 1
 303 -3 219 0 172 0 c 0x74
 121 0 56 -12 56 -12 c 1
 62 34 l 1
 125 46 142 64 142 120 c 2
 143 540 l 2
 143 582 136 594 106 594 c 0
 91 594 64 592 64 592 c 1
 62 596 l 1
 69 640 l 1
 69 640 147 637 188 637 c 0
 234 637 303 646 303 646 c 1
 299 601 l 1
 243 594 229 582 227 544 c 0xb4
327 778 m 1
 333 768 l 1
 326 721 l 1
 184 720 l 2
 125 720 40 719 40 719 c 1
 34 728 l 1
 44 773 l 1
 44 773 139 772 198 772 c 0x74
 248 772 327 778 327 778 c 1
EndSplineSet
Validated: 1
EndChar

StartChar: Iogonek
Encoding: 302 302 59
Width: 361
Flags: MW
HStem: -241 59<221.5 229> 0 44<172 269> 594 43 626 20G<303 303>
VStem: 142 71<92 120> 142 85
LayerCount: 2
Fore
SplineSet
316 -159 m 1xe8
 329 -178 l 1
 329 -178 280 -224 229 -241 c 1
 164 -241 118 -207 118 -147 c 0
 118 -100 159 -53 212 0 c 1
 172 0 l 2
 121 0 56 -12 56 -12 c 1
 62 34 l 1
 125 46 142 64 142 120 c 2
 143 540 l 2
 143 582 136 594 106 594 c 0
 91 594 64 592 64 592 c 1
 62 596 l 1
 69 640 l 1
 69 640 147 637 188 637 c 0xe4
 234 637 303 646 303 646 c 1
 299 601 l 1
 243 594 229 582 227 544 c 0xd4
 220 399 213 195 213 112 c 0
 213 58 222 44 257 44 c 0
 281 44 310 47 310 47 c 1
 312 43 l 1
 303 -3 l 1
 303 -3 281 -2 255 -1 c 1
 203 -56 181 -88 181 -128 c 0
 181 -159 204 -182 239 -182 c 0
 278 -182 316 -159 316 -159 c 1xe8
EndSplineSet
Validated: 1
EndChar

StartChar: K
Encoding: 75 75 60
Width: 628
Flags: MW
HStem: -14 21G<512.5 534.5> 0 44 594 43 626 20G<295 295>
VStem: 142 77
LayerCount: 2
Fore
SplineSet
142 120 m 2x58
 143 540 l 2
 143 583 136 594 106 594 c 0
 94 594 72 592 72 592 c 1
 70 596 l 1
 77 640 l 1
 77 640 150 637 188 637 c 0xa8
 231 637 295 646 295 646 c 1
 291 601 l 1
 241 593 226 579 225 541 c 2
 213 112 l 2
 211 58 222 44 257 44 c 0
 277 44 302 47 302 47 c 1
 304 43 l 1
 295 -3 l 1
 295 -3 216 0 172 0 c 0
 122 0 57 -1 57 -1 c 1
 67 44 l 1
 129 50 142 63 142 120 c 2x58
242 315 m 1
 243 329 l 1
 422 515 l 2
 443 536 453 553 453 567 c 0
 453 584 433 594 390 597 c 1
 388 601 l 1
 395 644 l 1
 395 644 468 637 505 637 c 0
 544 637 597 641 597 641 c 1
 601 634 l 1
 594 593 l 1
 559 586 539 571 479 509 c 2
 318 340 l 1
 486 121 l 2
 534 59 567 36 614 36 c 1
 618 32 l 1
 612 -2 l 1
 612 -2 540 -14 529 -14 c 0
 496 -14 456 18 417 72 c 2
 242 315 l 1
EndSplineSet
Validated: 33
EndChar

StartChar: Kcommaaccent
Encoding: 310 310 61
Width: 628
Flags: MW
HStem: -293 21G<261 261> 0 44 594 43 626 20G<295 295>
VStem: 142 77
LayerCount: 2
Fore
SplineSet
142 120 m 2xd8
 143 540 l 2
 143 583 136 594 106 594 c 0
 94 594 72 592 72 592 c 1
 70 596 l 1
 77 640 l 1
 77 640 150 637 188 637 c 0xe8
 231 637 295 646 295 646 c 1
 291 601 l 1
 241 593 226 579 225 541 c 2
 213 112 l 2
 211 58 222 44 257 44 c 0
 277 44 302 47 302 47 c 1
 304 43 l 1
 295 -3 l 1
 295 -3 216 0 172 0 c 0
 122 0 57 -1 57 -1 c 1
 67 44 l 1
 129 50 142 63 142 120 c 2xd8
242 315 m 1
 243 329 l 1
 422 515 l 2
 443 536 453 553 453 567 c 0
 453 584 433 594 390 597 c 1
 388 601 l 1
 395 644 l 1
 395 644 468 637 505 637 c 0
 544 637 597 641 597 641 c 1
 601 634 l 1
 594 593 l 1
 559 586 539 571 479 509 c 2
 318 340 l 1
 486 121 l 2
 534 59 567 36 614 36 c 1
 618 32 l 1
 612 -2 l 1
 612 -2 540 -14 529 -14 c 0
 496 -14 456 18 417 72 c 2
 242 315 l 1
275 -107 m 1
 277 -93 l 1
 290 -83 313 -67 335 -67 c 0
 365 -67 389 -94 389 -138 c 0
 389 -210 316 -264 261 -293 c 1
 243 -278 l 1
 243 -268 l 1
 283 -243 315 -203 315 -169 c 0
 315 -142 297 -120 275 -107 c 1
EndSplineSet
Validated: 33
EndChar

StartChar: L
Encoding: 76 76 62
Width: 507
Flags: MW
HStem: -10 21G<68 68> 0 45<164.5 357> 594 43 626 20G<296 296>
VStem: 142 72<91.5 120> 142 84
LayerCount: 2
Fore
SplineSet
202 0 m 0x68
 127 0 68 -10 68 -10 c 1
 74 36 l 1
 126 44 142 63 142 120 c 2
 143 540 l 2
 143 583 136 594 106 594 c 0
 94 594 72 592 72 592 c 1
 70 596 l 1
 77 640 l 1
 77 640 151 637 189 637 c 0xa8
 232 637 296 646 296 646 c 1
 292 601 l 1
 225 592 231 575 226 508 c 0x54
 217 383 214 213 214 122 c 0
 214 54 224 45 299 45 c 0
 415 45 436 64 458 187 c 1
 502 192 l 1
 505 187 l 1
 505 187 487 96 476 -3 c 1
 471 -9 l 1
 471 -9 297 0 202 0 c 0x68
EndSplineSet
Validated: 1
EndChar

StartChar: Lacute
Encoding: 313 313 63
Width: 507
Flags: MW
HStem: -10 21G<68 68> 0 45<164.5 357> 594 43 821 20G<325 325>
VStem: 142 72<91.5 120> 142 84
LayerCount: 2
Fore
SplineSet
202 0 m 0x78
 127 0 68 -10 68 -10 c 1
 74 36 l 1
 126 44 142 63 142 120 c 2
 143 540 l 2
 143 583 136 594 106 594 c 0
 94 594 72 592 72 592 c 1
 70 596 l 1
 77 640 l 1
 77 640 151 637 189 637 c 0
 232 637 296 646 296 646 c 1
 292 601 l 1
 225 592 231 575 226 508 c 0xb4
 217 383 214 213 214 122 c 0
 214 54 224 45 299 45 c 0
 415 45 436 64 458 187 c 1
 502 192 l 1
 505 187 l 1
 505 187 487 96 476 -3 c 1
 471 -9 l 1
 471 -9 297 0 202 0 c 0x78
350 787 m 1
 346 777 l 1
 346 777 245 743 140 703 c 1
 132 708 l 1
 126 732 l 1
 220 781 325 841 325 841 c 1
 334 835 l 1
 350 787 l 1
EndSplineSet
Validated: 1
EndChar

StartChar: Lcaron
Encoding: 317 317 64
Width: 507
Flags: MW
HStem: -10 21G<68 68> 0 45<164.5 357> 594 43 626 20G<296 296>
VStem: 142 72<91.5 120> 142 84
LayerCount: 2
Fore
SplineSet
480 633 m 1x68
 487 625 l 1
 487 625 473 515 452 413 c 1
 427 399 l 1
 416 401 l 1
 420 511 410 619 410 619 c 1
 480 633 l 1x68
202 0 m 0
 127 0 68 -10 68 -10 c 1
 74 36 l 1
 126 44 142 63 142 120 c 2
 143 540 l 2
 143 583 136 594 106 594 c 0
 94 594 72 592 72 592 c 1
 70 596 l 1
 77 640 l 1
 77 640 151 637 189 637 c 0xa8
 232 637 296 646 296 646 c 1
 292 601 l 1
 225 592 231 575 226 508 c 0x54
 217 383 214 213 214 122 c 0
 214 54 224 45 299 45 c 0
 415 45 436 64 458 187 c 1
 502 192 l 1
 505 187 l 1
 505 187 487 96 476 -3 c 1
 471 -9 l 1
 471 -9 297 0 202 0 c 0
EndSplineSet
Validated: 33
EndChar

StartChar: Lcommaaccent
Encoding: 315 315 65
Width: 507
Flags: MW
HStem: -293 21G<231 231> -67 67<164.5 320> 0 45<164.5 357> 594 43 626 20G<296 296>
VStem: 142 72<91.5 120>
LayerCount: 2
Fore
SplineSet
202 0 m 0xac
 127 0 68 -10 68 -10 c 1
 74 36 l 1
 126 44 142 63 142 120 c 2
 143 540 l 2
 143 583 136 594 106 594 c 0
 94 594 72 592 72 592 c 1
 70 596 l 1
 77 640 l 1
 77 640 151 637 189 637 c 0xb4
 232 637 296 646 296 646 c 1
 292 601 l 1
 225 592 231 575 226 508 c 0
 217 383 214 213 214 122 c 0
 214 54 224 45 299 45 c 0
 415 45 436 64 458 187 c 1
 502 192 l 1
 505 187 l 1
 505 187 487 96 476 -3 c 1
 471 -9 l 1
 471 -9 297 0 202 0 c 0xac
245 -107 m 1
 247 -93 l 1
 260 -83 283 -67 305 -67 c 0xd4
 335 -67 359 -94 359 -138 c 0
 359 -210 286 -264 231 -293 c 1
 213 -278 l 1
 213 -268 l 1
 253 -243 285 -203 285 -169 c 0
 285 -142 267 -120 245 -107 c 1
EndSplineSet
Validated: 1
EndChar

StartChar: Ldot
Encoding: 319 319 66
Width: 533
Flags: MW
HStem: -10 21G<68 68> 0 45<164.5 357> 383 119<423 455.5> 594 43 626 20G<296 296>
VStem: 142 72<91.5 120> 142 84
LayerCount: 2
Fore
SplineSet
202 0 m 0x74
 127 0 68 -10 68 -10 c 1
 74 36 l 1
 126 44 142 63 142 120 c 2
 143 540 l 2
 143 583 136 594 106 594 c 0
 94 594 72 592 72 592 c 1
 70 596 l 1
 77 640 l 1
 77 640 151 637 189 637 c 0xb4
 232 637 296 646 296 646 c 1
 292 601 l 1
 225 592 231 575 226 508 c 0x6a
 217 383 214 213 214 122 c 0
 214 54 224 45 299 45 c 0
 415 45 436 64 458 187 c 1
 502 192 l 1
 505 187 l 1
 505 187 487 96 476 -3 c 1
 471 -9 l 1
 471 -9 297 0 202 0 c 0x74
436 383 m 0
 398 383 380 411 380 440 c 0
 380 474 404 502 442 502 c 0
 479 502 499 476 499 445 c 0
 499 411 475 383 436 383 c 0
EndSplineSet
Validated: 1
EndChar

StartChar: periodcentered
Encoding: 183 183 67
Width: 238
Flags: MW
HStem: 168 119<103 135.5>
LayerCount: 2
Fore
SplineSet
116 168 m 0
 78 168 60 196 60 225 c 0
 60 259 84 287 122 287 c 0
 159 287 179 261 179 230 c 0
 179 196 155 168 116 168 c 0
EndSplineSet
Validated: 1
EndChar

StartChar: Lslash
Encoding: 321 321 68
Width: 551
Flags: MW
HStem: -10 21G<68 68> 0 45<164.5 357> 594 43 626 20G<296 296>
VStem: 142 72<120 147 88 291>
LayerCount: 2
Fore
SplineSet
202 0 m 0x58
 127 0 68 -10 68 -10 c 1
 74 36 l 1
 126 44 142 63 142 120 c 2
 142 291 l 1
 75 258 l 1
 66 261 l 1
 61 293 l 1
 142 333 l 1
 143 540 l 2
 143 583 136 594 106 594 c 0
 94 594 72 592 72 592 c 1
 70 596 l 1
 77 640 l 1
 77 640 151 637 189 637 c 0xa8
 232 637 296 646 296 646 c 1
 292 601 l 1
 225 592 231 575 226 508 c 0
 223 464 220 414 218 365 c 1
 398 454 l 1
 406 449 l 1
 411 418 l 1
 217 322 l 1
 214 245 214 172 214 122 c 0
 214 54 224 45 299 45 c 0
 415 45 436 64 458 187 c 1
 502 192 l 1
 505 187 l 1
 505 187 487 96 476 -3 c 1
 471 -9 l 1
 471 -9 297 0 202 0 c 0x58
EndSplineSet
Validated: 1
EndChar

StartChar: M
Encoding: 77 77 69
Width: 847
Flags: MW
HStem: -19 21G<397 397> 0 44<112 200> 617 20G<170 200.5 657 682> 623 20G<775 775>
LayerCount: 2
Fore
SplineSet
421 -12 m 1x50
 397 -19 l 1x90
 203 520 l 1
 198 520 l 1
 198 520 164 101 164 75 c 0
 164 54 174 44 195 44 c 0
 205 44 236 45 236 45 c 1
 238 41 l 1
 229 -4 l 1
 229 -4 165 0 132 0 c 0
 92 0 46 -8 46 -8 c 1
 51 38 l 1
 93 43 109 61 115 115 c 0
 123 188 159 517 159 547 c 0
 159 582 133 598 72 602 c 1
 69 607 l 1
 77 642 l 1
 77 642 154 637 186 637 c 0
 215 637 254 641 254 641 c 1
 344 350 423 145 423 145 c 1
 428 145 l 1
 428 145 506 352 601 639 c 0
 601 640 647 637 667 637 c 0x60
 697 637 775 643 775 643 c 1
 777 639 l 1
 772 602 l 1
 714 595 693 580 693 547 c 0
 693 518 708 279 719 139 c 1
 728 61 736 44 768 44 c 0
 780 44 796 46 796 46 c 1
 798 42 l 1
 789 -3 l 1
 789 -3 730 0 694 0 c 0
 651 0 590 -8 590 -8 c 1
 594 38 l 1
 635 43 653 58 653 88 c 0
 653 122 619 520 619 520 c 1
 614 520 l 1
 421 -12 l 1x50
EndSplineSet
Validated: 33
EndChar

StartChar: N
Encoding: 78 78 70
Width: 719
Flags: MW
HStem: -40 21G<570 570> 0 44<137 224> 593 44 625 20G<686 686>
LayerCount: 2
Fore
SplineSet
551 145 m 1xe0
 556 145 l 1
 556 550 l 2
 556 579 545 593 523 593 c 0
 505 593 485 592 485 592 c 1
 483 596 l 1
 492 641 l 1
 492 641 553 637 587 637 c 0xe0
 629 637 686 645 686 645 c 1xd0
 681 599 l 1
 635 593 614 575 613 536 c 2
 599 -26 l 1
 570 -40 l 1
 375 264 198 511 198 511 c 1
 193 511 l 1
 188 84 l 2
 188 54 196 44 219 44 c 0
 229 44 270 45 270 45 c 1
 272 41 l 1
 263 -4 l 1
 263 -4 200 0 157 0 c 0
 117 0 64 -8 64 -8 c 1
 69 38 l 1
 110 43 130 60 131 101 c 2
 144 538 l 1
 144 579 124 593 57 600 c 1
 54 605 l 1
 62 642 l 1
 62 642 120 637 148 637 c 0
 181 637 215 641 215 641 c 1
 381 383 551 145 551 145 c 1xe0
EndSplineSet
Validated: 1
EndChar

StartChar: Nacute
Encoding: 323 323 71
Width: 719
Flags: MW
HStem: -40 21G<570 570> 0 44<137 224> 593 44 821 20G<506 506>
LayerCount: 2
Fore
SplineSet
551 145 m 1
 556 145 l 1
 556 550 l 2
 556 579 545 593 523 593 c 0
 505 593 485 592 485 592 c 1
 483 596 l 1
 492 641 l 1
 492 641 553 637 587 637 c 0
 629 637 686 645 686 645 c 1
 681 599 l 1
 635 593 614 575 613 536 c 2
 599 -26 l 1
 570 -40 l 1
 375 264 198 511 198 511 c 1
 193 511 l 1
 188 84 l 2
 188 54 196 44 219 44 c 0
 229 44 270 45 270 45 c 1
 272 41 l 1
 263 -4 l 1
 263 -4 200 0 157 0 c 0
 117 0 64 -8 64 -8 c 1
 69 38 l 1
 110 43 130 60 131 101 c 2
 144 538 l 1
 144 579 124 593 57 600 c 1
 54 605 l 1
 62 642 l 1
 62 642 120 637 148 637 c 0
 181 637 215 641 215 641 c 1
 381 383 551 145 551 145 c 1
531 787 m 1
 527 777 l 1
 527 777 426 743 321 703 c 1
 313 708 l 1
 307 732 l 1
 401 781 506 841 506 841 c 1
 515 835 l 1
 531 787 l 1
EndSplineSet
Validated: 1
EndChar

StartChar: Ncaron
Encoding: 327 327 72
Width: 719
Flags: MW
HStem: -40 21G<570 570> 0 44<137 224> 593 44 818 20G<249 249 493 493>
LayerCount: 2
Fore
SplineSet
551 145 m 1
 556 145 l 1
 556 550 l 2
 556 579 545 593 523 593 c 0
 505 593 485 592 485 592 c 1
 483 596 l 1
 492 641 l 1
 492 641 553 637 587 637 c 0
 629 637 686 645 686 645 c 1
 681 599 l 1
 635 593 614 575 613 536 c 2
 599 -26 l 1
 570 -40 l 1
 375 264 198 511 198 511 c 1
 193 511 l 1
 188 84 l 2
 188 54 196 44 219 44 c 0
 229 44 270 45 270 45 c 1
 272 41 l 1
 263 -4 l 1
 263 -4 200 0 157 0 c 0
 117 0 64 -8 64 -8 c 1
 69 38 l 1
 110 43 130 60 131 101 c 2
 144 538 l 1
 144 579 124 593 57 600 c 1
 54 605 l 1
 62 642 l 1
 62 642 120 637 148 637 c 0
 181 637 215 641 215 641 c 1
 381 383 551 145 551 145 c 1
502 837 m 1
 516 815 l 1
 451 766 378 704 378 704 c 1
 364 704 l 1
 364 704 291 766 226 815 c 1
 240 837 l 1
 249 838 l 1
 296 811 344 786 371 773 c 1
 399 786 445 810 493 838 c 1
 502 837 l 1
EndSplineSet
Validated: 1
EndChar

StartChar: Ncommaaccent
Encoding: 325 325 73
Width: 719
Flags: MW
HStem: -293 21G<297 297> 0 44<137 224> 593 44 625 20G<686 686>
LayerCount: 2
Fore
SplineSet
551 145 m 1xe0
 556 145 l 1
 556 550 l 2
 556 579 545 593 523 593 c 0
 505 593 485 592 485 592 c 1
 483 596 l 1
 492 641 l 1
 492 641 553 637 587 637 c 0xe0
 629 637 686 645 686 645 c 1xd0
 681 599 l 1
 635 593 614 575 613 536 c 2
 599 -26 l 1
 570 -40 l 1
 375 264 198 511 198 511 c 1
 193 511 l 1
 188 84 l 2
 188 54 196 44 219 44 c 0
 229 44 270 45 270 45 c 1
 272 41 l 1
 263 -4 l 1
 263 -4 200 0 157 0 c 0
 117 0 64 -8 64 -8 c 1
 69 38 l 1
 110 43 130 60 131 101 c 2
 144 538 l 1
 144 579 124 593 57 600 c 1
 54 605 l 1
 62 642 l 1
 62 642 120 637 148 637 c 0
 181 637 215 641 215 641 c 1
 381 383 551 145 551 145 c 1xe0
311 -107 m 1
 313 -93 l 1
 326 -83 349 -67 371 -67 c 0
 401 -67 425 -94 425 -138 c 0
 425 -210 352 -264 297 -293 c 1
 279 -278 l 1
 279 -268 l 1
 319 -243 351 -203 351 -169 c 0
 351 -142 333 -120 311 -107 c 1
EndSplineSet
Validated: 1
EndChar

StartChar: Ntilde
Encoding: 209 209 74
Width: 719
Flags: MW
HStem: -40 21G<570 570> 0 44<137 224> 593 44 711 64<432 445> 744 64<300 313> 800 20G<509 515 515 515>
LayerCount: 2
Fore
SplineSet
551 145 m 1xe8
 556 145 l 1
 556 550 l 2
 556 579 545 593 523 593 c 0
 505 593 485 592 485 592 c 1
 483 596 l 1
 492 641 l 1
 492 641 553 637 587 637 c 0
 629 637 686 645 686 645 c 1
 681 599 l 1
 635 593 614 575 613 536 c 2
 599 -26 l 1
 570 -40 l 1
 375 264 198 511 198 511 c 1
 193 511 l 1
 188 84 l 2
 188 54 196 44 219 44 c 0
 229 44 270 45 270 45 c 1
 272 41 l 1
 263 -4 l 1
 263 -4 200 0 157 0 c 0
 117 0 64 -8 64 -8 c 1
 69 38 l 1
 110 43 130 60 131 101 c 2
 144 538 l 1
 144 579 124 593 57 600 c 1
 54 605 l 1
 62 642 l 1
 62 642 120 637 148 637 c 0
 181 637 215 641 215 641 c 1
 381 383 551 145 551 145 c 1xe8
236 699 m 1
 230 699 l 1
 208 720 l 1
 208 725 l 1
 284 804 l 1
 300 808 l 1xe8
 333 808 418 775 446 775 c 0
 469 775 509 820 509 820 c 1
 515 820 l 1
 537 799 l 1
 537 794 l 1
 461 715 l 1
 445 711 l 1xf4
 412 711 327 744 299 744 c 0
 275 744 236 699 236 699 c 1
EndSplineSet
Validated: 1
EndChar

StartChar: O
Encoding: 79 79 75
Width: 692
Flags: MW
HStem: -12 51<282.5 411.5 282.5 411.5> 589 60<276.5 402.5>
VStem: 40 86<243.5 396> 563 89<241.5 384.5>
LayerCount: 2
Fore
SplineSet
348 39 m 0
 475 39 563 145 563 299 c 0
 563 470 470 589 335 589 c 0
 211 589 126 483 126 329 c 0
 126 158 217 39 348 39 c 0
317 -12 m 0
 153 -12 40 114 40 297 c 0
 40 495 184 649 369 649 c 0
 536 649 652 523 652 341 c 0
 652 142 506 -12 317 -12 c 0
EndSplineSet
Validated: 1
EndChar

StartChar: OE
Encoding: 338 338 76
Width: 963
Flags: MW
HStem: -12 57 1 44<513.5 741> 303 50<664 710> 571 20G<276.5 411> 587 48<633.5 653 541 736.5> 587 62
VStem: 41 86<244 396> 520 72
LayerCount: 2
Fore
SplineSet
583 105 m 2xa7
 583 51 590 45 662 45 c 0
 820 45 839 57 855 167 c 1
 899 172 l 1
 902 167 l 1
 902 167 884 84 875 -1 c 1
 870 -7 l 1
 870 -7 660 1 565 1 c 0x73
 462 1 382 -12 311 -12 c 0
 152 -12 41 115 41 297 c 0
 41 495 182 649 363 649 c 0xa7
 431 649 500 635 582 635 c 0xab
 724 635 814 639 886 649 c 1
 889 643 l 1
 889 643 872 569 866 477 c 1
 818 473 l 1
 818 473 820 502 820 516 c 0
 820 581 807 587 666 587 c 0
 601 587 598 585 596 548 c 2
 588 354 l 1
 692 353 l 2
 728 353 814 364 814 364 c 1
 818 359 l 1
 804 300 l 1
 804 300 718 303 664 303 c 1
 586 296 l 1
 583 105 l 2xa7
342 40 m 0
 471 40 518 85 520 208 c 1
 521 467 l 2
 521 566 483 591 339 591 c 0
 214 591 127 484 127 330 c 0
 127 158 214 40 342 40 c 0
EndSplineSet
Validated: 1
EndChar

StartChar: Oacute
Encoding: 211 211 77
Width: 692
Flags: MW
HStem: -12 51<282.5 411.5 282.5 411.5> 589 60<276.5 402.5> 821 20G<477 477>
VStem: 40 86<243.5 396> 563 89<241.5 384.5>
LayerCount: 2
Fore
SplineSet
348 39 m 0
 475 39 563 145 563 299 c 0
 563 470 470 589 335 589 c 0
 211 589 126 483 126 329 c 0
 126 158 217 39 348 39 c 0
317 -12 m 0
 153 -12 40 114 40 297 c 0
 40 495 184 649 369 649 c 0
 536 649 652 523 652 341 c 0
 652 142 506 -12 317 -12 c 0
502 787 m 1
 498 777 l 1
 498 777 397 743 292 703 c 1
 284 708 l 1
 278 732 l 1
 372 781 477 841 477 841 c 1
 486 835 l 1
 502 787 l 1
EndSplineSet
Validated: 1
EndChar

StartChar: Ocircumflex
Encoding: 212 212 78
Width: 692
Flags: MW
HStem: -12 51<282.5 411.5 282.5 411.5> 589 60<276.5 402.5> 826 20G<335 349 349 349>
VStem: 40 86<243.5 396> 563 89<241.5 384.5>
LayerCount: 2
Fore
SplineSet
348 39 m 0
 475 39 563 145 563 299 c 0
 563 470 470 589 335 589 c 0
 211 589 126 483 126 329 c 0
 126 158 217 39 348 39 c 0
317 -12 m 0
 153 -12 40 114 40 297 c 0
 40 495 184 649 369 649 c 0
 536 649 652 523 652 341 c 0
 652 142 506 -12 317 -12 c 0
211 713 m 1
 197 735 l 1
 262 784 335 846 335 846 c 1
 349 846 l 1
 349 846 422 784 487 735 c 1
 473 713 l 1
 464 712 l 1
 417 739 369 764 342 777 c 1
 314 764 268 740 220 712 c 1
 211 713 l 1
EndSplineSet
Validated: 1
EndChar

StartChar: Odieresis
Encoding: 214 214 79
Width: 692
Flags: MW
HStem: -12 51<282.5 411.5 282.5 411.5> 589 60<276.5 402.5> 725 93<248.5 268.5 414.5 434.5>
VStem: 40 86<243.5 396> 563 89<241.5 384.5>
LayerCount: 2
Fore
SplineSet
348 39 m 0
 475 39 563 145 563 299 c 0
 563 470 470 589 335 589 c 0
 211 589 126 483 126 329 c 0
 126 158 217 39 348 39 c 0
317 -12 m 0
 153 -12 40 114 40 297 c 0
 40 495 184 649 369 649 c 0
 536 649 652 523 652 341 c 0
 652 142 506 -12 317 -12 c 0
420 725 m 0
 393 725 379 747 379 768 c 0
 379 795 400 818 429 818 c 0
 456 818 470 797 470 775 c 0
 470 748 449 725 420 725 c 0
254 725 m 0
 227 725 213 747 213 768 c 0
 213 795 234 818 263 818 c 0
 290 818 304 797 304 775 c 0
 304 748 283 725 254 725 c 0
EndSplineSet
Validated: 1
EndChar

StartChar: Ograve
Encoding: 210 210 80
Width: 692
Flags: MW
HStem: -12 51<282.5 411.5 282.5 411.5> 589 60<276.5 402.5> 821 20G<214 214>
VStem: 40 86<243.5 396> 563 89<241.5 384.5>
LayerCount: 2
Fore
SplineSet
348 39 m 0
 475 39 563 145 563 299 c 0
 563 470 470 589 335 589 c 0
 211 589 126 483 126 329 c 0
 126 158 217 39 348 39 c 0
317 -12 m 0
 153 -12 40 114 40 297 c 0
 40 495 184 649 369 649 c 0
 536 649 652 523 652 341 c 0
 652 142 506 -12 317 -12 c 0
193 777 m 1
 189 787 l 1
 205 835 l 1
 214 841 l 1
 214 841 319 781 413 732 c 1
 407 708 l 1
 399 703 l 1
 294 743 193 777 193 777 c 1
EndSplineSet
Validated: 1
EndChar

StartChar: Ohungarumlaut
Encoding: 336 336 81
Width: 692
Flags: MW
HStem: -12 51<282.5 411.5 282.5 411.5> 589 60<276.5 402.5> 817 20G<399 399>
VStem: 40 86<243.5 396> 563 89<241.5 384.5>
LayerCount: 2
Fore
SplineSet
348 39 m 0
 475 39 563 145 563 299 c 0
 563 470 470 589 335 589 c 0
 211 589 126 483 126 329 c 0
 126 158 217 39 348 39 c 0
317 -12 m 0
 153 -12 40 114 40 297 c 0
 40 495 184 649 369 649 c 0
 536 649 652 523 652 341 c 0
 652 142 506 -12 317 -12 c 0
430 790 m 1
 427 781 l 1
 427 781 347 741 263 694 c 1
 255 699 l 1
 246 720 l 1
 318 773 399 837 399 837 c 1
 408 833 l 1
 430 790 l 1
570 781 m 1
 567 772 l 1
 567 772 487 732 403 685 c 1
 396 689 l 1
 386 710 l 1
 458 764 539 828 539 828 c 1
 548 823 l 1
 570 781 l 1
EndSplineSet
Validated: 1
EndChar

StartChar: hungarumlaut.cap
Encoding: 65548 -1 82
Width: 398
Flags: MW
HStem: 685 21G<246 246> 817 20G<242 242>
LayerCount: 2
Fore
SplineSet
273 790 m 1
 270 781 l 1
 270 781 190 741 106 694 c 1
 98 699 l 1
 89 720 l 1
 161 773 242 837 242 837 c 1
 251 833 l 1
 273 790 l 1
413 781 m 1
 410 772 l 1
 410 772 330 732 246 685 c 1
 239 689 l 1
 229 710 l 1
 301 764 382 828 382 828 c 1
 391 823 l 1
 413 781 l 1
EndSplineSet
Validated: 1
EndChar

StartChar: Omacron
Encoding: 332 332 83
Width: 692
Flags: MW
HStem: -12 51<282.5 411.5 282.5 411.5> 589 60<276.5 402.5> 720 52<326.5 342> 758 20G<485 485>
VStem: 40 86<243.5 396> 563 89<241.5 384.5>
LayerCount: 2
Fore
SplineSet
348 39 m 0xdc
 475 39 563 145 563 299 c 0
 563 470 470 589 335 589 c 0
 211 589 126 483 126 329 c 0
 126 158 217 39 348 39 c 0xdc
317 -12 m 0
 153 -12 40 114 40 297 c 0
 40 495 184 649 369 649 c 0
 536 649 652 523 652 341 c 0
 652 142 506 -12 317 -12 c 0
485 778 m 1
 491 768 l 1
 484 721 l 1
 342 720 l 2
 283 720 198 719 198 719 c 1
 192 728 l 1
 202 773 l 1
 202 773 297 772 356 772 c 0xec
 406 772 485 778 485 778 c 1
EndSplineSet
Validated: 1
EndChar

StartChar: Oslash
Encoding: 216 216 84
Width: 692
Flags: MW
HStem: -98 21G<136 136> -12 51<325.5 411.5 325.5 411.5> 589 60<276.5 354.5> 688 20G<520 520>
VStem: 40 86<281 396> 563 89<241.5 351>
LayerCount: 2
Fore
SplineSet
107 -82 m 1
 166 31 l 1
 87 83 40 178 40 297 c 0
 40 495 184 649 369 649 c 0
 408 649 445 642 478 628 c 1
 520 708 l 1
 549 701 l 1
 552 689 l 1
 511 613 l 1
 598 563 652 465 652 341 c 0
 652 142 506 -12 317 -12 c 0
 272 -12 232 -2 196 14 c 1
 136 -98 l 1
 109 -92 l 1
 107 -82 l 1
348 39 m 0
 475 39 563 145 563 299 c 0
 563 403 528 487 471 538 c 1
 229 78 l 1
 263 53 303 39 348 39 c 0
126 329 m 0
 126 233 154 153 203 102 c 1
 442 559 l 1
 411 578 374 589 335 589 c 0
 211 589 126 483 126 329 c 0
EndSplineSet
Validated: 1
EndChar

StartChar: Otilde
Encoding: 213 213 85
Width: 692
Flags: MW
HStem: -12 51<282.5 411.5 282.5 411.5> 589 60<276.5 402.5> 711 64<403 416> 744 64<271 284> 800 20G<480 486 486 486>
VStem: 40 86<243.5 396> 563 89<241.5 384.5>
LayerCount: 2
Fore
SplineSet
348 39 m 0xd6
 475 39 563 145 563 299 c 0
 563 470 470 589 335 589 c 0
 211 589 126 483 126 329 c 0
 126 158 217 39 348 39 c 0xd6
317 -12 m 0
 153 -12 40 114 40 297 c 0
 40 495 184 649 369 649 c 0
 536 649 652 523 652 341 c 0
 652 142 506 -12 317 -12 c 0
207 699 m 1
 201 699 l 1
 179 720 l 1
 179 725 l 1
 255 804 l 1
 271 808 l 1xd6
 304 808 389 775 417 775 c 0
 440 775 480 820 480 820 c 1
 486 820 l 1
 508 799 l 1
 508 794 l 1
 432 715 l 1
 416 711 l 1xee
 383 711 298 744 270 744 c 0
 246 744 207 699 207 699 c 1
EndSplineSet
Validated: 1
EndChar

StartChar: P
Encoding: 80 80 86
Width: 551
Flags: MW
HStem: -8 21G<63 63> 0 44<185 267> 574 20G<100 120.5> 592 49<314 321> 617 20G<169 201.5>
VStem: 142 71<100.5 120> 444 84<406 495>
LayerCount: 2
Fore
SplineSet
70 596 m 1x56
 77 640 l 1
 77 640 150 637 188 637 c 0x6e
 215 637 314 641 314 641 c 1
 452 641 528 578 528 463 c 0
 528 349 418 244 299 244 c 2
 215 244 l 1
 213 146 l 1
 213 55 218 44 257 44 c 0
 277 44 311 47 311 47 c 1
 313 43 l 1
 304 -3 l 2
 304 -2 246 0 212 0 c 0x56
 158 0 65 -5 63 -8 c 1
 70 38 l 1
 128 48 142 63 142 120 c 2
 143 540 l 2
 143 583 135 594 106 594 c 0xae
 94 594 72 592 72 592 c 1
 70 596 l 1x56
217 303 m 1
 323 288 l 1
 403 301 444 354 444 444 c 0
 444 546 386 592 256 592 c 0x56
 232 592 230 592 229 578 c 0
 223 489 219 389 217 303 c 1
EndSplineSet
Validated: 1
EndChar

StartChar: Q
Encoding: 81 81 87
Width: 697
Flags: MW
HStem: -216 79<674 719> -12 51<282.5 317> 589 60<276.5 402.5>
VStem: 40 86<243.5 396> 563 89<258 384.5>
LayerCount: 2
Fore
SplineSet
317 -12 m 1
 153 -12 40 114 40 297 c 0
 40 495 184 649 369 649 c 0
 536 649 652 523 652 341 c 0
 652 175 550 40 407 0 c 1
 407 -5 l 1
 549 -101 634 -137 714 -137 c 0
 761 -137 794 -127 794 -127 c 1
 798 -130 l 1
 804 -148 l 1
 804 -148 729 -216 709 -216 c 0
 614 -216 554 -185 317 -12 c 1
348 39 m 0
 475 39 563 145 563 299 c 0
 563 470 470 589 335 589 c 0
 211 589 126 483 126 329 c 0
 126 158 217 39 348 39 c 0
EndSplineSet
Validated: 1
EndChar

StartChar: R
Encoding: 82 82 88
Width: 611
Flags: MW
HStem: -16 21G<495.5 512> -1 43 574 20G<100 120.5> 598 43<239 373> 617 20G<169 205>
VStem: 142 72 429 83<444 510>
LayerCount: 2
Fore
SplineSet
299 273 m 1xb6
 216 273 l 1
 213 124 l 1
 213 52 221 42 285 42 c 1
 287 38 l 1
 278 -4 l 2
 278 -3 219 -2 172 -1 c 0
 122 0 57 -4 57 -4 c 1
 66 41 l 1
 128 48 142 62 142 120 c 2
 143 540 l 2
 143 583 135 594 106 594 c 0
 94 594 72 592 72 592 c 1
 70 596 l 1
 77 640 l 1
 77 640 150 637 188 637 c 0x6e
 222 637 311 641 311 641 c 1
 435 641 512 581 512 484 c 0
 512 404 458 334 365 292 c 1
 475 118 l 2
 514 55 545 33 599 33 c 1
 603 29 l 1
 597 -5 l 1
 512 -16 l 1
 479 -16 438 21 406 79 c 2
 299 273 l 1xb6
218 329 m 1
 321 319 l 1
 321 319 429 348 429 466 c 0
 429 554 368 598 246 598 c 0x76
 232 598 229 593 228 575 c 0
 222 469 219 399 218 329 c 1
EndSplineSet
Validated: 33
EndChar

StartChar: Racute
Encoding: 340 340 89
Width: 611
Flags: MW
HStem: -16 21G<495.5 512> -1 43 574 20G<100 120.5> 598 43<239 373> 617 20G<169 205> 821 20G<440 440>
VStem: 142 72 429 83<444 510>
LayerCount: 2
Fore
SplineSet
299 273 m 1xb7
 216 273 l 1
 213 124 l 1
 213 52 221 42 285 42 c 1
 287 38 l 1
 278 -4 l 2
 278 -3 219 -2 172 -1 c 0
 122 0 57 -4 57 -4 c 1
 66 41 l 1
 128 48 142 62 142 120 c 2
 143 540 l 2
 143 583 135 594 106 594 c 0
 94 594 72 592 72 592 c 1
 70 596 l 1
 77 640 l 1
 77 640 150 637 188 637 c 0x6f
 222 637 311 641 311 641 c 1
 435 641 512 581 512 484 c 0
 512 404 458 334 365 292 c 1
 475 118 l 2
 514 55 545 33 599 33 c 1
 603 29 l 1
 597 -5 l 1
 512 -16 l 1
 479 -16 438 21 406 79 c 2
 299 273 l 1xb7
218 329 m 1
 321 319 l 1
 321 319 429 348 429 466 c 0
 429 554 368 598 246 598 c 0x77
 232 598 229 593 228 575 c 0
 222 469 219 399 218 329 c 1
465 787 m 1
 461 777 l 1
 461 777 360 743 255 703 c 1
 247 708 l 1
 241 732 l 1
 335 781 440 841 440 841 c 1
 449 835 l 1
 465 787 l 1
EndSplineSet
Validated: 33
EndChar

StartChar: Rcaron
Encoding: 344 344 90
Width: 611
Flags: MW
HStem: -16 21G<495.5 512> -1 43 574 20G<100 120.5> 598 43<239 373> 617 20G<169 205> 818 20G<183 183 427 427>
VStem: 142 72 429 83<444 510>
LayerCount: 2
Fore
SplineSet
299 273 m 1xb7
 216 273 l 1
 213 124 l 1
 213 52 221 42 285 42 c 1
 287 38 l 1
 278 -4 l 2
 278 -3 219 -2 172 -1 c 0
 122 0 57 -4 57 -4 c 1
 66 41 l 1
 128 48 142 62 142 120 c 2
 143 540 l 2
 143 583 135 594 106 594 c 0
 94 594 72 592 72 592 c 1
 70 596 l 1
 77 640 l 1
 77 640 150 637 188 637 c 0x6f
 222 637 311 641 311 641 c 1
 435 641 512 581 512 484 c 0
 512 404 458 334 365 292 c 1
 475 118 l 2
 514 55 545 33 599 33 c 1
 603 29 l 1
 597 -5 l 1
 512 -16 l 1
 479 -16 438 21 406 79 c 2
 299 273 l 1xb7
218 329 m 1
 321 319 l 1
 321 319 429 348 429 466 c 0
 429 554 368 598 246 598 c 0x77
 232 598 229 593 228 575 c 0
 222 469 219 399 218 329 c 1
436 837 m 1
 450 815 l 1
 385 766 312 704 312 704 c 1
 298 704 l 1
 298 704 225 766 160 815 c 1
 174 837 l 1
 183 838 l 1
 230 811 278 786 305 773 c 1
 333 786 379 810 427 838 c 1
 436 837 l 1
EndSplineSet
Validated: 33
EndChar

StartChar: Rcommaaccent
Encoding: 342 342 91
Width: 611
Flags: MW
HStem: -293 21G<251 251> -1 43 42 231<253 285> 574 20G<100 120.5> 598 43<239 373> 617 20G<169 205>
VStem: 142 72 429 83<444 510>
LayerCount: 2
Fore
SplineSet
299 273 m 1xbb
 216 273 l 1xbb
 213 124 l 1
 213 52 221 42 285 42 c 1
 287 38 l 1
 278 -4 l 2
 278 -3 219 -2 172 -1 c 0
 122 0 57 -4 57 -4 c 1
 66 41 l 1
 128 48 142 62 142 120 c 2
 143 540 l 2
 143 583 135 594 106 594 c 0
 94 594 72 592 72 592 c 1
 70 596 l 1
 77 640 l 1
 77 640 150 637 188 637 c 0xd7
 222 637 311 641 311 641 c 1
 435 641 512 581 512 484 c 0
 512 404 458 334 365 292 c 1
 475 118 l 2
 514 55 545 33 599 33 c 1
 603 29 l 1
 597 -5 l 1
 512 -16 l 1
 479 -16 438 21 406 79 c 2
 299 273 l 1xbb
218 329 m 1
 321 319 l 1
 321 319 429 348 429 466 c 0
 429 554 368 598 246 598 c 0
 232 598 229 593 228 575 c 0
 222 469 219 399 218 329 c 1
265 -107 m 1
 267 -93 l 1
 280 -83 303 -67 325 -67 c 0
 355 -67 379 -94 379 -138 c 0
 379 -210 306 -264 251 -293 c 1
 233 -278 l 1
 233 -268 l 1
 273 -243 305 -203 305 -169 c 0
 305 -142 287 -120 265 -107 c 1
EndSplineSet
Validated: 33
EndChar

StartChar: S
Encoding: 83 83 92
Width: 530
Flags: MW
HStem: -12 49<190 285.5 190 291.5> 595 54<234.5 316>
VStem: 68 77<469 515.5> 390 76
LayerCount: 2
Fore
SplineSet
219 -12 m 0
 125 -12 62 22 62 22 c 1
 57 32 l 1
 57 32 69 109 69 206 c 1
 114 211 l 1
 114 67 136 37 244 37 c 0
 327 37 383 79 383 147 c 0
 383 212 308 248 231 288 c 0
 151 330 68 376 68 463 c 0
 68 568 168 649 298 649 c 0
 387 649 451 624 451 624 c 1
 454 618 l 1
 454 618 438 541 432 449 c 1
 393 445 l 1
 387 450 l 1
 387 450 390 471 390 502 c 0
 390 572 361 595 271 595 c 0
 198 595 145 554 145 499 c 0
 145 439 210 402 281 365 c 0
 368 320 466 274 466 183 c 0
 466 69 364 -12 219 -12 c 0
EndSplineSet
Validated: 1
EndChar

StartChar: Sacute
Encoding: 346 346 93
Width: 530
Flags: MW
HStem: -12 49<190 285.5 190 291.5> 595 54<234.5 316> 821 20G<397 397>
VStem: 68 77<469 515.5> 390 76
LayerCount: 2
Fore
SplineSet
219 -12 m 0
 125 -12 62 22 62 22 c 1
 57 32 l 1
 57 32 69 109 69 206 c 1
 114 211 l 1
 114 67 136 37 244 37 c 0
 327 37 383 79 383 147 c 0
 383 212 308 248 231 288 c 0
 151 330 68 376 68 463 c 0
 68 568 168 649 298 649 c 0
 387 649 451 624 451 624 c 1
 454 618 l 1
 454 618 438 541 432 449 c 1
 393 445 l 1
 387 450 l 1
 387 450 390 471 390 502 c 0
 390 572 361 595 271 595 c 0
 198 595 145 554 145 499 c 0
 145 439 210 402 281 365 c 0
 368 320 466 274 466 183 c 0
 466 69 364 -12 219 -12 c 0
422 787 m 1
 418 777 l 1
 418 777 317 743 212 703 c 1
 204 708 l 1
 198 732 l 1
 292 781 397 841 397 841 c 1
 406 835 l 1
 422 787 l 1
EndSplineSet
Validated: 1
EndChar

StartChar: Scaron
Encoding: 352 352 94
Width: 530
Flags: MW
HStem: -12 49<190 285.5 190 291.5> 595 54<234.5 316> 818 20G<140 140 384 384>
VStem: 68 77<469 515.5> 390 76
LayerCount: 2
Fore
SplineSet
219 -12 m 0
 125 -12 62 22 62 22 c 1
 57 32 l 1
 57 32 69 109 69 206 c 1
 114 211 l 1
 114 67 136 37 244 37 c 0
 327 37 383 79 383 147 c 0
 383 212 308 248 231 288 c 0
 151 330 68 376 68 463 c 0
 68 568 168 649 298 649 c 0
 387 649 451 624 451 624 c 1
 454 618 l 1
 454 618 438 541 432 449 c 1
 393 445 l 1
 387 450 l 1
 387 450 390 471 390 502 c 0
 390 572 361 595 271 595 c 0
 198 595 145 554 145 499 c 0
 145 439 210 402 281 365 c 0
 368 320 466 274 466 183 c 0
 466 69 364 -12 219 -12 c 0
393 837 m 1
 407 815 l 1
 342 766 269 704 269 704 c 1
 255 704 l 1
 255 704 182 766 117 815 c 1
 131 837 l 1
 140 838 l 1
 187 811 235 786 262 773 c 1
 290 786 336 810 384 838 c 1
 393 837 l 1
EndSplineSet
Validated: 1
EndChar

StartChar: Scedilla
Encoding: 350 350 95
Width: 530
Flags: MW
HStem: -233 21G<206 248.5> -218 20G<226 255> -161 20G<178 187 187 187> -12 49<190 219 219 227> 595 54<234.5 316>
VStem: 68 77<469 515.5> 390 76
LayerCount: 2
Fore
SplineSet
219 -12 m 2x7e
 125 -12 62 22 62 22 c 1
 57 32 l 1
 57 32 69 109 69 206 c 1
 114 211 l 1
 114 67 136 37 244 37 c 0
 327 37 383 79 383 147 c 0
 383 212 308 248 231 288 c 0
 151 330 68 376 68 463 c 0
 68 568 168 649 298 649 c 0
 387 649 451 624 451 624 c 1
 454 618 l 1
 454 618 438 541 432 449 c 1
 393 445 l 1
 387 450 l 1
 387 450 390 471 390 502 c 0
 390 572 361 595 271 595 c 0
 198 595 145 554 145 499 c 0
 145 439 210 402 281 365 c 0
 368 320 466 274 466 183 c 0
 466 83 387 8 270 -8 c 1
 256 -50 l 1
 289 -73 341 -102 341 -139 c 0
 341 -191 276 -233 221 -233 c 0xbe
 191 -233 153 -220 153 -197 c 0
 153 -184 168 -157 178 -141 c 1
 187 -141 l 1
 188 -178 210 -198 242 -198 c 0
 268 -198 290 -183 290 -160 c 0
 290 -136 245 -108 205 -85 c 1
 227 -12 l 1
 219 -12 l 2x7e
EndSplineSet
Validated: 1
EndChar

StartChar: Scommaaccent
Encoding: 536 536 96
Width: 530
Flags: MW
HStem: -293 21G<184 184> -67 55<247 273> -12 49<190 285.5 190 291.5> 595 54<234.5 316>
VStem: 68 77<469 515.5> 390 76
LayerCount: 2
Fore
SplineSet
219 -12 m 0xbc
 125 -12 62 22 62 22 c 1
 57 32 l 1
 57 32 69 109 69 206 c 1
 114 211 l 1
 114 67 136 37 244 37 c 0
 327 37 383 79 383 147 c 0
 383 212 308 248 231 288 c 0
 151 330 68 376 68 463 c 0
 68 568 168 649 298 649 c 0
 387 649 451 624 451 624 c 1
 454 618 l 1
 454 618 438 541 432 449 c 1
 393 445 l 1
 387 450 l 1
 387 450 390 471 390 502 c 0
 390 572 361 595 271 595 c 0
 198 595 145 554 145 499 c 0
 145 439 210 402 281 365 c 0
 368 320 466 274 466 183 c 0
 466 69 364 -12 219 -12 c 0xbc
198 -107 m 1
 200 -93 l 1
 213 -83 236 -67 258 -67 c 0xdc
 288 -67 312 -94 312 -138 c 0
 312 -210 239 -264 184 -293 c 1
 166 -278 l 1
 166 -268 l 1
 206 -243 238 -203 238 -169 c 0
 238 -142 220 -120 198 -107 c 1
EndSplineSet
Validated: 1
EndChar

StartChar: T
Encoding: 84 84 97
Width: 546
Flags: MW
HStem: -4 21G<125 125> 0 44 598 40<233 233> 629 20G<33 33 511 511>
VStem: 233 70<162 193 87.5 598>
LayerCount: 2
Fore
SplineSet
233 162 m 2xa8
 233 598 l 1x68
 76 591 73 589 56 472 c 1
 9 468 l 1
 9 468 21 556 24 641 c 1
 33 649 l 1x58
 116 638 l 1
 426 638 l 1x68
 511 649 l 1x58
 520 641 l 1
 523 556 535 472 535 472 c 1
 488 468 l 1
 468 588 464 591 319 598 c 1
 311 518 303 274 303 112 c 0
 303 63 319 44 360 44 c 0
 395 44 415 47 415 47 c 1
 418 43 l 1
 409 -3 l 1
 409 -3 309 0 262 0 c 0x68
 213 0 125 -4 125 -4 c 1
 133 39 l 1
 226 47 233 56 233 162 c 2xa8
EndSplineSet
Validated: 1
EndChar

StartChar: Tbar
Encoding: 358 358 98
Width: 546
Flags: MW
HStem: -4 21G<125 125> 0 44 299 46<210 233> 598 40<233 233> 629 20G<33 33 511 511>
VStem: 233 70<87.5 299>
LayerCount: 2
Fore
SplineSet
233 162 m 2xb4
 233 299 l 1
 187 299 140 298 140 298 c 1
 131 307 l 1
 138 346 l 1
 138 346 186 345 233 345 c 1
 233 598 l 1x74
 76 591 73 589 56 472 c 1
 9 468 l 1
 9 468 21 556 24 641 c 1
 33 649 l 1x6c
 116 638 l 1
 426 638 l 1x74
 511 649 l 1x6c
 520 641 l 1
 523 556 535 472 535 472 c 1
 488 468 l 1
 468 588 464 591 319 598 c 1
 314 552 309 452 306 345 c 1
 344 347 383 350 383 350 c 1
 396 337 l 1
 392 300 l 1
 305 299 l 1
 304 234 303 168 303 112 c 0
 303 63 319 44 360 44 c 0
 395 44 415 47 415 47 c 1
 418 43 l 1
 409 -3 l 1
 409 -3 309 0 262 0 c 0x74
 213 0 125 -4 125 -4 c 1
 133 39 l 1
 226 47 233 56 233 162 c 2xb4
EndSplineSet
Validated: 1
EndChar

StartChar: Tcaron
Encoding: 356 356 99
Width: 546
Flags: MW
HStem: -4 21G<125 125> 0 44 598 40<233 233> 818 20G<154 154 398 398>
VStem: 233 70<162 193 87.5 598>
LayerCount: 2
Fore
SplineSet
233 162 m 2xb8
 233 598 l 1
 76 591 73 589 56 472 c 1
 9 468 l 1
 9 468 21 556 24 641 c 1
 33 649 l 1
 116 638 l 1
 426 638 l 1
 511 649 l 1
 520 641 l 1
 523 556 535 472 535 472 c 1
 488 468 l 1
 468 588 464 591 319 598 c 1
 311 518 303 274 303 112 c 0
 303 63 319 44 360 44 c 0
 395 44 415 47 415 47 c 1
 418 43 l 1
 409 -3 l 1
 409 -3 309 0 262 0 c 0x78
 213 0 125 -4 125 -4 c 1
 133 39 l 1
 226 47 233 56 233 162 c 2xb8
407 837 m 1
 421 815 l 1
 356 766 283 704 283 704 c 1
 269 704 l 1
 269 704 196 766 131 815 c 1
 145 837 l 1
 154 838 l 1
 201 811 249 786 276 773 c 1
 304 786 350 810 398 838 c 1
 407 837 l 1
EndSplineSet
Validated: 1
EndChar

StartChar: Tcedilla
Encoding: 354 354 100
Width: 546
Flags: MW
HStem: -233 21G<228 270.5> -218 20G<248 277> -161 20G<200 209 209 209> 0 44 598 40<233 233> 629 20G<33 33 511 511>
VStem: 233 70<162 193 87.5 598>
LayerCount: 2
Fore
SplineSet
227 -85 m 1x7a
 253 0 l 1
 203 0 125 -4 125 -4 c 1
 133 39 l 1
 226 47 233 56 233 162 c 2
 233 598 l 1x7a
 76 591 73 589 56 472 c 1
 9 468 l 1
 9 468 21 556 24 641 c 1
 33 649 l 1x76
 116 638 l 1
 426 638 l 1x7a
 511 649 l 1x76
 520 641 l 1
 523 556 535 472 535 472 c 1
 488 468 l 1
 468 588 464 591 319 598 c 1
 311 518 303 274 303 112 c 0
 303 63 319 44 360 44 c 0
 395 44 415 47 415 47 c 1
 418 43 l 1
 409 -3 l 1
 409 -3 344 -1 295 0 c 1
 278 -50 l 1
 311 -73 363 -102 363 -139 c 0
 363 -191 298 -233 243 -233 c 0xba
 213 -233 175 -220 175 -197 c 0
 175 -184 190 -157 200 -141 c 1
 209 -141 l 1
 210 -178 232 -198 264 -198 c 0
 290 -198 312 -183 312 -160 c 0
 312 -136 267 -108 227 -85 c 1x7a
EndSplineSet
Validated: 1
EndChar

StartChar: Thorn
Encoding: 222 222 101
Width: 543
Flags: MW
HStem: -12 21G<56 56> 0 44 454 49<237.5 307 307 314> 594 43 626 20G<303 303>
VStem: 142 71<92 112 112 120> 142 80 437 84<288.5 367>
LayerCount: 2
Fore
SplineSet
227 544 m 0x6d
 226 523 224 513 225 503 c 1
 307 503 l 2
 445 503 521 445 521 340 c 0
 521 237 410 148 284 148 c 2
 213 148 l 1
 213 112 l 2
 213 58 222 44 257 44 c 0
 281 44 310 47 310 47 c 1
 312 43 l 1
 303 -3 l 1
 303 -3 219 0 172 0 c 0x75
 121 0 56 -12 56 -12 c 1
 62 34 l 1
 125 46 142 64 142 120 c 2
 143 540 l 2
 143 582 136 594 106 594 c 0
 91 594 64 592 64 592 c 1
 62 596 l 1
 69 640 l 1
 69 640 147 637 188 637 c 0xb5
 234 637 303 646 303 646 c 1
 299 601 l 1
 243 594 229 582 227 544 c 0x6d
222 446 m 1x73
 217 331 215 260 214 209 c 1
 238 201 287 193 316 192 c 1
 396 202 437 246 437 321 c 0
 437 413 379 454 249 454 c 0
 226 454 224 453 222 446 c 1x73
EndSplineSet
Validated: 33
EndChar

StartChar: U
Encoding: 85 85 102
Width: 681
Flags: MW
HStem: -12 57<297 405.5 297 405.5> 594 43 626 20G<260 260 648 648>
VStem: 108 80
LayerCount: 2
Fore
SplineSet
184 250 m 1xb0
 184 118 243 45 351 45 c 0
 460 45 519 104 519 214 c 0
 519 284 513 540 513 540 c 1
 510 586 505 594 476 594 c 0
 464 594 433 592 433 592 c 1
 431 596 l 1
 438 640 l 1
 438 640 513 637 551 637 c 0xd0
 594 637 648 646 648 646 c 1xb0
 644 601 l 1
 586 593 575 585 575 544 c 2
 575 208 l 2
 575 68 484 -12 327 -12 c 0
 187 -12 108 68 108 209 c 2
 108 540 l 2
 108 583 101 594 71 594 c 0
 59 594 37 592 37 592 c 1
 35 596 l 1
 42 640 l 1
 42 640 117 637 155 637 c 0xd0
 198 637 260 646 260 646 c 1
 256 601 l 1
 206 594 194 582 192 544 c 2
 184 250 l 1xb0
EndSplineSet
Validated: 1
EndChar

StartChar: Uacute
Encoding: 218 218 103
Width: 681
Flags: MW
HStem: -12 57<297 405.5 297 405.5> 594 43 821 20G<482 482>
VStem: 108 80
LayerCount: 2
Fore
SplineSet
184 250 m 1
 184 118 243 45 351 45 c 0
 460 45 519 104 519 214 c 0
 519 284 513 540 513 540 c 1
 510 586 505 594 476 594 c 0
 464 594 433 592 433 592 c 1
 431 596 l 1
 438 640 l 1
 438 640 513 637 551 637 c 0
 594 637 648 646 648 646 c 1
 644 601 l 1
 586 593 575 585 575 544 c 2
 575 208 l 2
 575 68 484 -12 327 -12 c 0
 187 -12 108 68 108 209 c 2
 108 540 l 2
 108 583 101 594 71 594 c 0
 59 594 37 592 37 592 c 1
 35 596 l 1
 42 640 l 1
 42 640 117 637 155 637 c 0
 198 637 260 646 260 646 c 1
 256 601 l 1
 206 594 194 582 192 544 c 2
 184 250 l 1
507 787 m 1
 503 777 l 1
 503 777 402 743 297 703 c 1
 289 708 l 1
 283 732 l 1
 377 781 482 841 482 841 c 1
 491 835 l 1
 507 787 l 1
EndSplineSet
Validated: 1
EndChar

StartChar: Ucircumflex
Encoding: 219 219 104
Width: 681
Flags: MW
HStem: -12 57<297 405.5 297 405.5> 594 43 826 20G<340 354 354 354>
VStem: 108 80
LayerCount: 2
Fore
SplineSet
184 250 m 1
 184 118 243 45 351 45 c 0
 460 45 519 104 519 214 c 0
 519 284 513 540 513 540 c 1
 510 586 505 594 476 594 c 0
 464 594 433 592 433 592 c 1
 431 596 l 1
 438 640 l 1
 438 640 513 637 551 637 c 0
 594 637 648 646 648 646 c 1
 644 601 l 1
 586 593 575 585 575 544 c 2
 575 208 l 2
 575 68 484 -12 327 -12 c 0
 187 -12 108 68 108 209 c 2
 108 540 l 2
 108 583 101 594 71 594 c 0
 59 594 37 592 37 592 c 1
 35 596 l 1
 42 640 l 1
 42 640 117 637 155 637 c 0
 198 637 260 646 260 646 c 1
 256 601 l 1
 206 594 194 582 192 544 c 2
 184 250 l 1
216 713 m 1
 202 735 l 1
 267 784 340 846 340 846 c 1
 354 846 l 1
 354 846 427 784 492 735 c 1
 478 713 l 1
 469 712 l 1
 422 739 374 764 347 777 c 1
 319 764 273 740 225 712 c 1
 216 713 l 1
EndSplineSet
Validated: 1
EndChar

StartChar: Udieresis
Encoding: 220 220 105
Width: 681
Flags: MW
HStem: -12 57<297 405.5 297 405.5> 594 43 725 93<253.5 273.5 419.5 439.5>
VStem: 108 80
LayerCount: 2
Fore
SplineSet
184 250 m 1
 184 118 243 45 351 45 c 0
 460 45 519 104 519 214 c 0
 519 284 513 540 513 540 c 1
 510 586 505 594 476 594 c 0
 464 594 433 592 433 592 c 1
 431 596 l 1
 438 640 l 1
 438 640 513 637 551 637 c 0
 594 637 648 646 648 646 c 1
 644 601 l 1
 586 593 575 585 575 544 c 2
 575 208 l 2
 575 68 484 -12 327 -12 c 0
 187 -12 108 68 108 209 c 2
 108 540 l 2
 108 583 101 594 71 594 c 0
 59 594 37 592 37 592 c 1
 35 596 l 1
 42 640 l 1
 42 640 117 637 155 637 c 0
 198 637 260 646 260 646 c 1
 256 601 l 1
 206 594 194 582 192 544 c 2
 184 250 l 1
425 725 m 0
 398 725 384 747 384 768 c 0
 384 795 405 818 434 818 c 0
 461 818 475 797 475 775 c 0
 475 748 454 725 425 725 c 0
259 725 m 0
 232 725 218 747 218 768 c 0
 218 795 239 818 268 818 c 0
 295 818 309 797 309 775 c 0
 309 748 288 725 259 725 c 0
EndSplineSet
Validated: 1
EndChar

StartChar: Ugrave
Encoding: 217 217 106
Width: 681
Flags: MW
HStem: -12 57<297 405.5 297 405.5> 594 43 821 20G<219 219>
VStem: 108 80
LayerCount: 2
Fore
SplineSet
184 250 m 1
 184 118 243 45 351 45 c 0
 460 45 519 104 519 214 c 0
 519 284 513 540 513 540 c 1
 510 586 505 594 476 594 c 0
 464 594 433 592 433 592 c 1
 431 596 l 1
 438 640 l 1
 438 640 513 637 551 637 c 0
 594 637 648 646 648 646 c 1
 644 601 l 1
 586 593 575 585 575 544 c 2
 575 208 l 2
 575 68 484 -12 327 -12 c 0
 187 -12 108 68 108 209 c 2
 108 540 l 2
 108 583 101 594 71 594 c 0
 59 594 37 592 37 592 c 1
 35 596 l 1
 42 640 l 1
 42 640 117 637 155 637 c 0
 198 637 260 646 260 646 c 1
 256 601 l 1
 206 594 194 582 192 544 c 2
 184 250 l 1
198 777 m 1
 194 787 l 1
 210 835 l 1
 219 841 l 1
 219 841 324 781 418 732 c 1
 412 708 l 1
 404 703 l 1
 299 743 198 777 198 777 c 1
EndSplineSet
Validated: 1
EndChar

StartChar: Uhungarumlaut
Encoding: 368 368 107
Width: 681
Flags: MW
HStem: -12 57<297 405.5 297 405.5> 594 43 817 20G<404 404>
VStem: 108 80
LayerCount: 2
Fore
SplineSet
184 250 m 1
 184 118 243 45 351 45 c 0
 460 45 519 104 519 214 c 0
 519 284 513 540 513 540 c 1
 510 586 505 594 476 594 c 0
 464 594 433 592 433 592 c 1
 431 596 l 1
 438 640 l 1
 438 640 513 637 551 637 c 0
 594 637 648 646 648 646 c 1
 644 601 l 1
 586 593 575 585 575 544 c 2
 575 208 l 2
 575 68 484 -12 327 -12 c 0
 187 -12 108 68 108 209 c 2
 108 540 l 2
 108 583 101 594 71 594 c 0
 59 594 37 592 37 592 c 1
 35 596 l 1
 42 640 l 1
 42 640 117 637 155 637 c 0
 198 637 260 646 260 646 c 1
 256 601 l 1
 206 594 194 582 192 544 c 2
 184 250 l 1
435 790 m 1
 432 781 l 1
 432 781 352 741 268 694 c 1
 260 699 l 1
 251 720 l 1
 323 773 404 837 404 837 c 1
 413 833 l 1
 435 790 l 1
575 781 m 1
 572 772 l 1
 572 772 492 732 408 685 c 1
 401 689 l 1
 391 710 l 1
 463 764 544 828 544 828 c 1
 553 823 l 1
 575 781 l 1
EndSplineSet
Validated: 1
EndChar

StartChar: Umacron
Encoding: 362 362 108
Width: 681
Flags: MW
HStem: -12 57<297 405.5 297 405.5> 594 43 720 52<331.5 347> 758 20G<490 490>
VStem: 108 80
LayerCount: 2
Fore
SplineSet
184 250 m 1xd8
 184 118 243 45 351 45 c 0
 460 45 519 104 519 214 c 0
 519 284 513 540 513 540 c 1
 510 586 505 594 476 594 c 0
 464 594 433 592 433 592 c 1
 431 596 l 1
 438 640 l 1
 438 640 513 637 551 637 c 0
 594 637 648 646 648 646 c 1
 644 601 l 1
 586 593 575 585 575 544 c 2
 575 208 l 2
 575 68 484 -12 327 -12 c 0
 187 -12 108 68 108 209 c 2
 108 540 l 2
 108 583 101 594 71 594 c 0
 59 594 37 592 37 592 c 1
 35 596 l 1
 42 640 l 1
 42 640 117 637 155 637 c 0
 198 637 260 646 260 646 c 1
 256 601 l 1
 206 594 194 582 192 544 c 2
 184 250 l 1xd8
490 778 m 1
 496 768 l 1
 489 721 l 1
 347 720 l 2
 288 720 203 719 203 719 c 1
 197 728 l 1
 207 773 l 1
 207 773 302 772 361 772 c 0xe8
 411 772 490 778 490 778 c 1
EndSplineSet
Validated: 1
EndChar

StartChar: Uogonek
Encoding: 370 370 109
Width: 681
Flags: MW
HStem: -241 59<431 438> -12 57<297 344> 594 43 626 20G<260 260 648 648>
VStem: 108 76<209 250 184 540>
LayerCount: 2
Fore
SplineSet
525 -159 m 1xd8
 538 -178 l 1
 538 -178 489 -224 438 -241 c 1
 370 -241 327 -205 327 -147 c 0
 327 -110 352 -70 421 0 c 1
 393 -8 361 -12 327 -12 c 0
 187 -12 108 68 108 209 c 2
 108 540 l 2
 108 583 101 594 71 594 c 0
 59 594 37 592 37 592 c 1
 35 596 l 1
 42 640 l 1
 42 640 117 637 155 637 c 0xe8
 198 637 260 646 260 646 c 1xd8
 256 601 l 1
 206 594 194 582 192 544 c 2
 184 250 l 1
 184 118 243 45 351 45 c 0
 460 45 519 104 519 214 c 0
 519 284 513 540 513 540 c 1
 510 587 505 594 476 594 c 0
 464 594 433 592 433 592 c 1
 431 596 l 1
 438 640 l 1
 438 640 513 637 551 637 c 0xe8
 594 637 648 646 648 646 c 1
 644 601 l 1
 585 592 575 584 575 544 c 2
 575 208 l 2
 575 141 553 86 509 42 c 0
 412 -53 390 -85 390 -128 c 0
 390 -160 414 -182 448 -182 c 0
 487 -182 525 -159 525 -159 c 1xd8
EndSplineSet
Validated: 1
EndChar

StartChar: Uring
Encoding: 366 366 110
Width: 681
Flags: MW
HStem: -12 57<297 405.5 297 405.5> 594 43 674 164<324.5 369>
VStem: 108 80
LayerCount: 2
Fore
SplineSet
184 250 m 1
 184 118 243 45 351 45 c 0
 460 45 519 104 519 214 c 0
 519 284 513 540 513 540 c 1
 510 586 505 594 476 594 c 0
 464 594 433 592 433 592 c 1
 431 596 l 1
 438 640 l 1
 438 640 513 637 551 637 c 0
 594 637 648 646 648 646 c 1
 644 601 l 1
 586 593 575 585 575 544 c 2
 575 208 l 2
 575 68 484 -12 327 -12 c 0
 187 -12 108 68 108 209 c 2
 108 540 l 2
 108 583 101 594 71 594 c 0
 59 594 37 592 37 592 c 1
 35 596 l 1
 42 640 l 1
 42 640 117 637 155 637 c 0
 198 637 260 646 260 646 c 1
 256 601 l 1
 206 594 194 582 192 544 c 2
 184 250 l 1
349 712 m 0
 365 712 393 716 393 751 c 0
 393 779 375 799 342 799 c 0
 313 799 298 784 298 760 c 0
 298 725 328 712 349 712 c 0
342 674 m 0
 293 674 266 707 266 754 c 0
 266 802 299 838 350 838 c 0
 405 838 427 800 427 762 c 0
 427 716 396 674 342 674 c 0
EndSplineSet
Validated: 1
EndChar

StartChar: V
Encoding: 86 86 111
Width: 610
Flags: MW
HStem: -17 21G<258 258> 577 20G<-9 -9 354 354 354 406> 593 44 628 20G<264 264>
LayerCount: 2
Fore
SplineSet
85 536 m 0xa0
 73 574 45 592 -7 593 c 1xa0
 -9 597 l 1xd0
 -2 640 l 1
 -2 640 80 637 114 637 c 0xa0
 167 637 264 648 264 648 c 1
 267 641 l 1
 263 602 l 1
 192 597 174 589 174 560 c 0
 174 528 300 97 300 97 c 1
 309 97 l 1
 361 231 475 527 475 557 c 0
 475 585 455 597 406 597 c 2
 354 597 l 1xd0
 352 601 l 1
 358 644 l 1
 358 644 435 637 501 637 c 0
 549 637 611 640 611 640 c 1
 603 593 l 1
 562 591 551 583 537 545 c 1
 322 5 l 1
 258 -17 l 1
 258 -17 169 275 85 536 c 0xa0
EndSplineSet
Validated: 1
EndChar

StartChar: W
Encoding: 87 87 112
Width: 932
Flags: MW
HStem: -17 21G<251 251 588 588> 577 20G<-7 -7 330 330 681 681 681 731> 593 44 628 20G<257 257 595 595>
LayerCount: 2
Fore
SplineSet
650 5 m 1xa0
 588 -17 l 1
 588 -17 531 188 463 407 c 1
 457 407 l 1
 315 5 l 1
 251 -17 l 1
 251 -17 168 276 84 536 c 0
 72 574 44 592 -6 593 c 0xa0
 -6 594 -7 596 -7 597 c 2xd0
 -1 640 l 1
 -1 640 79 637 112 637 c 0xa0
 183 637 257 648 257 648 c 1xd0
 260 641 l 1
 256 602 l 1
 188 597 170 589 170 561 c 0
 170 522 293 97 293 97 c 1
 299 97 l 1
 440 481 l 1
 422 536 l 2
 409 576 381 591 332 593 c 1xa0
 330 597 l 1xd0
 337 640 l 1
 337 640 417 637 450 637 c 0xa0
 510 637 595 648 595 648 c 1
 598 641 l 1
 594 602 l 1
 525 597 507 589 507 560 c 0
 507 527 631 97 631 97 c 1
 637 97 l 1
 687 232 799 532 799 562 c 0
 799 587 779 597 731 597 c 2
 681 597 l 1xd0
 679 601 l 1
 686 644 l 1
 686 644 761 637 825 637 c 0
 871 637 931 640 931 640 c 1
 924 593 l 1
 885 591 874 584 860 545 c 1
 650 5 l 1xa0
EndSplineSet
Validated: 1
EndChar

StartChar: Wacute
Encoding: 7810 7810 113
Width: 932
Flags: MW
HStem: -17 21G<251 251 588 588> 577 20G<-7 -7 330 330 681 681 681 731> 593 44 821 20G<601 601>
LayerCount: 2
Fore
SplineSet
650 5 m 1xb0
 588 -17 l 1
 588 -17 531 188 463 407 c 1
 457 407 l 1
 315 5 l 1
 251 -17 l 1
 251 -17 168 276 84 536 c 0
 72 574 44 592 -6 593 c 0xb0
 -6 594 -7 596 -7 597 c 2xd0
 -1 640 l 1
 -1 640 79 637 112 637 c 0
 183 637 257 648 257 648 c 1
 260 641 l 1
 256 602 l 1
 188 597 170 589 170 561 c 0
 170 522 293 97 293 97 c 1
 299 97 l 1
 440 481 l 1
 422 536 l 2
 409 576 381 591 332 593 c 1xb0
 330 597 l 1xd0
 337 640 l 1
 337 640 417 637 450 637 c 0xb0
 510 637 595 648 595 648 c 1
 598 641 l 1
 594 602 l 1
 525 597 507 589 507 560 c 0
 507 527 631 97 631 97 c 1
 637 97 l 1
 687 232 799 532 799 562 c 0
 799 587 779 597 731 597 c 2
 681 597 l 1xd0
 679 601 l 1
 686 644 l 1
 686 644 761 637 825 637 c 0
 871 637 931 640 931 640 c 1
 924 593 l 1
 885 591 874 584 860 545 c 1
 650 5 l 1xb0
626 787 m 1
 622 777 l 1
 622 777 521 743 416 703 c 1
 408 708 l 1
 402 732 l 1
 496 781 601 841 601 841 c 1
 610 835 l 1
 626 787 l 1
EndSplineSet
Validated: 1
EndChar

StartChar: Wcircumflex
Encoding: 372 372 114
Width: 932
Flags: MW
HStem: -17 21G<251 251 588 588> 577 20G<-7 -7 330 330 681 681 681 731> 593 44 826 20G<459 473 473 473>
LayerCount: 2
Fore
SplineSet
650 5 m 1xb0
 588 -17 l 1
 588 -17 531 188 463 407 c 1
 457 407 l 1
 315 5 l 1
 251 -17 l 1
 251 -17 168 276 84 536 c 0
 72 574 44 592 -6 593 c 0xb0
 -6 594 -7 596 -7 597 c 2xd0
 -1 640 l 1
 -1 640 79 637 112 637 c 0
 183 637 257 648 257 648 c 1
 260 641 l 1
 256 602 l 1
 188 597 170 589 170 561 c 0
 170 522 293 97 293 97 c 1
 299 97 l 1
 440 481 l 1
 422 536 l 2
 409 576 381 591 332 593 c 1xb0
 330 597 l 1xd0
 337 640 l 1
 337 640 417 637 450 637 c 0xb0
 510 637 595 648 595 648 c 1
 598 641 l 1
 594 602 l 1
 525 597 507 589 507 560 c 0
 507 527 631 97 631 97 c 1
 637 97 l 1
 687 232 799 532 799 562 c 0
 799 587 779 597 731 597 c 2
 681 597 l 1xd0
 679 601 l 1
 686 644 l 1
 686 644 761 637 825 637 c 0
 871 637 931 640 931 640 c 1
 924 593 l 1
 885 591 874 584 860 545 c 1
 650 5 l 1xb0
335 713 m 1
 321 735 l 1
 386 784 459 846 459 846 c 1
 473 846 l 1
 473 846 546 784 611 735 c 1
 597 713 l 1
 588 712 l 1
 541 739 493 764 466 777 c 1
 438 764 392 740 344 712 c 1
 335 713 l 1
EndSplineSet
Validated: 1
EndChar

StartChar: Wdieresis
Encoding: 7812 7812 115
Width: 932
Flags: MW
HStem: -17 21G<251 251 588 588> 577 20G<-7 -7 330 330 681 681 681 731> 593 44 725 93<372.5 392.5 538.5 558.5>
LayerCount: 2
Fore
SplineSet
650 5 m 1xb0
 588 -17 l 1
 588 -17 531 188 463 407 c 1
 457 407 l 1
 315 5 l 1
 251 -17 l 1
 251 -17 168 276 84 536 c 0
 72 574 44 592 -6 593 c 0xb0
 -6 594 -7 596 -7 597 c 2xd0
 -1 640 l 1
 -1 640 79 637 112 637 c 0
 183 637 257 648 257 648 c 1
 260 641 l 1
 256 602 l 1
 188 597 170 589 170 561 c 0
 170 522 293 97 293 97 c 1
 299 97 l 1
 440 481 l 1
 422 536 l 2
 409 576 381 591 332 593 c 1xb0
 330 597 l 1xd0
 337 640 l 1
 337 640 417 637 450 637 c 0xb0
 510 637 595 648 595 648 c 1
 598 641 l 1
 594 602 l 1
 525 597 507 589 507 560 c 0
 507 527 631 97 631 97 c 1
 637 97 l 1
 687 232 799 532 799 562 c 0
 799 587 779 597 731 597 c 2
 681 597 l 1xd0
 679 601 l 1
 686 644 l 1
 686 644 761 637 825 637 c 0
 871 637 931 640 931 640 c 1
 924 593 l 1
 885 591 874 584 860 545 c 1
 650 5 l 1xb0
544 725 m 0
 517 725 503 747 503 768 c 0
 503 795 524 818 553 818 c 0
 580 818 594 797 594 775 c 0
 594 748 573 725 544 725 c 0
378 725 m 0
 351 725 337 747 337 768 c 0
 337 795 358 818 387 818 c 0
 414 818 428 797 428 775 c 0
 428 748 407 725 378 725 c 0
EndSplineSet
Validated: 1
EndChar

StartChar: Wgrave
Encoding: 7808 7808 116
Width: 932
Flags: MW
HStem: -17 21G<251 251 588 588> 577 20G<-7 -7 330 330 681 681 681 731> 593 44 821 20G<338 338>
LayerCount: 2
Fore
SplineSet
650 5 m 1xb0
 588 -17 l 1
 588 -17 531 188 463 407 c 1
 457 407 l 1
 315 5 l 1
 251 -17 l 1
 251 -17 168 276 84 536 c 0
 72 574 44 592 -6 593 c 0xb0
 -6 594 -7 596 -7 597 c 2xd0
 -1 640 l 1
 -1 640 79 637 112 637 c 0
 183 637 257 648 257 648 c 1
 260 641 l 1
 256 602 l 1
 188 597 170 589 170 561 c 0
 170 522 293 97 293 97 c 1
 299 97 l 1
 440 481 l 1
 422 536 l 2
 409 576 381 591 332 593 c 1xb0
 330 597 l 1xd0
 337 640 l 1
 337 640 417 637 450 637 c 0xb0
 510 637 595 648 595 648 c 1
 598 641 l 1
 594 602 l 1
 525 597 507 589 507 560 c 0
 507 527 631 97 631 97 c 1
 637 97 l 1
 687 232 799 532 799 562 c 0
 799 587 779 597 731 597 c 2
 681 597 l 1xd0
 679 601 l 1
 686 644 l 1
 686 644 761 637 825 637 c 0
 871 637 931 640 931 640 c 1
 924 593 l 1
 885 591 874 584 860 545 c 1
 650 5 l 1xb0
317 777 m 1
 313 787 l 1
 329 835 l 1
 338 841 l 1
 338 841 443 781 537 732 c 1
 531 708 l 1
 523 703 l 1
 418 743 317 777 317 777 c 1
EndSplineSet
Validated: 1
EndChar

StartChar: X
Encoding: 88 88 117
Width: 656
Flags: MW
HStem: -8 21G<365 365> 0 21G<95.5 133.5 492 543> 617 20G<148 210.5 509.5 547.5> 625 20G<306 306>
LayerCount: 2
Fore
SplineSet
181 182 m 2x60
 291 318 l 1
 160 514 l 2
 127 563 84 589 23 597 c 1
 21 601 l 1
 27 640 l 1
 27 640 125 637 171 637 c 0x60
 250 637 306 645 306 645 c 1x50
 309 638 l 1
 306 603 l 1
 251 599 228 589 228 567 c 0
 228 551 274 479 341 377 c 1
 386 439 472 543 472 571 c 0
 472 589 455 597 414 601 c 1
 412 605 l 1
 418 644 l 1
 418 644 491 637 528 637 c 0
 567 637 625 641 625 641 c 1
 629 634 l 1
 623 597 l 1
 563 585 542 562 487 493 c 2
 366 340 l 1
 512 127 l 2
 548 75 586 50 649 44 c 1
 651 40 l 1
 644 -3 l 1
 644 -3 566 0 520 0 c 0x60
 464 0 365 -8 365 -8 c 1xa0
 362 -1 l 1
 366 38 l 1
 419 41 444 50 444 73 c 0
 444 85 437 98 424 117 c 2
 315 281 l 1
 223 159 l 2
 184 107 172 89 172 70 c 0
 172 52 190 43 230 40 c 1
 232 36 l 1
 225 -7 l 1
 225 -7 152 0 115 0 c 0
 76 0 16 -4 16 -4 c 1
 12 3 l 1
 19 44 l 1
 78 61 121 108 181 182 c 2x60
EndSplineSet
Validated: 1
EndChar

StartChar: Y
Encoding: 89 89 118
Width: 538
Flags: MW
HStem: -12 21G<144 144> 0 44 617 20G<74 125 443.5 481.5> 625 20G<239 239>
LayerCount: 2
Fore
SplineSet
163 567 m 0x50
 163 538 274 309 275 309 c 2
 280 309 l 1
 394 521 l 2
 404 539 410 557 410 571 c 0
 410 588 390 598 347 601 c 1
 345 605 l 1
 351 644 l 1
 351 644 425 637 462 637 c 0
 501 637 554 641 554 641 c 1
 558 634 l 1
 552 597 l 1
 483 584 475 562 421 467 c 2
 321 291 l 2
 300 255 301 221 299 112 c 0
 298 61 308 44 343 44 c 0
 363 44 392 47 392 47 c 1
 394 43 l 1
 385 -3 l 1
 385 -3 302 0 258 0 c 0x60
 208 0 144 -12 144 -12 c 1
 150 34 l 1
 222 48 228 68 228 142 c 2
 228 186 l 2
 228 225 223 251 199 299 c 2
 109 482 l 2
 69 564 61 590 -17 597 c 1
 -19 601 l 1
 -13 640 l 1
 -13 640 51 637 97 637 c 0xa0
 153 637 239 645 239 645 c 1
 242 638 l 1
 239 603 l 1
 179 598 163 590 163 567 c 0x50
EndSplineSet
Validated: 33
EndChar

StartChar: Yacute
Encoding: 221 221 119
Width: 538
Flags: MW
HStem: -12 21G<144 144> 0 44 617 20G<74 125 443.5 481.5> 821 20G<420 420>
LayerCount: 2
Fore
SplineSet
163 567 m 0xb0
 163 538 274 309 275 309 c 2
 280 309 l 1
 394 521 l 2
 404 539 410 557 410 571 c 0
 410 588 390 598 347 601 c 1
 345 605 l 1
 351 644 l 1
 351 644 425 637 462 637 c 0
 501 637 554 641 554 641 c 1
 558 634 l 1
 552 597 l 1
 483 584 475 562 421 467 c 2
 321 291 l 2
 300 255 301 221 299 112 c 0
 298 61 308 44 343 44 c 0
 363 44 392 47 392 47 c 1
 394 43 l 1
 385 -3 l 1
 385 -3 302 0 258 0 c 0x70
 208 0 144 -12 144 -12 c 1
 150 34 l 1
 222 48 228 68 228 142 c 2
 228 186 l 2
 228 225 223 251 199 299 c 2
 109 482 l 2
 69 564 61 590 -17 597 c 1
 -19 601 l 1
 -13 640 l 1
 -13 640 51 637 97 637 c 0
 153 637 239 645 239 645 c 1
 242 638 l 1
 239 603 l 1
 179 598 163 590 163 567 c 0xb0
445 787 m 1
 441 777 l 1
 441 777 340 743 235 703 c 1
 227 708 l 1
 221 732 l 1
 315 781 420 841 420 841 c 1
 429 835 l 1
 445 787 l 1
EndSplineSet
Validated: 33
EndChar

StartChar: Ycircumflex
Encoding: 374 374 120
Width: 538
Flags: MW
HStem: -12 21G<144 144> 0 44 617 20G<74 125 443.5 481.5> 826 20G<278 292 292 292>
LayerCount: 2
Fore
SplineSet
163 567 m 0xb0
 163 538 274 309 275 309 c 2
 280 309 l 1
 394 521 l 2
 404 539 410 557 410 571 c 0
 410 588 390 598 347 601 c 1
 345 605 l 1
 351 644 l 1
 351 644 425 637 462 637 c 0
 501 637 554 641 554 641 c 1
 558 634 l 1
 552 597 l 1
 483 584 475 562 421 467 c 2
 321 291 l 2
 300 255 301 221 299 112 c 0
 298 61 308 44 343 44 c 0
 363 44 392 47 392 47 c 1
 394 43 l 1
 385 -3 l 1
 385 -3 302 0 258 0 c 0x70
 208 0 144 -12 144 -12 c 1
 150 34 l 1
 222 48 228 68 228 142 c 2
 228 186 l 2
 228 225 223 251 199 299 c 2
 109 482 l 2
 69 564 61 590 -17 597 c 1
 -19 601 l 1
 -13 640 l 1
 -13 640 51 637 97 637 c 0
 153 637 239 645 239 645 c 1
 242 638 l 1
 239 603 l 1
 179 598 163 590 163 567 c 0xb0
154 713 m 1
 140 735 l 1
 205 784 278 846 278 846 c 1
 292 846 l 1
 292 846 365 784 430 735 c 1
 416 713 l 1
 407 712 l 1
 360 739 312 764 285 777 c 1
 257 764 211 740 163 712 c 1
 154 713 l 1
EndSplineSet
Validated: 33
EndChar

StartChar: Ydieresis
Encoding: 376 376 121
Width: 538
Flags: MW
HStem: -12 21G<144 144> 0 44 617 20G<74 125 443.5 481.5> 725 93<191.5 211.5 357.5 377.5>
LayerCount: 2
Fore
SplineSet
163 567 m 0xb0
 163 538 274 309 275 309 c 2
 280 309 l 1
 394 521 l 2
 404 539 410 557 410 571 c 0
 410 588 390 598 347 601 c 1
 345 605 l 1
 351 644 l 1
 351 644 425 637 462 637 c 0
 501 637 554 641 554 641 c 1
 558 634 l 1
 552 597 l 1
 483 584 475 562 421 467 c 2
 321 291 l 2
 300 255 301 221 299 112 c 0
 298 61 308 44 343 44 c 0
 363 44 392 47 392 47 c 1
 394 43 l 1
 385 -3 l 1
 385 -3 302 0 258 0 c 0x70
 208 0 144 -12 144 -12 c 1
 150 34 l 1
 222 48 228 68 228 142 c 2
 228 186 l 2
 228 225 223 251 199 299 c 2
 109 482 l 2
 69 564 61 590 -17 597 c 1
 -19 601 l 1
 -13 640 l 1
 -13 640 51 637 97 637 c 0
 153 637 239 645 239 645 c 1
 242 638 l 1
 239 603 l 1
 179 598 163 590 163 567 c 0xb0
363 725 m 0
 336 725 322 747 322 768 c 0
 322 795 343 818 372 818 c 0
 399 818 413 797 413 775 c 0
 413 748 392 725 363 725 c 0
197 725 m 0
 170 725 156 747 156 768 c 0
 156 795 177 818 206 818 c 0
 233 818 247 797 247 775 c 0
 247 748 226 725 197 725 c 0
EndSplineSet
Validated: 33
EndChar

StartChar: Ygrave
Encoding: 7922 7922 122
Width: 538
Flags: MW
HStem: -12 21G<144 144> 0 44 617 20G<74 125 443.5 481.5> 821 20G<157 157>
LayerCount: 2
Fore
SplineSet
163 567 m 0xb0
 163 538 274 309 275 309 c 2
 280 309 l 1
 394 521 l 2
 404 539 410 557 410 571 c 0
 410 588 390 598 347 601 c 1
 345 605 l 1
 351 644 l 1
 351 644 425 637 462 637 c 0
 501 637 554 641 554 641 c 1
 558 634 l 1
 552 597 l 1
 483 584 475 562 421 467 c 2
 321 291 l 2
 300 255 301 221 299 112 c 0
 298 61 308 44 343 44 c 0
 363 44 392 47 392 47 c 1
 394 43 l 1
 385 -3 l 1
 385 -3 302 0 258 0 c 0x70
 208 0 144 -12 144 -12 c 1
 150 34 l 1
 222 48 228 68 228 142 c 2
 228 186 l 2
 228 225 223 251 199 299 c 2
 109 482 l 2
 69 564 61 590 -17 597 c 1
 -19 601 l 1
 -13 640 l 1
 -13 640 51 637 97 637 c 0
 153 637 239 645 239 645 c 1
 242 638 l 1
 239 603 l 1
 179 598 163 590 163 567 c 0xb0
136 777 m 1
 132 787 l 1
 148 835 l 1
 157 841 l 1
 157 841 262 781 356 732 c 1
 350 708 l 1
 342 703 l 1
 237 743 136 777 136 777 c 1
EndSplineSet
Validated: 33
EndChar

StartChar: Z
Encoding: 90 90 123
Width: 568
Flags: MW
HStem: -3 21G<48 48 480 480> 0 43 590 44 629 20G<80 80>
LayerCount: 2
Fore
SplineSet
495 13 m 1x60
 480 -3 l 1
 118 3 l 1
 48 -3 l 1xa0
 34 29 l 1
 407 593 l 1
 234 587 l 2
 142 583 110 550 99 449 c 1
 52 445 l 1
 52 445 68 548 70 640 c 1
 80 649 l 1x50
 255 638 l 1
 513 631 l 1
 524 602 l 1
 335 351 181 108 138 40 c 1
 341 47 l 1
 410 48 451 99 473 213 c 1
 520 218 l 1
 520 218 500 109 495 13 c 1x60
EndSplineSet
Validated: 1
EndChar

StartChar: Zacute
Encoding: 377 377 124
Width: 568
Flags: MW
HStem: -3 21G<48 48 480 480> 0 43 590 44 821 20G<427 427>
LayerCount: 2
Fore
SplineSet
495 13 m 1x70
 480 -3 l 1
 118 3 l 1
 48 -3 l 1xb0
 34 29 l 1
 407 593 l 1
 234 587 l 2
 142 583 110 550 99 449 c 1
 52 445 l 1
 52 445 68 548 70 640 c 1
 80 649 l 1
 255 638 l 1
 513 631 l 1
 524 602 l 1
 335 351 181 108 138 40 c 1
 341 47 l 1
 410 48 451 99 473 213 c 1
 520 218 l 1
 520 218 500 109 495 13 c 1x70
452 787 m 1
 448 777 l 1
 448 777 347 743 242 703 c 1
 234 708 l 1
 228 732 l 1
 322 781 427 841 427 841 c 1
 436 835 l 1
 452 787 l 1
EndSplineSet
Validated: 1
EndChar

StartChar: Zcaron
Encoding: 381 381 125
Width: 568
Flags: MW
HStem: -3 21G<48 48 480 480> 0 43 590 44 818 20G<170 170 414 414>
LayerCount: 2
Fore
SplineSet
495 13 m 1x70
 480 -3 l 1
 118 3 l 1
 48 -3 l 1xb0
 34 29 l 1
 407 593 l 1
 234 587 l 2
 142 583 110 550 99 449 c 1
 52 445 l 1
 52 445 68 548 70 640 c 1
 80 649 l 1
 255 638 l 1
 513 631 l 1
 524 602 l 1
 335 351 181 108 138 40 c 1
 341 47 l 1
 410 48 451 99 473 213 c 1
 520 218 l 1
 520 218 500 109 495 13 c 1x70
423 837 m 1
 437 815 l 1
 372 766 299 704 299 704 c 1
 285 704 l 1
 285 704 212 766 147 815 c 1
 161 837 l 1
 170 838 l 1
 217 811 265 786 292 773 c 1
 320 786 366 810 414 838 c 1
 423 837 l 1
EndSplineSet
Validated: 1
EndChar

StartChar: Zdotaccent
Encoding: 379 379 126
Width: 568
Flags: MW
HStem: -3 21G<48 48 480 480> 0 43 590 44 719 110<280 304>
LayerCount: 2
Fore
SplineSet
495 13 m 1x70
 480 -3 l 1
 118 3 l 1
 48 -3 l 1xb0
 34 29 l 1
 407 593 l 1
 234 587 l 2
 142 583 110 550 99 449 c 1
 52 445 l 1
 52 445 68 548 70 640 c 1
 80 649 l 1
 255 638 l 1
 513 631 l 1
 524 602 l 1
 335 351 181 108 138 40 c 1
 341 47 l 1
 410 48 451 99 473 213 c 1
 520 218 l 1
 520 218 500 109 495 13 c 1x70
287 719 m 0
 254 719 238 745 238 770 c 0
 238 802 263 829 297 829 c 0
 329 829 346 804 346 778 c 0
 346 746 321 719 287 719 c 0
EndSplineSet
Validated: 1
EndChar

StartChar: a
Encoding: 97 97 127
Width: 466
Flags: MW
HStem: -12 21G<345 372> -8 67 398 66<201.5 225>
VStem: 285 77<317 325.5>
LayerCount: 2
Fore
SplineSet
283 248 m 1x70
 285 292 l 1
 285 359 253 398 197 398 c 0
 132 398 77 348 77 348 c 1
 72 351 l 1
 60 394 l 1
 60 394 180 464 223 464 c 0
 310 464 362 416 362 335 c 0
 362 299 344 164 344 105 c 0
 344 76 359 59 385 59 c 0x70
 417 59 445 84 445 84 c 1
 459 68 l 1
 459 68 422 5 372 -12 c 1xb0
 318 -12 288 15 283 69 c 1
 279 70 l 1
 231 22 189 -8 169 -8 c 0
 95 -8 41 44 41 116 c 0
 41 155 62 187 94 196 c 2
 283 248 l 1x70
277 108 m 1
 281 210 l 1
 146 169 l 2
 127 163 117 148 117 127 c 0
 117 89 146 60 186 60 c 0
 211 60 249 80 277 108 c 1
EndSplineSet
Validated: 1
EndChar

StartChar: aacute
Encoding: 225 225 128
Width: 466
Flags: MW
HStem: -12 21G<345 372> -8 67 398 66<201.5 225> 695 20G<299 299>
VStem: 285 77<317 325.5>
LayerCount: 2
Fore
SplineSet
283 248 m 1x78
 285 292 l 1
 285 359 253 398 197 398 c 0
 132 398 77 348 77 348 c 1
 72 351 l 1
 60 394 l 1
 60 394 180 464 223 464 c 0
 310 464 362 416 362 335 c 0
 362 299 344 164 344 105 c 0
 344 76 359 59 385 59 c 0x78
 417 59 445 84 445 84 c 1
 459 68 l 1
 459 68 422 5 372 -12 c 1xb8
 318 -12 288 15 283 69 c 1
 279 70 l 1
 231 22 189 -8 169 -8 c 0
 95 -8 41 44 41 116 c 0
 41 155 62 187 94 196 c 2
 283 248 l 1x78
277 108 m 1
 281 210 l 1
 146 169 l 2
 127 163 117 148 117 127 c 0
 117 89 146 60 186 60 c 0
 211 60 249 80 277 108 c 1
347 672 m 1
 346 661 l 1
 346 661 262 597 178 521 c 1
 169 523 l 1
 149 542 l 1
 221 620 299 715 299 715 c 1
 309 713 l 1
 347 672 l 1
EndSplineSet
Validated: 1
EndChar

StartChar: acute
Encoding: 180 180 129
Width: 398
Flags: MW
HStem: 521 21G 695 20G<279 279>
LayerCount: 2
Fore
SplineSet
327 672 m 1
 326 661 l 1
 326 661 242 597 158 521 c 1
 149 523 l 1
 129 542 l 1
 201 620 279 715 279 715 c 1
 289 713 l 1
 327 672 l 1
EndSplineSet
Validated: 1
EndChar

StartChar: abreve
Encoding: 259 259 130
Width: 466
Flags: MW
HStem: -12 21G<345 372> -8 67 398 66<201.5 225> 558 58<199 241 199 254.5> 662 20G<116 124 124 124 316 324 324 324>
VStem: 285 77<317 325.5>
LayerCount: 2
Fore
SplineSet
283 248 m 1x7c
 285 292 l 1
 285 359 253 398 197 398 c 0
 132 398 77 348 77 348 c 1
 72 351 l 1
 60 394 l 1
 60 394 180 464 223 464 c 0
 310 464 362 416 362 335 c 0
 362 299 344 164 344 105 c 0
 344 76 359 59 385 59 c 0x7c
 417 59 445 84 445 84 c 1
 459 68 l 1
 459 68 422 5 372 -12 c 1xbc
 318 -12 288 15 283 69 c 1
 279 70 l 1
 231 22 189 -8 169 -8 c 0
 95 -8 41 44 41 116 c 0
 41 155 62 187 94 196 c 2
 283 248 l 1x7c
277 108 m 1
 281 210 l 1
 146 169 l 2
 127 163 117 148 117 127 c 0
 117 89 146 60 186 60 c 0
 211 60 249 80 277 108 c 1
220 616 m 0
 262 616 299 638 316 682 c 1
 324 682 l 1
 340 672 l 1
 326 615 289 558 220 558 c 0
 151 558 114 615 100 672 c 1
 116 682 l 1
 124 682 l 1
 141 638 178 616 220 616 c 0
EndSplineSet
Validated: 1
EndChar

StartChar: breve
Encoding: 728 728 131
Width: 398
Flags: MW
HStem: 558 58<178 220 178 233.5> 662 20G<95 103 103 103 295 303 303 303>
LayerCount: 2
Fore
SplineSet
199 616 m 0
 241 616 278 638 295 682 c 1
 303 682 l 1
 319 672 l 1
 305 615 268 558 199 558 c 0
 130 558 93 615 79 672 c 1
 95 682 l 1
 103 682 l 1
 120 638 157 616 199 616 c 0
EndSplineSet
Validated: 1
EndChar

StartChar: acircumflex
Encoding: 226 226 132
Width: 466
Flags: MW
HStem: -12 21G<345 372> -8 67 398 66<201.5 225> 683 20G<211 225 225 225>
VStem: 285 77<317 325.5>
LayerCount: 2
Fore
SplineSet
283 248 m 1x78
 285 292 l 1
 285 359 253 398 197 398 c 0
 132 398 77 348 77 348 c 1
 72 351 l 1
 60 394 l 1
 60 394 180 464 223 464 c 0
 310 464 362 416 362 335 c 0
 362 299 344 164 344 105 c 0
 344 76 359 59 385 59 c 0x78
 417 59 445 84 445 84 c 1
 459 68 l 1
 459 68 422 5 372 -12 c 1xb8
 318 -12 288 15 283 69 c 1
 279 70 l 1
 231 22 189 -8 169 -8 c 0
 95 -8 41 44 41 116 c 0
 41 155 62 187 94 196 c 2
 283 248 l 1x78
277 108 m 1
 281 210 l 1
 146 169 l 2
 127 163 117 148 117 127 c 0
 117 89 146 60 186 60 c 0
 211 60 249 80 277 108 c 1
87 528 m 1
 73 550 l 1
 138 618 211 703 211 703 c 1
 225 703 l 1
 225 703 298 618 363 550 c 1
 349 528 l 1
 340 527 l 1
 293 568 245 603 218 624 c 1
 190 603 144 569 96 527 c 1
 87 528 l 1
EndSplineSet
Validated: 1
EndChar

StartChar: circumflex
Encoding: 710 710 133
Width: 398
Flags: MW
HStem: 527 21G<77 77 321 321> 683 20G<192 206 206 206>
LayerCount: 2
Fore
SplineSet
68 528 m 1
 54 550 l 1
 119 618 192 703 192 703 c 1
 206 703 l 1
 206 703 279 618 344 550 c 1
 330 528 l 1
 321 527 l 1
 274 568 226 603 199 624 c 1
 171 603 125 569 77 527 c 1
 68 528 l 1
EndSplineSet
Validated: 1
EndChar

StartChar: adieresis
Encoding: 228 228 134
Width: 466
Flags: MW
HStem: -12 21G<345 372> -8 67 398 66<201.5 225> 566 93<123.5 143.5 289.5 309.5>
VStem: 285 77<317 325.5>
LayerCount: 2
Fore
SplineSet
283 248 m 1x78
 285 292 l 1
 285 359 253 398 197 398 c 0
 132 398 77 348 77 348 c 1
 72 351 l 1
 60 394 l 1
 60 394 180 464 223 464 c 0
 310 464 362 416 362 335 c 0
 362 299 344 164 344 105 c 0
 344 76 359 59 385 59 c 0x78
 417 59 445 84 445 84 c 1
 459 68 l 1
 459 68 422 5 372 -12 c 1xb8
 318 -12 288 15 283 69 c 1
 279 70 l 1
 231 22 189 -8 169 -8 c 0
 95 -8 41 44 41 116 c 0
 41 155 62 187 94 196 c 2
 283 248 l 1x78
277 108 m 1
 281 210 l 1
 146 169 l 2
 127 163 117 148 117 127 c 0
 117 89 146 60 186 60 c 0
 211 60 249 80 277 108 c 1
295 566 m 0
 268 566 254 588 254 609 c 0
 254 636 275 659 304 659 c 0
 331 659 345 638 345 616 c 0
 345 589 324 566 295 566 c 0
129 566 m 0
 102 566 88 588 88 609 c 0
 88 636 109 659 138 659 c 0
 165 659 179 638 179 616 c 0
 179 589 158 566 129 566 c 0
EndSplineSet
Validated: 1
EndChar

StartChar: dieresis
Encoding: 168 168 135
Width: 398
Flags: MW
HStem: 566 93<105.5 125.5 271.5 291.5>
LayerCount: 2
Fore
SplineSet
277 566 m 0
 250 566 236 588 236 609 c 0
 236 636 257 659 286 659 c 0
 313 659 327 638 327 616 c 0
 327 589 306 566 277 566 c 0
111 566 m 0
 84 566 70 588 70 609 c 0
 70 636 91 659 120 659 c 0
 147 659 161 638 161 616 c 0
 161 589 140 566 111 566 c 0
EndSplineSet
Validated: 1
EndChar

StartChar: ae
Encoding: 230 230 136
Width: 653
Flags: MW
HStem: -12 64<452 510.5> -8 21G<121 158> 401 63<191 217>
LayerCount: 2
Fore
SplineSet
622 85 m 1xa0
 633 56 l 1
 633 56 541 -12 480 -12 c 0xa0
 396 -12 329 27 297 95 c 1
 245 40 193 1 158 -8 c 1x60
 84 -8 30 44 30 116 c 0
 30 155 51 186 83 195 c 2
 274 247 l 1
 275 297 l 1
 275 364 245 401 189 401 c 0
 124 401 66 348 66 348 c 1
 61 351 l 1
 49 394 l 1
 49 394 170 464 212 464 c 0
 277 464 319 437 336 384 c 1
 375 435 431 464 488 464 c 0
 573 464 625 411 625 322 c 0
 625 313 623 303 623 303 c 1
 614 289 l 1
 344 225 l 1
 351 122 411 52 493 52 c 0
 553 52 616 87 616 87 c 1
 622 85 l 1xa0
273 210 m 1
 135 169 l 2
 113 163 103 146 103 127 c 0
 103 90 134 57 170 57 c 0
 198 57 238 81 285 125 c 1
 277 150 273 178 273 210 c 1
343 269 m 2
 343 262 l 1
 518 312 l 2
 531 316 538 321 538 330 c 0
 538 374 507 408 465 408 c 0
 392 408 343 352 343 269 c 2
EndSplineSet
Validated: 1
EndChar

StartChar: agrave
Encoding: 224 224 137
Width: 466
Flags: MW
HStem: -12 21G<345 372> -8 67 398 66<201.5 225> 694 20G<140 140>
VStem: 285 77<317 325.5>
LayerCount: 2
Fore
SplineSet
283 248 m 1x78
 285 292 l 1
 285 359 253 398 197 398 c 0
 132 398 77 348 77 348 c 1
 72 351 l 1
 60 394 l 1
 60 394 180 464 223 464 c 0
 310 464 362 416 362 335 c 0
 362 299 344 164 344 105 c 0
 344 76 359 59 385 59 c 0x78
 417 59 445 84 445 84 c 1
 459 68 l 1
 459 68 422 5 372 -12 c 1xb8
 318 -12 288 15 283 69 c 1
 279 70 l 1
 231 22 189 -8 169 -8 c 0
 95 -8 41 44 41 116 c 0
 41 155 62 187 94 196 c 2
 283 248 l 1x78
277 108 m 1
 281 210 l 1
 146 169 l 2
 127 163 117 148 117 127 c 0
 117 89 146 60 186 60 c 0
 211 60 249 80 277 108 c 1
93 660 m 1
 92 671 l 1
 130 712 l 1
 140 714 l 1
 140 714 218 620 290 542 c 1
 270 523 l 1
 261 521 l 1
 177 597 93 660 93 660 c 1
EndSplineSet
Validated: 1
EndChar

StartChar: grave
Encoding: 96 96 138
Width: 398
Flags: MW
HStem: 521 21G 694 20G<119 119>
LayerCount: 2
Fore
SplineSet
72 660 m 1
 71 671 l 1
 109 712 l 1
 119 714 l 1
 119 714 197 620 269 542 c 1
 249 523 l 1
 240 521 l 1
 156 597 72 660 72 660 c 1
EndSplineSet
Validated: 1
EndChar

StartChar: amacron
Encoding: 257 257 139
Width: 466
Flags: MW
HStem: -12 21G<345 372> -8 67 398 66<201.5 225> 595 52<202.5 218> 633 20G<361 361>
VStem: 285 77<317 325.5>
LayerCount: 2
Fore
SplineSet
283 248 m 1x74
 285 292 l 1
 285 359 253 398 197 398 c 0
 132 398 77 348 77 348 c 1
 72 351 l 1
 60 394 l 1
 60 394 180 464 223 464 c 0
 310 464 362 416 362 335 c 0
 362 299 344 164 344 105 c 0
 344 76 359 59 385 59 c 0x6c
 417 59 445 84 445 84 c 1
 459 68 l 1
 459 68 422 5 372 -12 c 1xb4
 318 -12 288 15 283 69 c 1
 279 70 l 1
 231 22 189 -8 169 -8 c 0
 95 -8 41 44 41 116 c 0
 41 155 62 187 94 196 c 2
 283 248 l 1x74
277 108 m 1
 281 210 l 1
 146 169 l 2
 127 163 117 148 117 127 c 0
 117 89 146 60 186 60 c 0
 211 60 249 80 277 108 c 1
361 653 m 1
 367 643 l 1
 360 596 l 1
 218 595 l 2
 159 595 74 594 74 594 c 1
 68 603 l 1
 78 648 l 1
 78 648 173 647 232 647 c 0x74
 282 647 361 653 361 653 c 1
EndSplineSet
Validated: 1
EndChar

StartChar: macron
Encoding: 175 175 140
Width: 398
Flags: MW
HStem: 594 21G<56 56> 595 52<184.5 200> 633 20G<343 343>
LayerCount: 2
Fore
SplineSet
343 653 m 1xa0
 349 643 l 1
 342 596 l 1
 200 595 l 2x40
 141 595 56 594 56 594 c 1xa0
 50 603 l 1
 60 648 l 1
 60 648 155 647 214 647 c 0x40
 264 647 343 653 343 653 c 1xa0
EndSplineSet
Validated: 1
EndChar

StartChar: aogonek
Encoding: 261 261 141
Width: 466
Flags: MW
HStem: -241 59<365.5 373> -8 67 398 66<201.5 225>
LayerCount: 2
Fore
SplineSet
460 -159 m 1
 473 -178 l 1
 473 -178 424 -224 373 -241 c 1
 305 -241 262 -205 262 -147 c 0
 262 -111 285 -73 347 -9 c 1
 308 -3 286 25 283 69 c 0
 282 69 280 70 279 70 c 0
 231 22 189 -8 169 -8 c 0
 95 -8 41 44 41 116 c 0
 41 155 62 187 94 196 c 2
 283 248 l 1
 285 292 l 1
 285 359 253 398 197 398 c 0
 132 398 77 348 77 348 c 1
 72 351 l 1
 60 394 l 1
 60 394 180 464 223 464 c 0
 235 464 247 463 258 461 c 0
 324 450 362 404 362 335 c 0
 362 325 361 315 358 284 c 0
 343 116 344 132 344 105 c 0
 344 76 359 59 385 59 c 0
 417 59 445 84 445 84 c 1
 461 65 l 1
 355 -46 325 -89 325 -128 c 0
 325 -160 348 -182 383 -182 c 0
 422 -182 460 -159 460 -159 c 1
277 108 m 1
 281 210 l 1
 146 169 l 1
 127 162 117 148 117 127 c 0
 117 89 146 60 186 60 c 0
 211 60 249 80 277 108 c 1
EndSplineSet
Validated: 33
EndChar

StartChar: aring
Encoding: 229 229 142
Width: 466
Flags: MW
HStem: -12 21G<345 372> -8 67 398 66<201.5 225> 398 184<209.5 225> 544 164<195.5 240>
VStem: 285 77<317 325.5>
LayerCount: 2
Fore
SplineSet
283 248 m 1x6c
 285 292 l 1
 285 359 253 398 197 398 c 0
 132 398 77 348 77 348 c 1
 72 351 l 1
 60 394 l 1
 60 394 180 464 223 464 c 0
 310 464 362 416 362 335 c 0
 362 299 344 164 344 105 c 0
 344 76 359 59 385 59 c 0x6c
 417 59 445 84 445 84 c 1
 459 68 l 1
 459 68 422 5 372 -12 c 1xac
 318 -12 288 15 283 69 c 1
 279 70 l 1
 231 22 189 -8 169 -8 c 0
 95 -8 41 44 41 116 c 0
 41 155 62 187 94 196 c 2
 283 248 l 1x6c
277 108 m 1
 281 210 l 1
 146 169 l 2
 127 163 117 148 117 127 c 0
 117 89 146 60 186 60 c 0
 211 60 249 80 277 108 c 1
220 582 m 0x54
 236 582 264 586 264 621 c 0
 264 649 246 669 213 669 c 0
 184 669 169 654 169 630 c 0
 169 595 199 582 220 582 c 0x54
213 544 m 0x6c
 164 544 137 577 137 624 c 0
 137 672 170 708 221 708 c 0
 276 708 298 670 298 632 c 0
 298 586 267 544 213 544 c 0x6c
EndSplineSet
Validated: 1
EndChar

StartChar: ring
Encoding: 730 730 143
Width: 398
Flags: MW
HStem: 544 164<176.5 221>
LayerCount: 2
Fore
SplineSet
201 582 m 0
 217 582 245 586 245 621 c 0
 245 649 227 669 194 669 c 0
 165 669 150 654 150 630 c 0
 150 595 180 582 201 582 c 0
194 544 m 0
 145 544 118 577 118 624 c 0
 118 672 151 708 202 708 c 0
 257 708 279 670 279 632 c 0
 279 586 248 544 194 544 c 0
EndSplineSet
Validated: 1
EndChar

StartChar: atilde
Encoding: 227 227 144
Width: 466
Flags: MW
HStem: -12 21G<345 372> -8 67 398 66<201.5 225> 573 64<277 290> 606 64<145 158> 672 20G<354 360 360 360>
VStem: 285 77<317 325.5>
LayerCount: 2
Fore
SplineSet
283 248 m 1x76
 285 292 l 1
 285 359 253 398 197 398 c 0
 132 398 77 348 77 348 c 1
 72 351 l 1
 60 394 l 1
 60 394 180 464 223 464 c 0
 310 464 362 416 362 335 c 0
 362 299 344 164 344 105 c 0
 344 76 359 59 385 59 c 0x6e
 417 59 445 84 445 84 c 1
 459 68 l 1
 459 68 422 5 372 -12 c 1xb6
 318 -12 288 15 283 69 c 1
 279 70 l 1
 231 22 189 -8 169 -8 c 0
 95 -8 41 44 41 116 c 0
 41 155 62 187 94 196 c 2
 283 248 l 1x76
277 108 m 1
 281 210 l 1
 146 169 l 2
 127 163 117 148 117 127 c 0
 117 89 146 60 186 60 c 0
 211 60 249 80 277 108 c 1
81 551 m 1
 75 551 l 1
 53 572 l 1
 53 577 l 1
 129 666 l 1
 145 670 l 1x6e
 178 670 263 637 291 637 c 0
 314 637 354 692 354 692 c 1
 360 692 l 1
 382 671 l 1
 382 666 l 1
 306 577 l 1
 290 573 l 1x76
 257 573 172 606 144 606 c 0
 120 606 81 551 81 551 c 1
EndSplineSet
Validated: 1
EndChar

StartChar: tilde
Encoding: 732 732 145
Width: 398
Flags: MW
HStem: 551 21G 573 64<259 272> 606 64<127 140> 672 20G<336 342 342 342>
LayerCount: 2
Fore
SplineSet
63 551 m 1xb0
 57 551 l 1
 35 572 l 1
 35 577 l 1
 111 666 l 1
 127 670 l 1xb0
 160 670 245 637 273 637 c 0
 296 637 336 692 336 692 c 1
 342 692 l 1
 364 671 l 1
 364 666 l 1
 288 577 l 1
 272 573 l 1xd0
 239 573 154 606 126 606 c 0
 102 606 63 551 63 551 c 1xb0
EndSplineSet
Validated: 1
EndChar

StartChar: b
Encoding: 98 98 146
Width: 508
Flags: MW
HStem: -12 55<235 292> 396 68<272 300> 722 20G<175 175>
VStem: 395 77<177 264>
LayerCount: 2
Fore
SplineSet
85 626 m 2
 85 663 73 680 48 680 c 0
 37 680 26 677 26 677 c 1
 23 680 l 1
 27 713 l 1
 96 722 175 742 175 742 c 1
 181 729 l 1
 172 715 163 582 158 394 c 1
 219 438 265 464 279 464 c 0
 393 464 472 377 472 250 c 0
 472 104 361 -12 223 -12 c 0
 156 -12 94 0 94 0 c 1
 85 8 l 1
 85 626 l 2
153 64 m 1
 177 52 219 43 251 43 c 0
 340 43 395 108 395 213 c 0
 395 315 337 396 263 396 c 0
 236 396 190 373 156 342 c 1
 153 64 l 1
EndSplineSet
Validated: 1
EndChar

StartChar: c
Encoding: 99 99 147
Width: 424
Flags: MW
HStem: -12 67<210 269.5> 410 54<202 267.5>
VStem: 36 80<185 281>
LayerCount: 2
Fore
SplineSet
365 88 m 1
 371 86 l 1
 382 55 l 1
 382 55 294 -12 245 -12 c 0
 118 -12 36 75 36 209 c 0
 36 353 136 464 267 464 c 0
 331 464 384 445 384 445 c 1
 387 438 l 1
 387 438 369 378 366 300 c 1
 325 297 l 1
 325 328 l 2
 325 377 292 410 243 410 c 0
 161 410 116 350 116 243 c 0
 116 127 168 55 252 55 c 0
 308 55 365 88 365 88 c 1
EndSplineSet
Validated: 1
EndChar

StartChar: cacute
Encoding: 263 263 148
Width: 424
Flags: MW
HStem: -12 67<210 269.5> 410 54<202 267.5> 695 20G<325 325>
VStem: 36 80<185 281>
LayerCount: 2
Fore
SplineSet
365 88 m 1
 371 86 l 1
 382 55 l 1
 382 55 294 -12 245 -12 c 0
 118 -12 36 75 36 209 c 0
 36 353 136 464 267 464 c 0
 331 464 384 445 384 445 c 1
 387 438 l 1
 387 438 369 378 366 300 c 1
 325 297 l 1
 325 328 l 2
 325 377 292 410 243 410 c 0
 161 410 116 350 116 243 c 0
 116 127 168 55 252 55 c 0
 308 55 365 88 365 88 c 1
373 672 m 1
 372 661 l 1
 372 661 288 597 204 521 c 1
 195 523 l 1
 175 542 l 1
 247 620 325 715 325 715 c 1
 335 713 l 1
 373 672 l 1
EndSplineSet
Validated: 1
EndChar

StartChar: ccaron
Encoding: 269 269 149
Width: 424
Flags: MW
HStem: -12 67<210 269.5> 410 54<202 267.5> 690 20G<117 117 373 373>
VStem: 36 80<185 281>
LayerCount: 2
Fore
SplineSet
365 88 m 1
 371 86 l 1
 382 55 l 1
 382 55 294 -12 245 -12 c 0
 118 -12 36 75 36 209 c 0
 36 353 136 464 267 464 c 0
 331 464 384 445 384 445 c 1
 387 438 l 1
 387 438 369 378 366 300 c 1
 325 297 l 1
 325 328 l 2
 325 377 292 410 243 410 c 0
 161 410 116 350 116 243 c 0
 116 127 168 55 252 55 c 0
 308 55 365 88 365 88 c 1
93 686 m 1
 109 709 l 1
 117 710 l 1
 168 666 216 630 245 609 c 1
 273 630 323 667 373 710 c 1
 381 709 l 1
 397 686 l 1
 328 615 252 526 252 526 c 1
 238 526 l 1
 238 526 162 615 93 686 c 1
EndSplineSet
Validated: 1
EndChar

StartChar: caron
Encoding: 711 711 150
Width: 398
Flags: MW
HStem: 526 21G<192 206 192 192> 690 20G<71 71 327 327>
LayerCount: 2
Fore
SplineSet
47 686 m 1
 63 709 l 1
 71 710 l 1
 122 666 170 630 199 609 c 1
 227 630 277 667 327 710 c 1
 335 709 l 1
 351 686 l 1
 282 615 206 526 206 526 c 1
 192 526 l 1
 192 526 116 615 47 686 c 1
EndSplineSet
Validated: 1
EndChar

StartChar: ccedilla
Encoding: 231 231 151
Width: 424
Flags: MW
HStem: -233 21G<191 233.5> -218 20G<211 240> -161 20G<163 172 172 172> 410 54<202 267.5>
VStem: 36 80<185 281>
LayerCount: 2
Fore
SplineSet
190 -85 m 1x78
 213 -10 l 1
 104 3 36 86 36 209 c 0
 36 353 136 464 267 464 c 0
 331 464 384 445 384 445 c 1
 387 438 l 1
 387 438 369 378 366 300 c 1
 325 297 l 1
 325 328 l 2
 325 377 292 410 243 410 c 0
 161 410 116 350 116 243 c 0
 116 127 168 55 252 55 c 0
 308 55 365 88 365 88 c 1
 371 86 l 1
 382 55 l 1
 382 55 304 -4 254 -11 c 1
 241 -50 l 1
 274 -73 326 -102 326 -139 c 0
 326 -191 261 -233 206 -233 c 0xb8
 176 -233 138 -220 138 -197 c 0
 138 -184 153 -157 163 -141 c 1
 172 -141 l 1
 173 -178 195 -198 227 -198 c 0
 253 -198 275 -183 275 -160 c 0
 275 -136 230 -108 190 -85 c 1x78
EndSplineSet
Validated: 1
EndChar

StartChar: cdotaccent
Encoding: 267 267 152
Width: 424
Flags: MW
HStem: -12 67<210 269.5> 410 54<202 267.5> 602 110<232 256>
VStem: 36 80<185 281>
LayerCount: 2
Fore
SplineSet
365 88 m 1
 371 86 l 1
 382 55 l 1
 382 55 294 -12 245 -12 c 0
 118 -12 36 75 36 209 c 0
 36 353 136 464 267 464 c 0
 331 464 384 445 384 445 c 1
 387 438 l 1
 387 438 369 378 366 300 c 1
 325 297 l 1
 325 328 l 2
 325 377 292 410 243 410 c 0
 161 410 116 350 116 243 c 0
 116 127 168 55 252 55 c 0
 308 55 365 88 365 88 c 1
239 602 m 0
 206 602 190 628 190 653 c 0
 190 685 215 712 249 712 c 0
 281 712 298 687 298 661 c 0
 298 629 273 602 239 602 c 0
EndSplineSet
Validated: 1
EndChar

StartChar: dotaccent
Encoding: 729 729 153
Width: 398
Flags: MW
HStem: 602 110<187 211>
LayerCount: 2
Fore
SplineSet
194 602 m 0
 161 602 145 628 145 653 c 0
 145 685 170 712 204 712 c 0
 236 712 253 687 253 661 c 0
 253 629 228 602 194 602 c 0
EndSplineSet
Validated: 1
EndChar

StartChar: d
Encoding: 100 100 154
Width: 537
Flags: MW
HStem: -12 21G<423.5 450> -9 68 406 58<216.5 287> 464 216<216.5 329.5> 722 20G<444 444>
VStem: 36 77<185.5 274>
LayerCount: 2
Fore
SplineSet
354 62 m 1x6c
 285 15 243 -9 229 -9 c 0
 114 -9 36 76 36 202 c 0
 36 346 148 464 285 464 c 0
 303 464 326 463 354 460 c 1
 354 626 l 2
 354 663 342 680 317 680 c 0
 306 680 292 676 292 676 c 1
 296 713 l 1
 365 722 444 742 444 742 c 1
 450 729 l 1
 436 706 422 398 422 105 c 0
 422 76 437 59 463 59 c 0x5c
 495 59 523 84 523 84 c 1
 537 68 l 1
 537 68 497 2 450 -12 c 1xac
 397 -12 368 12 361 59 c 1
 354 62 l 1x6c
354 109 m 1
 354 383 l 1
 354 383 317 406 257 406 c 0x6c
 168 406 113 341 113 236 c 0
 113 135 171 56 245 56 c 0
 293 56 354 109 354 109 c 1
EndSplineSet
Validated: 1
EndChar

StartChar: dcaron
Encoding: 271 271 155
Width: 549
Flags: MW
HStem: -12 21G<423.5 450> -9 68 406 58<216.5 287> 464 216<216.5 329.5> 722 20G<444 444>
VStem: 36 77<185.5 274>
LayerCount: 2
Fore
SplineSet
572 709 m 1x6c
 579 701 l 1
 579 701 565 591 544 489 c 1
 519 475 l 1
 508 477 l 1
 512 587 502 695 502 695 c 1
 572 709 l 1x6c
354 62 m 1
 285 15 243 -9 229 -9 c 0
 114 -9 36 76 36 202 c 0
 36 346 148 464 285 464 c 0
 303 464 326 463 354 460 c 1
 354 626 l 2
 354 663 342 680 317 680 c 0
 306 680 292 676 292 676 c 1
 296 713 l 1
 365 722 444 742 444 742 c 1
 450 729 l 1
 436 706 422 398 422 105 c 0
 422 76 437 59 463 59 c 0x5c
 495 59 523 84 523 84 c 1
 537 68 l 1
 537 68 497 2 450 -12 c 1xac
 397 -12 368 12 361 59 c 1
 354 62 l 1
354 109 m 1
 354 383 l 1
 354 383 317 406 257 406 c 0x6c
 168 406 113 341 113 236 c 0
 113 135 171 56 245 56 c 0
 293 56 354 109 354 109 c 1
EndSplineSet
Validated: 33
EndChar

StartChar: dotlessi
Encoding: 305 305 156
Width: 282
Flags: MW
HStem: -12 21G<44 44> 0 42<126 213> 444 20G<190 190>
LayerCount: 2
Fore
SplineSet
44 -12 m 1xa0
 48 29 l 1
 88 40 104 59 104 94 c 2
 104 348 l 2
 104 385 92 402 67 402 c 0
 56 402 42 398 42 398 c 1
 46 435 l 1
 113 445 190 464 190 464 c 1
 195 452 l 1
 183 424 172 255 172 98 c 0
 172 59 182 42 207 42 c 0
 219 42 242 44 242 44 c 1
 244 40 l 1
 236 -3 l 1
 236 -3 184 0 147 0 c 0x60
 105 0 44 -12 44 -12 c 1xa0
EndSplineSet
Validated: 1
EndChar

StartChar: e
Encoding: 101 101 157
Width: 448
Flags: MW
HStem: -12 68<214.5 276> 258 41 413 51<207 264.5>
VStem: 36 75<186 242 242 258 186 277.5>
LayerCount: 2
Fore
SplineSet
115 295 m 1
 296 304 l 1
 316 306 321 311 321 331 c 0
 321 384 291 413 238 413 c 0
 176 413 127 368 115 295 c 1
387 258 m 1
 111 258 l 1
 111 242 l 2
 111 130 170 56 259 56 c 0
 321 56 382 87 382 87 c 1
 388 85 l 1
 399 56 l 1
 399 56 306 -12 246 -12 c 0
 120 -12 36 77 36 209 c 0
 36 346 138 464 257 464 c 0
 355 464 406 414 406 319 c 0
 406 294 400 270 400 270 c 1
 387 258 l 1
EndSplineSet
Validated: 1
EndChar

StartChar: eacute
Encoding: 233 233 158
Width: 448
Flags: MW
HStem: -12 68<214.5 276> 258 41 413 51<207 264.5> 695 20G<323 323>
VStem: 36 75<186 242 242 258 186 277.5>
LayerCount: 2
Fore
SplineSet
115 295 m 1
 296 304 l 1
 316 306 321 311 321 331 c 0
 321 384 291 413 238 413 c 0
 176 413 127 368 115 295 c 1
387 258 m 1
 111 258 l 1
 111 242 l 2
 111 130 170 56 259 56 c 0
 321 56 382 87 382 87 c 1
 388 85 l 1
 399 56 l 1
 399 56 306 -12 246 -12 c 0
 120 -12 36 77 36 209 c 0
 36 346 138 464 257 464 c 0
 355 464 406 414 406 319 c 0
 406 294 400 270 400 270 c 1
 387 258 l 1
371 672 m 1
 370 661 l 1
 370 661 286 597 202 521 c 1
 193 523 l 1
 173 542 l 1
 245 620 323 715 323 715 c 1
 333 713 l 1
 371 672 l 1
EndSplineSet
Validated: 1
EndChar

StartChar: ecaron
Encoding: 283 283 159
Width: 448
Flags: MW
HStem: -12 68<214.5 276> 258 41 413 51<207 264.5> 690 20G<115 115 371 371>
VStem: 36 75<186 242 242 258 186 277.5>
LayerCount: 2
Fore
SplineSet
115 295 m 1
 296 304 l 1
 316 306 321 311 321 331 c 0
 321 384 291 413 238 413 c 0
 176 413 127 368 115 295 c 1
387 258 m 1
 111 258 l 1
 111 242 l 2
 111 130 170 56 259 56 c 0
 321 56 382 87 382 87 c 1
 388 85 l 1
 399 56 l 1
 399 56 306 -12 246 -12 c 0
 120 -12 36 77 36 209 c 0
 36 346 138 464 257 464 c 0
 355 464 406 414 406 319 c 0
 406 294 400 270 400 270 c 1
 387 258 l 1
91 686 m 1
 107 709 l 1
 115 710 l 1
 166 666 214 630 243 609 c 1
 271 630 321 667 371 710 c 1
 379 709 l 1
 395 686 l 1
 326 615 250 526 250 526 c 1
 236 526 l 1
 236 526 160 615 91 686 c 1
EndSplineSet
Validated: 1
EndChar

StartChar: ecircumflex
Encoding: 234 234 160
Width: 448
Flags: MW
HStem: -12 68<214.5 276> 258 41 413 51<207 264.5> 683 20G<235 249 249 249>
VStem: 36 75<186 242 242 258 186 277.5>
LayerCount: 2
Fore
SplineSet
115 295 m 1
 296 304 l 1
 316 306 321 311 321 331 c 0
 321 384 291 413 238 413 c 0
 176 413 127 368 115 295 c 1
387 258 m 1
 111 258 l 1
 111 242 l 2
 111 130 170 56 259 56 c 0
 321 56 382 87 382 87 c 1
 388 85 l 1
 399 56 l 1
 399 56 306 -12 246 -12 c 0
 120 -12 36 77 36 209 c 0
 36 346 138 464 257 464 c 0
 355 464 406 414 406 319 c 0
 406 294 400 270 400 270 c 1
 387 258 l 1
111 528 m 1
 97 550 l 1
 162 618 235 703 235 703 c 1
 249 703 l 1
 249 703 322 618 387 550 c 1
 373 528 l 1
 364 527 l 1
 317 568 269 603 242 624 c 1
 214 603 168 569 120 527 c 1
 111 528 l 1
EndSplineSet
Validated: 1
EndChar

StartChar: edieresis
Encoding: 235 235 161
Width: 448
Flags: MW
HStem: -12 68<214.5 276> 258 41 413 51<207 264.5> 566 93<147.5 167.5 313.5 333.5>
VStem: 36 75<186 242 242 258 186 277.5>
LayerCount: 2
Fore
SplineSet
115 295 m 1
 296 304 l 1
 316 306 321 311 321 331 c 0
 321 384 291 413 238 413 c 0
 176 413 127 368 115 295 c 1
387 258 m 1
 111 258 l 1
 111 242 l 2
 111 130 170 56 259 56 c 0
 321 56 382 87 382 87 c 1
 388 85 l 1
 399 56 l 1
 399 56 306 -12 246 -12 c 0
 120 -12 36 77 36 209 c 0
 36 346 138 464 257 464 c 0
 355 464 406 414 406 319 c 0
 406 294 400 270 400 270 c 1
 387 258 l 1
319 566 m 0
 292 566 278 588 278 609 c 0
 278 636 299 659 328 659 c 0
 355 659 369 638 369 616 c 0
 369 589 348 566 319 566 c 0
153 566 m 0
 126 566 112 588 112 609 c 0
 112 636 133 659 162 659 c 0
 189 659 203 638 203 616 c 0
 203 589 182 566 153 566 c 0
EndSplineSet
Validated: 1
EndChar

StartChar: edotaccent
Encoding: 279 279 162
Width: 448
Flags: MW
HStem: -12 68<214.5 276> 258 41 413 51<207 264.5> 602 110<230 254>
VStem: 36 75<186 242 242 258 186 277.5>
LayerCount: 2
Fore
SplineSet
115 295 m 1
 296 304 l 1
 316 306 321 311 321 331 c 0
 321 384 291 413 238 413 c 0
 176 413 127 368 115 295 c 1
387 258 m 1
 111 258 l 1
 111 242 l 2
 111 130 170 56 259 56 c 0
 321 56 382 87 382 87 c 1
 388 85 l 1
 399 56 l 1
 399 56 306 -12 246 -12 c 0
 120 -12 36 77 36 209 c 0
 36 346 138 464 257 464 c 0
 355 464 406 414 406 319 c 0
 406 294 400 270 400 270 c 1
 387 258 l 1
237 602 m 0
 204 602 188 628 188 653 c 0
 188 685 213 712 247 712 c 0
 279 712 296 687 296 661 c 0
 296 629 271 602 237 602 c 0
EndSplineSet
Validated: 1
EndChar

StartChar: egrave
Encoding: 232 232 163
Width: 448
Flags: MW
HStem: -12 68<214.5 276> 258 41 413 51<207 264.5> 694 20G<164 164>
VStem: 36 75<186 242 242 258 186 277.5>
LayerCount: 2
Fore
SplineSet
115 295 m 1
 296 304 l 1
 316 306 321 311 321 331 c 0
 321 384 291 413 238 413 c 0
 176 413 127 368 115 295 c 1
387 258 m 1
 111 258 l 1
 111 242 l 2
 111 130 170 56 259 56 c 0
 321 56 382 87 382 87 c 1
 388 85 l 1
 399 56 l 1
 399 56 306 -12 246 -12 c 0
 120 -12 36 77 36 209 c 0
 36 346 138 464 257 464 c 0
 355 464 406 414 406 319 c 0
 406 294 400 270 400 270 c 1
 387 258 l 1
117 660 m 1
 116 671 l 1
 154 712 l 1
 164 714 l 1
 164 714 242 620 314 542 c 1
 294 523 l 1
 285 521 l 1
 201 597 117 660 117 660 c 1
EndSplineSet
Validated: 1
EndChar

StartChar: emacron
Encoding: 275 275 164
Width: 448
Flags: MW
HStem: -12 68<214.5 276> 258 41 413 51<207 264.5> 595 52<226.5 242> 633 20G<385 385>
VStem: 36 75<186 242 242 258 186 277.5>
LayerCount: 2
Fore
SplineSet
115 295 m 1xec
 296 304 l 1
 316 306 321 311 321 331 c 0
 321 384 291 413 238 413 c 0
 176 413 127 368 115 295 c 1xec
387 258 m 1
 111 258 l 1
 111 242 l 2
 111 130 170 56 259 56 c 0
 321 56 382 87 382 87 c 1
 388 85 l 1
 399 56 l 1
 399 56 306 -12 246 -12 c 0
 120 -12 36 77 36 209 c 0
 36 346 138 464 257 464 c 0
 355 464 406 414 406 319 c 0
 406 294 400 270 400 270 c 1
 387 258 l 1
385 653 m 1
 391 643 l 1
 384 596 l 1
 242 595 l 2
 183 595 98 594 98 594 c 1
 92 603 l 1
 102 648 l 1
 102 648 197 647 256 647 c 0xf4
 306 647 385 653 385 653 c 1
EndSplineSet
Validated: 1
EndChar

StartChar: eng
Encoding: 331 331 165
Width: 533
Flags: MW
HStem: -144 21G<292 292> 0 42<122 212> 396 68<310 328.5> 445 20G<182 182>
VStem: 384 73
LayerCount: 2
Fore
SplineSet
326 464 m 0xe8
 410 464 463 414 463 335 c 1
 452 96 l 1
 444 -38 405 -102 292 -144 c 1
 275 -111 l 1
 278 -103 l 1
 361 -58 382 -15 384 94 c 1
 385 292 l 2
 385 358 355 396 302 396 c 0xe8
 253 396 199 359 179 344 c 1
 176 275 170 137 170 98 c 0
 170 57 180 42 206 42 c 0
 218 42 241 44 241 44 c 1
 243 40 l 1
 234 -3 l 1
 234 -3 180 0 143 0 c 0
 101 0 44 -6 44 -6 c 1
 49 35 l 1
 87 41 102 57 102 94 c 2
 102 338 l 2
 102 383 89 399 53 399 c 2
 42 399 l 1
 39 403 l 1
 42 436 l 1
 111 447 182 465 182 465 c 1xd8
 188 457 l 1
 188 457 179 425 177 391 c 1
 179 388 l 1
 203 404 294 464 326 464 c 0xe8
EndSplineSet
Validated: 1
EndChar

StartChar: eogonek
Encoding: 281 281 166
Width: 448
Flags: MW
HStem: -241 59<307.5 315> -12 68<214.5 254> 258 41 413 51<207 264.5>
VStem: 36 75<186 242 242 258 186 277.5>
LayerCount: 2
Fore
SplineSet
402 -159 m 1
 415 -178 l 1
 415 -178 366 -224 315 -241 c 1
 250 -241 204 -207 204 -147 c 0
 204 -100 245 -53 299 0 c 1
 280 -7 262 -12 246 -12 c 0
 120 -12 36 77 36 209 c 0
 36 346 138 464 257 464 c 0
 355 464 406 414 406 319 c 0
 406 294 400 270 400 270 c 1
 387 258 l 1
 111 258 l 1
 111 242 l 2
 111 130 170 56 259 56 c 0
 321 56 382 87 382 87 c 1
 388 85 l 1
 399 56 l 1
 398 55 l 2
 307 -35 267 -75 267 -128 c 0
 267 -159 290 -182 325 -182 c 0
 364 -182 402 -159 402 -159 c 1
115 295 m 1
 296 304 l 1
 316 306 321 311 321 331 c 0
 321 384 291 413 238 413 c 0
 176 413 127 368 115 295 c 1
EndSplineSet
Validated: 1
EndChar

StartChar: eth
Encoding: 240 240 167
Width: 508
Flags: MW
HStem: -12 49<227.5 305.5 227.5 305.5> 399 54<210.5 281.5> 721 20G<78 78>
VStem: 43 80<176.5 274> 383 82<170.5 233.5>
LayerCount: 2
Fore
SplineSet
410 692 m 1
 418 687 l 1
 422 658 l 1
 301 599 l 1
 407 500 465 376 465 242 c 0
 465 99 368 -12 243 -12 c 0
 125 -12 43 77 43 206 c 0
 43 342 144 453 266 453 c 0
 297 453 340 427 340 427 c 1
 342 429 l 1
 319 482 288 530 247 572 c 1
 114 508 l 1
 105 511 l 1
 101 541 l 1
 219 599 l 1
 173 639 118 674 53 704 c 1
 68 737 l 1
 78 741 l 1
 152 709 217 670 272 625 c 1
 410 692 l 1
383 206 m 0
 383 261 377 311 365 358 c 1
 349 373 313 399 250 399 c 0
 171 399 123 338 123 235 c 0
 123 118 184 37 271 37 c 0
 340 37 383 102 383 206 c 0
EndSplineSet
Validated: 1
EndChar

StartChar: f
Encoding: 102 102 168
Width: 330
Flags: MW
HStem: -4 21G<46 46> 0 43<130 244> 399 50<181 215> 683 59<268 329.5>
VStem: 108 70
LayerCount: 2
Fore
SplineSet
45 405 m 1xb8
 41 411 l 1
 48 445 l 1
 108 456 l 1
 108 460 l 1
 109 634 198 742 338 742 c 0
 406 742 452 723 452 723 c 1
 454 714 l 1
 454 714 438 686 423 649 c 1
 412 646 l 1
 412 646 362 683 297 683 c 0
 221 683 184 623 182 498 c 2
 181 449 l 1
 252 449 319 452 319 452 c 1
 322 449 l 1
 312 396 l 1
 312 396 250 399 180 399 c 1
 176 98 l 2
 176 60 192 43 227 43 c 0
 261 43 287 45 287 45 c 1
 289 41 l 1
 282 -2 l 1
 282 -2 197 0 158 0 c 0x78
 102 0 46 -4 46 -4 c 1
 51 35 l 1
 89 40 108 60 108 94 c 2
 108 364 l 1
 106 396 94 403 45 405 c 1xb8
EndSplineSet
Validated: 1
EndChar

StartChar: g
Encoding: 103 103 169
Width: 504
Flags: MW
HStem: -242 49<215.5 276.5> 130 44<218.5 282.5 217.5 283.5> 413 51<205.5 267 198.5 270> 433 20G<333 346> 463 20G<484 484>
VStem: 62 75<264.5 333.5> 351 75<258 321.5>
LayerCount: 2
Fore
SplineSet
228 130 m 0xde
 209 130 191 133 170 138 c 1
 143 123 128 107 128 94 c 0
 128 63 166 48 248 45 c 1
 403 37 461 8 461 -62 c 0
 461 -154 340 -242 213 -242 c 0
 118 -242 62 -193 62 -109 c 1
 95 -65 161 -19 161 -19 c 1
 161 -13 l 1
 99 -5 52 37 52 85 c 1
 83 117 136 149 136 149 c 1
 136 153 l 1
 89 178 62 227 62 286 c 0
 62 381 149 464 248 464 c 0xe6
 286 464 320 453 346 453 c 1
 397 459 484 483 484 483 c 1
 487 479 l 1
 476 423 l 1
 476 423 432 417 390 414 c 1
 386 409 l 1
 412 380 426 345 426 308 c 0
 426 208 339 130 228 130 c 0xde
252 174 m 0
 313 174 351 215 351 283 c 0
 351 360 304 413 236 413 c 0
 175 413 137 370 137 303 c 0
 137 226 183 174 252 174 c 0
250 -193 m 0
 328 -193 397 -146 397 -94 c 0
 397 -55 362 -41 202 -20 c 1
 202 -20 140 -66 140 -111 c 0
 140 -162 181 -193 250 -193 c 0
EndSplineSet
Validated: 1
EndChar

StartChar: gbreve
Encoding: 287 287 170
Width: 504
Flags: MW
HStem: -242 49<215.5 276.5> 130 44<218.5 282.5 217.5 283.5> 413 51<205.5 267 198.5 270> 433 20G<333 346> 558 58<227 269 227 282.5> 662 20G<144 152 152 152 344 352 352 352>
VStem: 62 75<264.5 333.5> 351 75<258 321.5>
LayerCount: 2
Fore
SplineSet
228 130 m 0xdf
 209 130 191 133 170 138 c 1
 143 123 128 107 128 94 c 0
 128 63 166 48 248 45 c 1
 403 37 461 8 461 -62 c 0
 461 -154 340 -242 213 -242 c 0
 118 -242 62 -193 62 -109 c 1
 95 -65 161 -19 161 -19 c 1
 161 -13 l 1
 99 -5 52 37 52 85 c 1
 83 117 136 149 136 149 c 1
 136 153 l 1
 89 178 62 227 62 286 c 0
 62 381 149 464 248 464 c 0xef
 286 464 320 453 346 453 c 1
 397 459 484 483 484 483 c 1
 487 479 l 1
 476 423 l 1
 476 423 432 417 390 414 c 1
 386 409 l 1
 412 380 426 345 426 308 c 0
 426 208 339 130 228 130 c 0xdf
252 174 m 0
 313 174 351 215 351 283 c 0
 351 360 304 413 236 413 c 0
 175 413 137 370 137 303 c 0
 137 226 183 174 252 174 c 0
250 -193 m 0
 328 -193 397 -146 397 -94 c 0
 397 -55 362 -41 202 -20 c 1
 202 -20 140 -66 140 -111 c 0
 140 -162 181 -193 250 -193 c 0
248 616 m 0
 290 616 327 638 344 682 c 1
 352 682 l 1
 368 672 l 1
 354 615 317 558 248 558 c 0
 179 558 142 615 128 672 c 1
 144 682 l 1
 152 682 l 1
 169 638 206 616 248 616 c 0
EndSplineSet
Validated: 1
EndChar

StartChar: gdotaccent
Encoding: 289 289 171
Width: 504
Flags: MW
HStem: -242 49<215.5 276.5> 130 44<218.5 282.5 217.5 283.5> 413 51<205.5 267 198.5 270> 433 20G<333 346> 602 110<234 258>
VStem: 62 75<264.5 333.5> 351 75<258 321.5>
LayerCount: 2
Fore
SplineSet
228 130 m 0xde
 209 130 191 133 170 138 c 1
 143 123 128 107 128 94 c 0
 128 63 166 48 248 45 c 1
 403 37 461 8 461 -62 c 0
 461 -154 340 -242 213 -242 c 0
 118 -242 62 -193 62 -109 c 1
 95 -65 161 -19 161 -19 c 1
 161 -13 l 1
 99 -5 52 37 52 85 c 1
 83 117 136 149 136 149 c 1
 136 153 l 1
 89 178 62 227 62 286 c 0
 62 381 149 464 248 464 c 0xee
 286 464 320 453 346 453 c 1
 397 459 484 483 484 483 c 1
 487 479 l 1
 476 423 l 1
 476 423 432 417 390 414 c 1
 386 409 l 1
 412 380 426 345 426 308 c 0
 426 208 339 130 228 130 c 0xde
252 174 m 0
 313 174 351 215 351 283 c 0
 351 360 304 413 236 413 c 0
 175 413 137 370 137 303 c 0
 137 226 183 174 252 174 c 0
250 -193 m 0
 328 -193 397 -146 397 -94 c 0
 397 -55 362 -41 202 -20 c 1
 202 -20 140 -66 140 -111 c 0
 140 -162 181 -193 250 -193 c 0
241 602 m 0
 208 602 192 628 192 653 c 0
 192 685 217 712 251 712 c 0
 283 712 300 687 300 661 c 0
 300 629 275 602 241 602 c 0
EndSplineSet
Validated: 1
EndChar

StartChar: germandbls
Encoding: 223 223 172
Width: 591
Flags: MW
HStem: -12 55 0 43<130 229.5> 683 59<266.5 334>
VStem: 108 71 291 74<353 424.5> 511 71<104.5 167.5>
LayerCount: 2
Fore
SplineSet
288 41 m 0xbc
 288 60 310 108 326 127 c 1
 340 127 l 1
 340 67 375 32 435 32 c 0
 475 32 511 72 511 115 c 0
 511 220 291 241 291 378 c 0
 291 471 422 513 422 588 c 0
 422 646 373 683 295 683 c 0
 219 683 183 625 182 498 c 2
 176 98 l 2
 175 63 189 43 215 43 c 0
 244 43 262 44 262 44 c 1
 264 40 l 1
 257 -2 l 1
 257 -2 188 0 158 0 c 0x7c
 102 0 46 -4 46 -4 c 1
 51 35 l 1
 98 41 108 58 108 108 c 2
 108 364 l 1
 106 394 92 403 45 405 c 1
 41 411 l 1
 48 445 l 1
 108 456 l 1
 108 636 194 742 339 742 c 0
 418 742 491 683 491 620 c 0
 491 507 365 473 365 397 c 0
 365 309 582 284 582 147 c 0
 582 62 500 -12 404 -12 c 0
 339 -12 288 11 288 41 c 0xbc
EndSplineSet
Validated: 33
EndChar

StartChar: h
Encoding: 104 104 173
Width: 534
Flags: MW
HStem: -12 21G<302 302> 0 42<107 197> 396 68<290 311.5> 722 20G<177 177>
VStem: 365 81
LayerCount: 2
Fore
SplineSet
29 -2 m 1x78
 35 39 l 1
 73 43 87 57 87 94 c 2
 87 626 l 2
 87 662 76 678 50 678 c 2
 29 678 l 1
 25 681 l 1
 29 713 l 1
 98 722 177 742 177 742 c 1
 183 729 l 1
 173 714 164 570 159 386 c 1
 178 399 271 464 309 464 c 0
 396 464 446 417 446 335 c 0
 446 300 430 156 430 98 c 0
 430 59 440 42 465 42 c 0
 477 42 500 44 500 44 c 1
 502 40 l 1
 494 -3 l 1
 494 -3 442 0 405 0 c 0x78
 363 0 302 -12 302 -12 c 1xb8
 306 29 l 1
 346 40 362 59 362 94 c 1
 368 292 l 1
 368 358 338 396 285 396 c 0
 232 396 173 353 158 341 c 1
 156 264 155 180 155 98 c 0
 155 57 165 42 191 42 c 0
 203 42 226 44 226 44 c 1
 228 40 l 1
 219 -3 l 1
 219 -3 165 0 128 0 c 0
 86 0 29 -2 29 -2 c 1x78
EndSplineSet
Validated: 1
EndChar

StartChar: hbar
Encoding: 295 295 174
Width: 536
Flags: MW
HStem: -12 21G<304 304> 0 42<109 199> 396 68<292 313.5> 522 46<69.5 89> 722 20G<179 179>
VStem: 367 81
LayerCount: 2
Fore
SplineSet
31 -2 m 1x7c
 37 39 l 1
 75 43 89 57 89 94 c 2
 89 522 l 1
 51 521 17 521 17 521 c 1
 8 530 l 1
 15 569 l 1
 15 569 50 568 89 568 c 1
 89 626 l 2
 89 662 78 678 52 678 c 2
 31 678 l 1
 27 681 l 1
 31 713 l 1
 100 722 179 742 179 742 c 1
 185 729 l 1
 178 719 173 658 168 568 c 1
 209 569 260 573 260 573 c 1
 273 560 l 1
 269 523 l 1
 166 522 l 1
 164 481 162 435 161 386 c 1
 180 399 273 464 311 464 c 0
 398 464 448 417 448 335 c 0
 448 300 432 156 432 98 c 0
 432 59 442 42 467 42 c 0
 479 42 502 44 502 44 c 1
 504 40 l 1
 496 -3 l 1
 496 -3 444 0 407 0 c 0x7c
 365 0 304 -12 304 -12 c 1xbc
 308 29 l 1
 348 40 364 59 364 94 c 1
 370 292 l 1
 370 358 340 396 287 396 c 0
 234 396 175 353 160 341 c 1
 158 264 157 180 157 98 c 0
 157 57 167 42 193 42 c 0
 205 42 228 44 228 44 c 1
 230 40 l 1
 221 -3 l 1
 221 -3 167 0 130 0 c 0
 88 0 31 -2 31 -2 c 1x7c
EndSplineSet
Validated: 1
EndChar

StartChar: i
Encoding: 105 105 175
Width: 282
Flags: MW
HStem: -12 21G<44 44> 0 42<126 213> 602 110<126.5 149.5>
LayerCount: 2
Fore
SplineSet
133 602 m 0xa0
 104 602 84 623 84 653 c 0
 84 686 110 712 143 712 c 0
 171 712 192 691 192 661 c 0
 192 628 166 602 133 602 c 0xa0
44 -12 m 1
 48 29 l 1
 88 40 104 59 104 94 c 2
 104 348 l 2
 104 385 92 402 67 402 c 0
 56 402 42 398 42 398 c 1
 46 435 l 1
 113 445 190 464 190 464 c 1
 195 452 l 1
 183 424 172 255 172 98 c 0
 172 59 182 42 207 42 c 0
 219 42 242 44 242 44 c 1
 244 40 l 1
 236 -3 l 1
 236 -3 184 0 147 0 c 0x60
 105 0 44 -12 44 -12 c 1
EndSplineSet
Validated: 1
EndChar

StartChar: ij
Encoding: 307 307 176
Width: 532
Flags: MW
HStem: -241 21G<315 315> 0 42<126 213> 602 110<126.5 149.5 396.5 419.5>
LayerCount: 2
Fore
SplineSet
133 602 m 0
 104 602 84 623 84 653 c 0
 84 686 110 712 143 712 c 0
 171 712 192 691 192 661 c 0
 192 628 166 602 133 602 c 0
44 -12 m 1
 48 29 l 1
 88 40 104 59 104 94 c 2
 104 348 l 2
 104 385 92 402 67 402 c 0
 56 402 42 398 42 398 c 1
 46 435 l 1
 113 445 190 464 190 464 c 1
 195 452 l 1
 183 424 172 255 172 98 c 0
 172 59 182 42 207 42 c 0
 219 42 242 44 242 44 c 1
 244 40 l 1
 236 -3 l 1
 236 -3 184 0 147 0 c 0
 105 0 44 -12 44 -12 c 1
315 -241 m 1
 297 -222 l 1
 299 -214 l 1
 356 -157 373 -99 373 38 c 2
 373 348 l 2
 373 389 363 402 333 402 c 0
 322 402 306 399 306 399 c 1
 310 436 l 1
 371 444 454 464 454 464 c 1
 459 452 l 1
 448 433 442 269 442 -14 c 0
 442 -110 397 -191 315 -241 c 1
403 602 m 0
 374 602 354 623 354 653 c 0
 354 686 380 712 413 712 c 0
 441 712 462 691 462 661 c 0
 462 628 436 602 403 602 c 0
EndSplineSet
Validated: 1
EndChar

StartChar: j
Encoding: 106 106 177
Width: 250
Flags: MW
HStem: -241 21G<33 33> 602 110<114.5 137.5>
LayerCount: 2
Fore
SplineSet
33 -241 m 1
 15 -222 l 1
 17 -214 l 1
 74 -157 91 -99 91 38 c 2
 91 348 l 2
 91 389 81 402 51 402 c 0
 40 402 24 399 24 399 c 1
 28 436 l 1
 89 444 172 464 172 464 c 1
 177 452 l 1
 166 433 160 269 160 -14 c 0
 160 -110 115 -191 33 -241 c 1
121 602 m 0
 92 602 72 623 72 653 c 0
 72 686 98 712 131 712 c 0
 159 712 180 691 180 661 c 0
 180 628 154 602 121 602 c 0
EndSplineSet
Validated: 1
EndChar

StartChar: iogonek
Encoding: 303 303 178
Width: 282
Flags: MW
HStem: -241 59<145.5 153> 602 110<126.5 149.5>
LayerCount: 2
Fore
SplineSet
44 -12 m 1
 48 29 l 1
 88 40 104 59 104 94 c 2
 104 348 l 2
 104 385 92 402 67 402 c 0
 56 402 42 398 42 398 c 1
 46 435 l 1
 113 445 190 464 190 464 c 1
 195 452 l 1
 183 424 172 255 172 98 c 0
 172 61 181 43 203 42 c 1
 207 42 l 2
 219 42 242 44 242 44 c 1
 244 40 l 1
 236 -3 l 1
 236 -3 208 -1 180 0 c 1
 127 -56 105 -88 105 -128 c 0
 105 -159 128 -182 163 -182 c 0
 202 -182 240 -159 240 -159 c 1
 253 -178 l 1
 253 -178 204 -224 153 -241 c 1
 88 -241 42 -207 42 -147 c 0
 42 -100 83 -53 136 0 c 1
 95 -1 44 -12 44 -12 c 1
133 602 m 0
 104 602 84 623 84 653 c 0
 84 686 110 712 143 712 c 0
 171 712 192 691 192 661 c 0
 192 628 166 602 133 602 c 0
EndSplineSet
Validated: 1
EndChar

StartChar: k
Encoding: 107 107 179
Width: 497
Flags: MW
HStem: -14 56 0 42<107 197> 432 20G<359 396> 722 20G<177 177>
LayerCount: 2
Fore
SplineSet
29 -6 m 1x70
 34 35 l 1
 88 43 87 68 87 135 c 2
 87 626 l 2
 87 663 75 680 50 680 c 0
 39 680 25 676 25 676 c 1
 25 682 26 688 27 694 c 2
 29 713 l 1
 98 722 177 742 177 742 c 1
 183 729 l 1
 169 707 155 398 155 98 c 0
 155 57 165 42 191 42 c 0
 203 42 226 44 226 44 c 1
 228 40 l 1
 219 -3 l 1
 219 -3 165 0 128 0 c 0
 86 0 29 -6 29 -6 c 1x70
298 71 m 2
 180 238 l 1
 182 252 l 1
 304 364 l 2
 322 381 328 389 328 399 c 0
 328 414 312 420 273 420 c 1
 270 425 l 1
 279 454 l 1
 279 454 341 452 377 452 c 0
 415 452 472 458 472 458 c 1
 475 453 l 1
 467 422 l 1
 395 401 320 317 254 253 c 1
 359 118 l 2
 405 59 439 36 480 36 c 1
 483 31 l 1
 477 2 l 1
 477 2 418 -14 403 -14 c 0xb0
 390 -14 378 -9 368 -4 c 0
 347 7 328 28 298 71 c 2
EndSplineSet
Validated: 33
EndChar

StartChar: kcommaaccent
Encoding: 311 311 180
Width: 497
Flags: MW
HStem: -293 21G<193 193> 0 21G<107 146.5> 432 20G<359 396> 722 20G<177 177>
LayerCount: 2
Fore
SplineSet
29 -6 m 1
 34 35 l 1
 88 43 87 68 87 135 c 2
 87 626 l 2
 87 663 75 680 50 680 c 0
 39 680 25 676 25 676 c 1
 25 682 26 688 27 694 c 2
 29 713 l 1
 98 722 177 742 177 742 c 1
 183 729 l 1
 169 707 155 398 155 98 c 0
 155 57 165 42 191 42 c 0
 203 42 226 44 226 44 c 1
 228 40 l 1
 219 -3 l 1
 219 -3 165 0 128 0 c 0
 86 0 29 -6 29 -6 c 1
298 71 m 2
 180 238 l 1
 182 252 l 1
 304 364 l 2
 322 381 328 389 328 399 c 0
 328 414 312 420 273 420 c 1
 270 425 l 1
 279 454 l 1
 279 454 341 452 377 452 c 0
 415 452 472 458 472 458 c 1
 475 453 l 1
 467 422 l 1
 395 401 320 317 254 253 c 1
 359 118 l 2
 405 59 439 36 480 36 c 1
 483 31 l 1
 477 2 l 1
 477 2 418 -14 403 -14 c 0
 390 -14 378 -9 368 -4 c 0
 347 7 328 28 298 71 c 2
207 -107 m 1
 209 -93 l 1
 222 -83 245 -67 267 -67 c 0
 297 -67 321 -94 321 -138 c 0
 321 -210 248 -264 193 -293 c 1
 175 -278 l 1
 175 -268 l 1
 215 -243 247 -203 247 -169 c 0
 247 -142 229 -120 207 -107 c 1
EndSplineSet
Validated: 33
EndChar

StartChar: l
Encoding: 108 108 181
Width: 244
Flags: MW
HStem: -12 21G<27 27> 0 42<109 196> 722 20G<177 177>
LayerCount: 2
Fore
SplineSet
27 -12 m 1xa0
 31 29 l 1
 89 45 87 72 87 135 c 2
 87 626 l 2
 87 663 75 680 50 680 c 0
 39 680 25 676 25 676 c 1
 25 682 26 688 27 694 c 2
 29 713 l 1
 98 722 177 742 177 742 c 1
 183 729 l 1
 169 707 155 395 155 98 c 0
 155 58 165 42 190 42 c 0
 202 42 225 44 225 44 c 1
 227 40 l 1
 219 -3 l 1
 219 -3 167 0 130 0 c 0x60
 88 0 27 -12 27 -12 c 1xa0
EndSplineSet
Validated: 33
EndChar

StartChar: lacute
Encoding: 314 314 182
Width: 244
Flags: MW
HStem: -12 21G<27 27> 0 42<109 196> 925 20G<205 205>
LayerCount: 2
Fore
SplineSet
27 -12 m 1xa0
 31 29 l 1
 89 45 87 72 87 135 c 2
 87 626 l 2
 87 663 75 680 50 680 c 0
 39 680 25 676 25 676 c 1
 25 682 26 688 27 694 c 2
 29 713 l 1
 98 722 177 742 177 742 c 1
 183 729 l 1
 169 707 155 395 155 98 c 0
 155 58 165 42 190 42 c 0
 202 42 225 44 225 44 c 1
 227 40 l 1
 219 -3 l 1
 219 -3 167 0 130 0 c 0x60
 88 0 27 -12 27 -12 c 1xa0
253 902 m 1xa0
 252 891 l 1
 252 891 168 827 84 751 c 1
 75 753 l 1
 55 772 l 1
 127 850 205 945 205 945 c 1
 215 943 l 1
 253 902 l 1xa0
EndSplineSet
Validated: 33
EndChar

StartChar: lcaron
Encoding: 318 318 183
Width: 304
Flags: MW
HStem: -12 21G<27 27> 0 42<109 196> 722 20G<177 177>
LayerCount: 2
Fore
SplineSet
297 699 m 1xa0
 304 691 l 1
 304 691 290 581 269 479 c 1
 244 465 l 1
 233 467 l 1
 237 577 227 685 227 685 c 1
 297 699 l 1xa0
27 -12 m 1
 31 29 l 1
 89 45 87 72 87 135 c 2
 87 626 l 2
 87 663 75 680 50 680 c 0
 39 680 25 676 25 676 c 1
 25 682 26 688 27 694 c 2
 29 713 l 1
 98 722 177 742 177 742 c 1
 183 729 l 1
 169 707 155 395 155 98 c 0
 155 58 165 42 190 42 c 0
 202 42 225 44 225 44 c 1
 227 40 l 1
 219 -3 l 1
 219 -3 167 0 130 0 c 0x60
 88 0 27 -12 27 -12 c 1
EndSplineSet
Validated: 33
EndChar

StartChar: lcommaaccent
Encoding: 316 316 184
Width: 244
Flags: MW
HStem: -293 21G<56 56> -67 67<119 145> 722 20G<177 177>
LayerCount: 2
Fore
SplineSet
27 -12 m 1
 31 29 l 1
 89 45 87 72 87 135 c 2
 87 626 l 2
 87 663 75 680 50 680 c 0
 39 680 25 676 25 676 c 1
 25 682 26 688 27 694 c 2
 29 713 l 1
 98 722 177 742 177 742 c 1
 183 729 l 1
 169 707 155 395 155 98 c 0
 155 58 165 42 190 42 c 0
 202 42 225 44 225 44 c 1
 227 40 l 1
 219 -3 l 1
 219 -3 167 0 130 0 c 0
 88 0 27 -12 27 -12 c 1
70 -107 m 1
 72 -93 l 1
 85 -83 108 -67 130 -67 c 0
 160 -67 184 -94 184 -138 c 0
 184 -210 111 -264 56 -293 c 1
 38 -278 l 1
 38 -268 l 1
 78 -243 110 -203 110 -169 c 0
 110 -142 92 -120 70 -107 c 1
EndSplineSet
Validated: 33
EndChar

StartChar: ldot
Encoding: 320 320 185
Width: 332
Flags: MW
HStem: -12 21G<27 27> 0 42<109 196> 219 119<251 283.5> 722 20G<177 177>
LayerCount: 2
Fore
SplineSet
27 -12 m 1xb0
 31 29 l 1
 89 45 87 72 87 135 c 2
 87 626 l 2
 87 663 75 680 50 680 c 0
 39 680 25 676 25 676 c 1
 25 682 26 688 27 694 c 2
 29 713 l 1
 98 722 177 742 177 742 c 1
 183 729 l 1
 169 707 155 395 155 98 c 0
 155 58 165 42 190 42 c 0
 202 42 225 44 225 44 c 1
 227 40 l 1
 219 -3 l 1
 219 -3 167 0 130 0 c 0x70
 88 0 27 -12 27 -12 c 1xb0
264 219 m 0xb0
 226 219 208 247 208 276 c 0
 208 310 232 338 270 338 c 0
 307 338 327 312 327 281 c 0
 327 247 303 219 264 219 c 0xb0
EndSplineSet
Validated: 33
EndChar

StartChar: lslash
Encoding: 322 322 186
Width: 247
Flags: MW
HStem: -12 21G<27 27> 0 42<109 196> 722 20G<177 177>
LayerCount: 2
Fore
SplineSet
27 -12 m 1xa0
 31 29 l 1
 89 45 87 72 87 135 c 2
 87 346 l 1
 18 308 l 1
 9 310 l 1
 3 342 l 1
 87 389 l 1
 87 626 l 2
 87 663 75 680 50 680 c 0
 39 680 25 676 25 676 c 1
 25 682 26 688 27 694 c 2
 29 713 l 1
 98 722 177 742 177 742 c 1
 183 729 l 1
 174 715 165 590 160 425 c 1
 228 463 l 1
 236 459 l 1
 242 428 l 1
 159 382 l 1
 156 293 155 194 155 98 c 0
 155 58 165 42 190 42 c 0
 202 42 225 44 225 44 c 1
 227 40 l 1
 219 -3 l 1
 219 -3 167 0 130 0 c 0x60
 88 0 27 -12 27 -12 c 1xa0
EndSplineSet
Validated: 33
EndChar

StartChar: m
Encoding: 109 109 187
Width: 832
Flags: MW
HStem: -12 21G<321 321> 0 42<122 212> 396 68<308 328.5 585.5 607.5> 445 20G<182 182>
VStem: 383 71 662 80
LayerCount: 2
Fore
SplineSet
321 -12 m 1xac
 325 29 l 1
 365 40 381 59 381 94 c 2
 385 292 l 1
 385 358 355 396 302 396 c 0xac
 253 396 199 359 179 344 c 1
 176 275 170 137 170 98 c 0
 170 57 180 42 206 42 c 0
 218 42 241 44 241 44 c 1
 243 40 l 1
 234 -3 l 1
 234 -3 180 0 143 0 c 0
 101 0 44 -2 44 -2 c 1
 50 39 l 1
 88 43 102 57 102 94 c 2
 102 338 l 2
 102 383 89 399 53 399 c 2
 42 399 l 1
 39 403 l 1
 42 436 l 1
 111 447 182 465 182 465 c 1x5c
 188 457 l 1
 188 457 179 425 177 391 c 1
 179 388 l 1
 204 405 290 464 326 464 c 0
 390 464 436 435 454 385 c 1
 471 397 566 464 605 464 c 0
 689 464 742 414 742 335 c 0
 742 300 728 156 728 98 c 0
 728 57 738 42 764 42 c 0
 776 42 799 44 799 44 c 1
 801 40 l 1
 792 -3 l 1
 792 -3 738 0 701 0 c 0
 659 0 602 -6 602 -6 c 1
 607 35 l 1
 645 41 660 57 660 94 c 2
 664 292 l 1
 664 358 634 396 581 396 c 0
 533 396 482 362 460 346 c 1
 449 98 l 1
 449 59 459 42 484 42 c 0
 496 42 519 44 519 44 c 1
 521 40 l 1
 513 -3 l 1
 513 -3 461 0 424 0 c 0x6c
 382 0 321 -12 321 -12 c 1xac
EndSplineSet
Validated: 1
EndChar

StartChar: n
Encoding: 110 110 188
Width: 562
Flags: MW
HStem: -12 21G<321 321> 0 42<122 212> 396 68<310 328.5> 445 20G<182 182>
VStem: 383 80
LayerCount: 2
Fore
SplineSet
321 -12 m 1xa8
 325 29 l 1
 365 40 381 59 381 94 c 2
 385 292 l 1
 385 358 355 396 302 396 c 0xa8
 253 396 199 359 179 344 c 1
 176 275 170 137 170 98 c 0
 170 57 180 42 206 42 c 0
 218 42 241 44 241 44 c 1
 243 40 l 1
 234 -3 l 1
 234 -3 180 0 143 0 c 0
 101 0 44 -6 44 -6 c 1
 49 35 l 1
 87 41 102 57 102 94 c 2
 102 338 l 2
 102 383 89 399 53 399 c 2
 42 399 l 1
 39 403 l 1
 42 436 l 1
 111 447 182 465 182 465 c 1x58
 188 457 l 1
 188 457 179 425 177 391 c 1
 179 388 l 1
 203 404 294 464 326 464 c 0
 410 464 463 414 463 335 c 0
 463 300 449 156 449 98 c 0
 449 59 459 42 484 42 c 0
 496 42 519 44 519 44 c 1
 521 40 l 1
 513 -3 l 1
 513 -3 461 0 424 0 c 0x68
 382 0 321 -12 321 -12 c 1xa8
EndSplineSet
Validated: 1
EndChar

StartChar: nacute
Encoding: 324 324 189
Width: 562
Flags: MW
HStem: -12 21G<321 321> 0 42<122 212> 396 68<310 328.5> 695 20G<369 369>
VStem: 383 80
LayerCount: 2
Fore
SplineSet
321 -12 m 1xb8
 325 29 l 1
 365 40 381 59 381 94 c 2
 385 292 l 1
 385 358 355 396 302 396 c 0
 253 396 199 359 179 344 c 1
 176 275 170 137 170 98 c 0
 170 57 180 42 206 42 c 0
 218 42 241 44 241 44 c 1
 243 40 l 1
 234 -3 l 1
 234 -3 180 0 143 0 c 0
 101 0 44 -6 44 -6 c 1
 49 35 l 1
 87 41 102 57 102 94 c 2
 102 338 l 2
 102 383 89 399 53 399 c 2
 42 399 l 1
 39 403 l 1
 42 436 l 1
 111 447 182 465 182 465 c 1
 188 457 l 1
 188 457 179 425 177 391 c 1
 179 388 l 1
 203 404 294 464 326 464 c 0
 410 464 463 414 463 335 c 0
 463 300 449 156 449 98 c 0
 449 59 459 42 484 42 c 0
 496 42 519 44 519 44 c 1
 521 40 l 1
 513 -3 l 1
 513 -3 461 0 424 0 c 0x78
 382 0 321 -12 321 -12 c 1xb8
417 672 m 1xb8
 416 661 l 1
 416 661 332 597 248 521 c 1
 239 523 l 1
 219 542 l 1
 291 620 369 715 369 715 c 1
 379 713 l 1
 417 672 l 1xb8
EndSplineSet
Validated: 1
EndChar

StartChar: ncaron
Encoding: 328 328 190
Width: 562
Flags: MW
HStem: -12 21G<321 321> 0 42<122 212> 396 68<310 328.5> 690 20G<161 161 417 417>
VStem: 383 80
LayerCount: 2
Fore
SplineSet
321 -12 m 1xb8
 325 29 l 1
 365 40 381 59 381 94 c 2
 385 292 l 1
 385 358 355 396 302 396 c 0
 253 396 199 359 179 344 c 1
 176 275 170 137 170 98 c 0
 170 57 180 42 206 42 c 0
 218 42 241 44 241 44 c 1
 243 40 l 1
 234 -3 l 1
 234 -3 180 0 143 0 c 0
 101 0 44 -6 44 -6 c 1
 49 35 l 1
 87 41 102 57 102 94 c 2
 102 338 l 2
 102 383 89 399 53 399 c 2
 42 399 l 1
 39 403 l 1
 42 436 l 1
 111 447 182 465 182 465 c 1
 188 457 l 1
 188 457 179 425 177 391 c 1
 179 388 l 1
 203 404 294 464 326 464 c 0
 410 464 463 414 463 335 c 0
 463 300 449 156 449 98 c 0
 449 59 459 42 484 42 c 0
 496 42 519 44 519 44 c 1
 521 40 l 1
 513 -3 l 1
 513 -3 461 0 424 0 c 0x78
 382 0 321 -12 321 -12 c 1xb8
137 686 m 1xb8
 153 709 l 1
 161 710 l 1
 212 666 260 630 289 609 c 1
 317 630 367 667 417 710 c 1
 425 709 l 1
 441 686 l 1
 372 615 296 526 296 526 c 1
 282 526 l 1
 282 526 206 615 137 686 c 1xb8
EndSplineSet
Validated: 1
EndChar

StartChar: ncommaaccent
Encoding: 326 326 191
Width: 562
Flags: MW
HStem: -293 21G<210 210> -67 67 0 42<122 212> 396 68<310 328.5> 445 20G<182 182>
VStem: 383 80
LayerCount: 2
Fore
SplineSet
321 -12 m 1xb4
 325 29 l 1
 365 40 381 59 381 94 c 2
 385 292 l 1
 385 358 355 396 302 396 c 0xd4
 253 396 199 359 179 344 c 1
 176 275 170 137 170 98 c 0
 170 57 180 42 206 42 c 0
 218 42 241 44 241 44 c 1
 243 40 l 1
 234 -3 l 1
 234 -3 180 0 143 0 c 0
 101 0 44 -6 44 -6 c 1
 49 35 l 1
 87 41 102 57 102 94 c 2
 102 338 l 2
 102 383 89 399 53 399 c 2
 42 399 l 1
 39 403 l 1
 42 436 l 1
 111 447 182 465 182 465 c 1xac
 188 457 l 1
 188 457 179 425 177 391 c 1
 179 388 l 1
 203 404 294 464 326 464 c 0
 410 464 463 414 463 335 c 0
 463 300 449 156 449 98 c 0
 449 59 459 42 484 42 c 0
 496 42 519 44 519 44 c 1
 521 40 l 1
 513 -3 l 1
 513 -3 461 0 424 0 c 0
 382 0 321 -12 321 -12 c 1xb4
224 -107 m 1
 226 -93 l 1
 239 -83 262 -67 284 -67 c 0
 314 -67 338 -94 338 -138 c 0
 338 -210 265 -264 210 -293 c 1
 192 -278 l 1
 192 -268 l 1
 232 -243 264 -203 264 -169 c 0
 264 -142 246 -120 224 -107 c 1
EndSplineSet
Validated: 1
EndChar

StartChar: ntilde
Encoding: 241 241 192
Width: 562
Flags: MW
HStem: -12 21G<321 321> 0 42<122 212> 396 68<310 328.5> 573 64<347 360> 606 64<215 228> 672 20G<424 430 430 430>
VStem: 383 80
LayerCount: 2
Fore
SplineSet
321 -12 m 1xb6
 325 29 l 1
 365 40 381 59 381 94 c 2
 385 292 l 1
 385 358 355 396 302 396 c 0
 253 396 199 359 179 344 c 1
 176 275 170 137 170 98 c 0
 170 57 180 42 206 42 c 0
 218 42 241 44 241 44 c 1
 243 40 l 1
 234 -3 l 1
 234 -3 180 0 143 0 c 0
 101 0 44 -6 44 -6 c 1
 49 35 l 1
 87 41 102 57 102 94 c 2
 102 338 l 2
 102 383 89 399 53 399 c 2
 42 399 l 1
 39 403 l 1
 42 436 l 1
 111 447 182 465 182 465 c 1
 188 457 l 1
 188 457 179 425 177 391 c 1
 179 388 l 1
 203 404 294 464 326 464 c 0
 410 464 463 414 463 335 c 0
 463 300 449 156 449 98 c 0
 449 59 459 42 484 42 c 0
 496 42 519 44 519 44 c 1
 521 40 l 1
 513 -3 l 1
 513 -3 461 0 424 0 c 0x76
 382 0 321 -12 321 -12 c 1xb6
151 551 m 1xae
 145 551 l 1
 123 572 l 1
 123 577 l 1
 199 666 l 1
 215 670 l 1x6e
 248 670 333 637 361 637 c 0
 384 637 424 692 424 692 c 1
 430 692 l 1
 452 671 l 1
 452 666 l 1
 376 577 l 1
 360 573 l 1x76
 327 573 242 606 214 606 c 0
 190 606 151 551 151 551 c 1xae
EndSplineSet
Validated: 1
EndChar

StartChar: o
Encoding: 111 111 193
Width: 498
Flags: MW
HStem: -12 49<216 295.5 216 295.5> 410 54<202.5 280>
VStem: 36 80<179 281.5> 380 82<170.5 266>
LayerCount: 2
Fore
SplineSet
230 -12 m 0
 115 -12 36 79 36 210 c 0
 36 353 137 464 268 464 c 0
 382 464 462 373 462 242 c 0
 462 99 361 -12 230 -12 c 0
258 37 m 0
 333 37 380 102 380 206 c 0
 380 326 322 410 238 410 c 0
 163 410 116 344 116 239 c 0
 116 119 174 37 258 37 c 0
EndSplineSet
Validated: 1
EndChar

StartChar: oacute
Encoding: 243 243 194
Width: 498
Flags: MW
HStem: -12 49<216 295.5 216 295.5> 410 54<202.5 280> 695 20G<332 332>
VStem: 36 80<179 281.5> 380 82<170.5 266>
LayerCount: 2
Fore
SplineSet
230 -12 m 0
 115 -12 36 79 36 210 c 0
 36 353 137 464 268 464 c 0
 382 464 462 373 462 242 c 0
 462 99 361 -12 230 -12 c 0
258 37 m 0
 333 37 380 102 380 206 c 0
 380 326 322 410 238 410 c 0
 163 410 116 344 116 239 c 0
 116 119 174 37 258 37 c 0
380 672 m 1
 379 661 l 1
 379 661 295 597 211 521 c 1
 202 523 l 1
 182 542 l 1
 254 620 332 715 332 715 c 1
 342 713 l 1
 380 672 l 1
EndSplineSet
Validated: 1
EndChar

StartChar: ocircumflex
Encoding: 244 244 195
Width: 498
Flags: MW
HStem: -12 49<216 295.5 216 295.5> 410 54<202.5 280> 683 20G<244 258 258 258>
VStem: 36 80<179 281.5> 380 82<170.5 266>
LayerCount: 2
Fore
SplineSet
230 -12 m 0
 115 -12 36 79 36 210 c 0
 36 353 137 464 268 464 c 0
 382 464 462 373 462 242 c 0
 462 99 361 -12 230 -12 c 0
258 37 m 0
 333 37 380 102 380 206 c 0
 380 326 322 410 238 410 c 0
 163 410 116 344 116 239 c 0
 116 119 174 37 258 37 c 0
120 528 m 1
 106 550 l 1
 171 618 244 703 244 703 c 1
 258 703 l 1
 258 703 331 618 396 550 c 1
 382 528 l 1
 373 527 l 1
 326 568 278 603 251 624 c 1
 223 603 177 569 129 527 c 1
 120 528 l 1
EndSplineSet
Validated: 1
EndChar

StartChar: odieresis
Encoding: 246 246 196
Width: 498
Flags: MW
HStem: -12 49<216 295.5 216 295.5> 410 54<202.5 280> 566 93<156.5 176.5 322.5 342.5>
VStem: 36 80<179 281.5> 380 82<170.5 266>
LayerCount: 2
Fore
SplineSet
230 -12 m 0
 115 -12 36 79 36 210 c 0
 36 353 137 464 268 464 c 0
 382 464 462 373 462 242 c 0
 462 99 361 -12 230 -12 c 0
258 37 m 0
 333 37 380 102 380 206 c 0
 380 326 322 410 238 410 c 0
 163 410 116 344 116 239 c 0
 116 119 174 37 258 37 c 0
328 566 m 0
 301 566 287 588 287 609 c 0
 287 636 308 659 337 659 c 0
 364 659 378 638 378 616 c 0
 378 589 357 566 328 566 c 0
162 566 m 0
 135 566 121 588 121 609 c 0
 121 636 142 659 171 659 c 0
 198 659 212 638 212 616 c 0
 212 589 191 566 162 566 c 0
EndSplineSet
Validated: 1
EndChar

StartChar: oe
Encoding: 339 339 197
Width: 771
Flags: MW
HStem: -12 49<212.5 259> -12 68<538.5 600> 258 41 410 54<199 273.5>
VStem: 36 80<179 281.5>
LayerCount: 2
Fore
SplineSet
583 56 m 0xb8
 645 56 706 87 706 87 c 1
 712 85 l 1
 723 56 l 1x78
 723 56 630 -12 570 -12 c 0
 507 -12 439 7 396 74 c 1
 354 19 293 -12 225 -12 c 0
 113 -12 36 79 36 210 c 0
 36 353 135 464 263 464 c 0
 329 464 383 433 416 377 c 1
 464 439 531 464 581 464 c 0
 676 464 731 415 731 330 c 0
 731 294 720 270 720 270 c 1
 707 258 l 1
 435 258 l 1
 435 242 l 2
 435 130 494 56 583 56 c 0xb8
253 37 m 0xb8
 325 37 370 102 370 206 c 0
 370 326 314 410 233 410 c 0
 161 410 116 344 116 239 c 0
 116 119 172 37 253 37 c 0xb8
562 413 m 0
 500 413 451 368 439 295 c 1
 620 304 l 2
 640 305 645 311 645 331 c 0
 645 384 615 413 562 413 c 0
EndSplineSet
Validated: 1
EndChar

StartChar: ograve
Encoding: 242 242 198
Width: 498
Flags: MW
HStem: -12 49<216 295.5 216 295.5> 410 54<202.5 280> 694 20G<173 173>
VStem: 36 80<179 281.5> 380 82<170.5 266>
LayerCount: 2
Fore
SplineSet
230 -12 m 0
 115 -12 36 79 36 210 c 0
 36 353 137 464 268 464 c 0
 382 464 462 373 462 242 c 0
 462 99 361 -12 230 -12 c 0
258 37 m 0
 333 37 380 102 380 206 c 0
 380 326 322 410 238 410 c 0
 163 410 116 344 116 239 c 0
 116 119 174 37 258 37 c 0
126 660 m 1
 125 671 l 1
 163 712 l 1
 173 714 l 1
 173 714 251 620 323 542 c 1
 303 523 l 1
 294 521 l 1
 210 597 126 660 126 660 c 1
EndSplineSet
Validated: 1
EndChar

StartChar: ohungarumlaut
Encoding: 337 337 199
Width: 498
Flags: MW
HStem: -12 49<216 295.5 216 295.5> 410 54<202.5 280> 685 20G<275 275 403 403>
VStem: 36 80<179 281.5> 380 82<170.5 266>
LayerCount: 2
Fore
SplineSet
230 -12 m 0
 115 -12 36 79 36 210 c 0
 36 353 137 464 268 464 c 0
 382 464 462 373 462 242 c 0
 462 99 361 -12 230 -12 c 0
258 37 m 0
 333 37 380 102 380 206 c 0
 380 326 322 410 238 410 c 0
 163 410 116 344 116 239 c 0
 116 119 174 37 258 37 c 0
317 664 m 1
 315 655 l 1
 315 655 239 600 160 534 c 1
 151 536 l 1
 135 554 l 1
 201 622 275 705 275 705 c 1
 284 702 l 1
 317 664 l 1
445 664 m 1
 443 655 l 1
 443 655 367 600 288 534 c 1
 279 536 l 1
 263 554 l 1
 329 622 403 705 403 705 c 1
 412 702 l 1
 445 664 l 1
EndSplineSet
Validated: 1
EndChar

StartChar: hungarumlaut
Encoding: 733 733 200
Width: 398
Flags: MW
HStem: 534 21G<99 99 227 227> 685 20G<214 214 342 342>
LayerCount: 2
Fore
SplineSet
256 664 m 1
 254 655 l 1
 254 655 178 600 99 534 c 1
 90 536 l 1
 74 554 l 1
 140 622 214 705 214 705 c 1
 223 702 l 1
 256 664 l 1
384 664 m 1
 382 655 l 1
 382 655 306 600 227 534 c 1
 218 536 l 1
 202 554 l 1
 268 622 342 705 342 705 c 1
 351 702 l 1
 384 664 l 1
EndSplineSet
Validated: 1
EndChar

StartChar: omacron
Encoding: 333 333 201
Width: 498
Flags: MW
HStem: -12 49<216 295.5 216 295.5> 410 54<202.5 280> 595 52<235.5 251> 633 20G<394 394>
VStem: 36 80<179 281.5> 380 82<170.5 266>
LayerCount: 2
Fore
SplineSet
230 -12 m 0xdc
 115 -12 36 79 36 210 c 0
 36 353 137 464 268 464 c 0
 382 464 462 373 462 242 c 0
 462 99 361 -12 230 -12 c 0xdc
258 37 m 0
 333 37 380 102 380 206 c 0
 380 326 322 410 238 410 c 0
 163 410 116 344 116 239 c 0
 116 119 174 37 258 37 c 0
394 653 m 1
 400 643 l 1
 393 596 l 1
 251 595 l 2
 192 595 107 594 107 594 c 1
 101 603 l 1
 111 648 l 1
 111 648 206 647 265 647 c 0xec
 315 647 394 653 394 653 c 1
EndSplineSet
Validated: 1
EndChar

StartChar: oslash
Encoding: 248 248 202
Width: 498
Flags: MW
HStem: -98 21G<94 94> -12 49<243 295.5 243 295.5> 410 54<202.5 251> 519 20G<388 388>
VStem: 36 80<208.5 281.5> 380 82<170.5 238>
LayerCount: 2
Fore
SplineSet
65 -82 m 1
 119 22 l 1
 67 60 36 127 36 210 c 0
 36 353 137 464 268 464 c 0
 294 464 319 459 341 450 c 1
 388 539 l 1
 417 532 l 1
 420 520 l 1
 373 433 l 1
 428 395 462 327 462 242 c 0
 462 99 361 -12 230 -12 c 0
 200 -12 173 -5 149 5 c 1
 94 -98 l 1
 67 -92 l 1
 65 -82 l 1
258 37 m 0
 333 37 380 102 380 206 c 0
 380 270 363 324 335 360 c 1
 180 65 l 1
 202 47 228 37 258 37 c 0
116 239 m 0
 116 178 130 128 156 92 c 1
 308 386 l 1
 288 401 264 410 238 410 c 0
 163 410 116 344 116 239 c 0
EndSplineSet
Validated: 1
EndChar

StartChar: otilde
Encoding: 245 245 203
Width: 498
Flags: MW
HStem: -12 49<216 295.5 216 295.5> 410 54<202.5 280> 573 64<310 323> 606 64<178 191> 672 20G<387 393 393 393>
VStem: 36 80<179 281.5> 380 82<170.5 266>
LayerCount: 2
Fore
SplineSet
230 -12 m 0xde
 115 -12 36 79 36 210 c 0
 36 353 137 464 268 464 c 0
 382 464 462 373 462 242 c 0
 462 99 361 -12 230 -12 c 0xde
258 37 m 0
 333 37 380 102 380 206 c 0
 380 326 322 410 238 410 c 0
 163 410 116 344 116 239 c 0
 116 119 174 37 258 37 c 0
114 551 m 1
 108 551 l 1
 86 572 l 1
 86 577 l 1
 162 666 l 1
 178 670 l 1xde
 211 670 296 637 324 637 c 0
 347 637 387 692 387 692 c 1
 393 692 l 1
 415 671 l 1
 415 666 l 1
 339 577 l 1
 323 573 l 1xee
 290 573 205 606 177 606 c 0
 153 606 114 551 114 551 c 1
EndSplineSet
Validated: 1
EndChar

StartChar: p
Encoding: 112 112 204
Width: 528
Flags: MW
HStem: -237 21G<45 45> -230 40<199 223.5 199 246> -209 20G<246.5 252> -12 55<254.5 311> 393 68<291.5 320> 445 20G<183 183>
VStem: 415 77<178 263.5>
LayerCount: 2
Fore
SplineSet
50 -198 m 1xba
 93 -193 101 -181 101 -126 c 0
 101 -94 103 -3 103 40 c 2
 103 338 l 2
 103 383 90 399 54 399 c 2
 43 399 l 1
 40 403 l 1
 43 436 l 1
 112 447 183 465 183 465 c 1x56
 189 457 l 1
 189 457 182 429 179 403 c 1
 183 396 l 1
 242 437 284 461 299 461 c 0
 414 461 492 376 492 250 c 0
 492 106 379 -12 243 -12 c 0
 219 -12 170 -8 170 -8 c 1
 170 -42 171 -77 171 -111 c 0
 171 -172 180 -190 218 -190 c 0x5a
 229 -190 241 -189 252 -189 c 1xba
 254 -192 l 1
 246 -230 l 1
 151 -230 l 2x5a
 94 -230 45 -237 45 -237 c 1
 50 -198 l 1xba
171 62 m 1
 197 51 238 43 271 43 c 0
 360 43 415 108 415 213 c 0
 415 314 357 393 283 393 c 0x5a
 256 393 214 373 179 344 c 1
 174 262 171 148 171 62 c 1
EndSplineSet
Validated: 1
EndChar

StartChar: q
Encoding: 113 113 205
Width: 516
Flags: MW
HStem: -234 21G<279 279> -230 40<441.5 464 441.5 478> -12 65<208 236> 406 58<216.5 287> 458 20G<432 432>
VStem: 36 77<185 274>
LayerCount: 2
Fore
SplineSet
279 -234 m 1xb4
 284 -196 l 1
 339 -193 348 -184 350 -135 c 2
 354 60 l 1
 289 15 243 -12 229 -12 c 0
 115 -12 36 75 36 202 c 0
 36 346 148 464 285 464 c 0xb4
 313 464 347 461 377 455 c 1
 407 466 432 478 432 478 c 1
 440 469 l 1
 428 439 421 222 421 -106 c 0
 421 -178 426 -190 457 -190 c 0
 471 -190 483 -189 483 -189 c 1
 485 -191 l 1
 478 -230 l 1
 386 -230 l 2x6c
 340 -230 279 -234 279 -234 c 1xb4
354 109 m 1
 354 383 l 1
 354 383 317 406 257 406 c 0
 168 406 113 341 113 236 c 0
 113 134 171 53 245 53 c 0
 293 53 354 109 354 109 c 1
EndSplineSet
Validated: 1
EndChar

StartChar: r
Encoding: 114 114 206
Width: 383
Flags: MW
HStem: -4 21G<54 54> 0 44<129.5 232> 374 86<263.5 337> 445 20G<183 183>
LayerCount: 2
Fore
SplineSet
59 36 m 1xa0
 99 40 109 56 109 119 c 2
 109 339 l 2
 109 383 98 400 71 400 c 0
 60 400 50 397 50 397 c 1
 45 404 l 1
 48 435 l 1
 109 446 183 465 183 465 c 1x50
 190 459 l 1
 190 459 180 403 181 356 c 1
 185 353 l 1
 226 416 286 460 326 460 c 0
 348 460 357 456 357 456 c 1
 360 452 l 1
 360 452 346 370 344 309 c 1
 305 306 l 1
 305 361 300 374 278 374 c 0
 249 374 213 348 185 306 c 1
 185 306 177 124 177 102 c 0
 177 57 187 44 225 44 c 0
 239 44 269 46 269 46 c 1
 270 42 l 1
 261 -2 l 1
 261 -2 198 0 159 0 c 0x60
 100 0 54 -4 54 -4 c 1
 59 36 l 1xa0
EndSplineSet
Validated: 33
EndChar

StartChar: racute
Encoding: 341 341 207
Width: 383
Flags: MW
HStem: -4 21G<54 54> 0 44<129.5 232> 374 86<263.5 337> 695 20G<224 224>
LayerCount: 2
Fore
SplineSet
59 36 m 1xb0
 99 40 109 56 109 119 c 2
 109 339 l 2
 109 383 98 400 71 400 c 0
 60 400 50 397 50 397 c 1
 45 404 l 1
 48 435 l 1
 109 446 183 465 183 465 c 1
 190 459 l 1
 190 459 180 403 181 356 c 1
 185 353 l 1
 226 416 286 460 326 460 c 0
 348 460 357 456 357 456 c 1
 360 452 l 1
 360 452 346 370 344 309 c 1
 305 306 l 1
 305 361 300 374 278 374 c 0
 249 374 213 348 185 306 c 1
 185 306 177 124 177 102 c 0
 177 57 187 44 225 44 c 0
 239 44 269 46 269 46 c 1
 270 42 l 1
 261 -2 l 1
 261 -2 198 0 159 0 c 0x70
 100 0 54 -4 54 -4 c 1
 59 36 l 1xb0
272 672 m 1
 271 661 l 1
 271 661 187 597 103 521 c 1
 94 523 l 1
 74 542 l 1
 146 620 224 715 224 715 c 1
 234 713 l 1
 272 672 l 1
EndSplineSet
Validated: 33
EndChar

StartChar: rcaron
Encoding: 345 345 208
Width: 383
Flags: MW
HStem: -4 21G<54 54> 0 44<129.5 232> 374 86<263.5 337> 690 20G<16 16 272 272>
LayerCount: 2
Fore
SplineSet
59 36 m 1xb0
 99 40 109 56 109 119 c 2
 109 339 l 2
 109 383 98 400 71 400 c 0
 60 400 50 397 50 397 c 1
 45 404 l 1
 48 435 l 1
 109 446 183 465 183 465 c 1
 190 459 l 1
 190 459 180 403 181 356 c 1
 185 353 l 1
 226 416 286 460 326 460 c 0
 348 460 357 456 357 456 c 1
 360 452 l 1
 360 452 346 370 344 309 c 1
 305 306 l 1
 305 361 300 374 278 374 c 0
 249 374 213 348 185 306 c 1
 185 306 177 124 177 102 c 0
 177 57 187 44 225 44 c 0
 239 44 269 46 269 46 c 1
 270 42 l 1
 261 -2 l 1
 261 -2 198 0 159 0 c 0x70
 100 0 54 -4 54 -4 c 1
 59 36 l 1xb0
-8 686 m 1
 8 709 l 1
 16 710 l 1
 67 666 115 630 144 609 c 1
 172 630 222 667 272 710 c 1
 280 709 l 1
 296 686 l 1
 227 615 151 526 151 526 c 1
 137 526 l 1
 137 526 61 615 -8 686 c 1
EndSplineSet
Validated: 33
EndChar

StartChar: rcommaaccent
Encoding: 343 343 209
Width: 383
Flags: MW
HStem: -293 21G<93 93> -67 67<156 178.5 129.5 182> 0 44<129.5 232> 374 86<263.5 337> 445 20G<183 183>
LayerCount: 2
Fore
SplineSet
59 36 m 1xb0
 99 40 109 56 109 119 c 2
 109 339 l 2
 109 383 98 400 71 400 c 0
 60 400 50 397 50 397 c 1
 45 404 l 1
 48 435 l 1
 109 446 183 465 183 465 c 1xc8
 190 459 l 1
 190 459 180 403 181 356 c 1
 185 353 l 1
 226 416 286 460 326 460 c 0
 348 460 357 456 357 456 c 1
 360 452 l 1
 360 452 346 370 344 309 c 1
 305 306 l 1
 305 361 300 374 278 374 c 0
 249 374 213 348 185 306 c 1
 185 306 177 124 177 102 c 0
 177 57 187 44 225 44 c 0
 239 44 269 46 269 46 c 1
 270 42 l 1
 261 -2 l 1
 261 -2 198 0 159 0 c 0
 100 0 54 -4 54 -4 c 1
 59 36 l 1xb0
107 -107 m 1
 109 -93 l 1
 122 -83 145 -67 167 -67 c 0
 197 -67 221 -94 221 -138 c 0
 221 -210 148 -264 93 -293 c 1
 75 -278 l 1
 75 -268 l 1
 115 -243 147 -203 147 -169 c 0
 147 -142 129 -120 107 -107 c 1
EndSplineSet
Validated: 33
EndChar

StartChar: s
Encoding: 115 115 210
Width: 402
Flags: MW
HStem: -12 47<157.5 218 157.5 220> 416 48<189.5 236.5>
LayerCount: 2
Fore
SplineSet
171 -12 m 0
 98 -12 52 9 52 9 c 1
 49 16 l 1
 53 37 60 117 61 150 c 1
 96 155 l 1
 96 67 122 35 193 35 c 0
 243 35 283 61 283 94 c 0
 283 127 259 148 167 197 c 1
 91 236 58 273 58 321 c 0
 58 403 137 464 242 464 c 0
 296 464 342 448 342 448 c 1
 344 443 l 1
 344 443 330 387 325 321 c 1
 288 318 l 1
 288 318 290 338 290 347 c 0
 290 395 265 416 208 416 c 0
 163 416 127 391 127 361 c 0
 127 329 152 303 214 271 c 0
 322 214 354 182 354 132 c 0
 354 55 269 -12 171 -12 c 0
EndSplineSet
Validated: 1
EndChar

StartChar: sacute
Encoding: 347 347 211
Width: 402
Flags: MW
HStem: -12 47<157.5 218 157.5 220> 416 48<189.5 236.5> 695 20G<292 292>
LayerCount: 2
Fore
SplineSet
171 -12 m 0
 98 -12 52 9 52 9 c 1
 49 16 l 1
 53 37 60 117 61 150 c 1
 96 155 l 1
 96 67 122 35 193 35 c 0
 243 35 283 61 283 94 c 0
 283 127 259 148 167 197 c 1
 91 236 58 273 58 321 c 0
 58 403 137 464 242 464 c 0
 296 464 342 448 342 448 c 1
 344 443 l 1
 344 443 330 387 325 321 c 1
 288 318 l 1
 288 318 290 338 290 347 c 0
 290 395 265 416 208 416 c 0
 163 416 127 391 127 361 c 0
 127 329 152 303 214 271 c 0
 322 214 354 182 354 132 c 0
 354 55 269 -12 171 -12 c 0
340 672 m 1
 339 661 l 1
 339 661 255 597 171 521 c 1
 162 523 l 1
 142 542 l 1
 214 620 292 715 292 715 c 1
 302 713 l 1
 340 672 l 1
EndSplineSet
Validated: 1
EndChar

StartChar: scaron
Encoding: 353 353 212
Width: 402
Flags: MW
HStem: -12 47<157.5 218 157.5 220> 416 48<189.5 236.5> 690 20G<84 84 340 340>
LayerCount: 2
Fore
SplineSet
171 -12 m 0
 98 -12 52 9 52 9 c 1
 49 16 l 1
 53 37 60 117 61 150 c 1
 96 155 l 1
 96 67 122 35 193 35 c 0
 243 35 283 61 283 94 c 0
 283 127 259 148 167 197 c 1
 91 236 58 273 58 321 c 0
 58 403 137 464 242 464 c 0
 296 464 342 448 342 448 c 1
 344 443 l 1
 344 443 330 387 325 321 c 1
 288 318 l 1
 288 318 290 338 290 347 c 0
 290 395 265 416 208 416 c 0
 163 416 127 391 127 361 c 0
 127 329 152 303 214 271 c 0
 322 214 354 182 354 132 c 0
 354 55 269 -12 171 -12 c 0
60 686 m 1
 76 709 l 1
 84 710 l 1
 135 666 183 630 212 609 c 1
 240 630 290 667 340 710 c 1
 348 709 l 1
 364 686 l 1
 295 615 219 526 219 526 c 1
 205 526 l 1
 205 526 129 615 60 686 c 1
EndSplineSet
Validated: 1
EndChar

StartChar: scedilla
Encoding: 351 351 213
Width: 402
Flags: MW
HStem: -233 21G<146 188.5> -218 20G<166 195> -161 20G<118 127 127 127> -12 47<167 167> 416 48<189.5 236.5>
LayerCount: 2
Fore
SplineSet
145 -85 m 1x78
 167 -12 l 1
 96 -11 52 9 52 9 c 1
 49 16 l 1
 53 37 60 117 61 150 c 1
 96 155 l 1
 96 67 122 35 193 35 c 0
 243 35 283 61 283 94 c 0
 283 127 259 148 167 197 c 1
 91 236 58 273 58 321 c 0
 58 403 137 464 242 464 c 0
 296 464 342 448 342 448 c 1
 344 443 l 1
 344 443 330 387 325 321 c 1
 288 318 l 1
 288 318 290 338 290 347 c 0
 290 395 265 416 208 416 c 0
 163 416 127 391 127 361 c 0
 127 329 152 303 214 271 c 0
 322 214 354 182 354 132 c 0
 354 65 291 6 210 -8 c 1
 196 -50 l 1
 229 -73 281 -102 281 -139 c 0
 281 -191 216 -233 161 -233 c 0xb8
 131 -233 93 -220 93 -197 c 0
 93 -184 108 -157 118 -141 c 1
 127 -141 l 1
 128 -178 150 -198 182 -198 c 0
 208 -198 230 -183 230 -160 c 0
 230 -136 185 -108 145 -85 c 1x78
EndSplineSet
Validated: 1
EndChar

StartChar: scommaaccent
Encoding: 537 537 214
Width: 402
Flags: MW
HStem: -293 21G<134 134> -67 55<197 220 134.5 223> -12 47<157.5 218 157.5 220> 416 48<189.5 236.5>
LayerCount: 2
Fore
SplineSet
171 -12 m 0xb0
 98 -12 52 9 52 9 c 1
 49 16 l 1
 53 37 60 117 61 150 c 1
 96 155 l 1
 96 67 122 35 193 35 c 0
 243 35 283 61 283 94 c 0
 283 127 259 148 167 197 c 1
 91 236 58 273 58 321 c 0
 58 403 137 464 242 464 c 0
 296 464 342 448 342 448 c 1
 344 443 l 1
 344 443 330 387 325 321 c 1
 288 318 l 1
 288 318 290 338 290 347 c 0
 290 395 265 416 208 416 c 0
 163 416 127 391 127 361 c 0
 127 329 152 303 214 271 c 0
 322 214 354 182 354 132 c 0
 354 55 269 -12 171 -12 c 0xb0
148 -107 m 1
 150 -93 l 1
 163 -83 186 -67 208 -67 c 0xd0
 238 -67 262 -94 262 -138 c 0
 262 -210 189 -264 134 -293 c 1
 116 -278 l 1
 116 -268 l 1
 156 -243 188 -203 188 -169 c 0
 188 -142 170 -120 148 -107 c 1
EndSplineSet
Validated: 1
EndChar

StartChar: t
Encoding: 116 116 215
Width: 330
Flags: MW
HStem: -12 68<200.5 218> 397 53 512 20G<150 150>
LayerCount: 2
Fore
SplineSet
82 109 m 2
 82 355 l 2
 82 391 69 403 25 405 c 1
 21 411 l 1
 26 441 l 1
 91 473 150 532 150 532 c 1
 170 524 l 1
 170 524 166 498 162 449 c 1
 309 452 l 1
 312 449 l 1
 303 396 l 1
 158 399 l 1
 154 336 151 252 151 149 c 0
 151 81 172 56 229 56 c 0
 262 56 297 74 297 74 c 1
 307 48 l 1
 307 48 230 -12 206 -12 c 0
 115 -12 82 21 82 109 c 2
EndSplineSet
Validated: 1
EndChar

StartChar: tbar
Encoding: 359 359 216
Width: 338
Flags: MW
HStem: -12 68<200.5 218> 239 46<67.5 82> 397 53 512 20G<150 150>
LayerCount: 2
Fore
SplineSet
82 109 m 2
 82 239 l 1
 53 238 30 238 30 238 c 1
 21 247 l 1
 28 286 l 1
 28 286 53 285 82 285 c 1
 82 355 l 2
 82 391 69 403 25 405 c 1
 21 411 l 1
 26 441 l 1
 91 473 150 532 150 532 c 1
 170 524 l 1
 170 524 166 498 162 449 c 1
 309 452 l 1
 312 449 l 1
 303 396 l 1
 158 399 l 1
 152 285 l 1
 165 285 l 2
 208 285 273 290 273 290 c 1
 286 277 l 1
 282 240 l 1
 151 239 l 1
 151 149 l 2
 151 81 172 56 229 56 c 0
 262 56 297 74 297 74 c 1
 307 48 l 1
 307 48 230 -12 206 -12 c 0
 115 -12 82 21 82 109 c 2
EndSplineSet
Validated: 1
EndChar

StartChar: tcaron
Encoding: 357 357 217
Width: 384
Flags: MW
HStem: -12 68<200.5 218> 397 53 512 20G<150 150>
LayerCount: 2
Fore
SplineSet
393 513 m 1
 400 505 l 1
 400 505 386 395 365 293 c 1
 340 279 l 1
 329 281 l 1
 333 391 323 499 323 499 c 1
 393 513 l 1
82 109 m 2
 82 355 l 2
 82 391 69 403 25 405 c 1
 21 411 l 1
 26 441 l 1
 91 473 150 532 150 532 c 1
 170 524 l 1
 170 524 166 498 162 449 c 1
 289 452 l 1
 292 449 l 1
 283 396 l 1
 158 399 l 1
 154 336 151 252 151 149 c 0
 151 81 172 56 229 56 c 0
 262 56 297 74 297 74 c 1
 307 48 l 1
 307 48 230 -12 206 -12 c 0
 115 -12 82 21 82 109 c 2
EndSplineSet
Validated: 33
EndChar

StartChar: tcedilla
Encoding: 355 355 218
Width: 330
Flags: MW
HStem: -233 21G<131 173.5> -218 20G<151 180> -161 20G<103 112 112 112> -12 21G<194 206 194 194> 397 53 512 20G<150 150>
LayerCount: 2
Fore
SplineSet
130 -85 m 1x7c
 154 -7 l 1
 102 5 82 40 82 109 c 2
 82 355 l 2
 82 391 69 403 25 405 c 1
 21 411 l 1
 26 441 l 1
 91 473 150 532 150 532 c 1
 170 524 l 1
 170 524 166 498 162 449 c 1
 309 452 l 1
 312 449 l 1
 303 396 l 1
 158 399 l 1
 154 336 151 252 151 149 c 0
 151 81 172 56 229 56 c 0
 262 56 297 74 297 74 c 1
 307 48 l 1
 307 48 230 -12 206 -12 c 2
 194 -12 l 1
 181 -50 l 1
 214 -73 266 -102 266 -139 c 0
 266 -191 201 -233 146 -233 c 0xbc
 116 -233 78 -220 78 -197 c 0
 78 -184 93 -157 103 -141 c 1
 112 -141 l 1
 113 -178 135 -198 167 -198 c 0
 193 -198 215 -183 215 -160 c 0
 215 -136 170 -108 130 -85 c 1x7c
EndSplineSet
Validated: 1
EndChar

StartChar: thorn
Encoding: 254 254 219
Width: 510
Flags: MW
HStem: -237 21G<21 21> -230 40<132 204.5 172.5 204.5 172.5 228> -12 55<235 291.5> 396 68<272 286 272 300> 722 20G<175 175>
VStem: 395 77<178 264>
LayerCount: 2
Fore
SplineSet
85 94 m 1xbc
 85 626 l 2
 85 663 73 680 48 680 c 0
 37 680 23 676 23 676 c 1
 23 682 24 688 25 694 c 2
 27 713 l 1
 96 722 175 742 175 742 c 1
 181 729 l 1
 172 715 163 581 158 394 c 1
 221 439 265 464 279 464 c 0
 293 464 307 463 320 460 c 0
 411 442 472 361 472 250 c 0
 472 106 360 -12 223 -12 c 0
 200 -12 178 -11 152 -8 c 1
 152 -143 145 -190 200 -190 c 0
 209 -190 234 -189 234 -189 c 1
 236 -192 l 1
 228 -230 l 1
 165 -230 l 2x7c
 99 -230 21 -235 21 -237 c 2
 26 -198 l 1
 84 -191 82 -168 83 -97 c 2
 85 94 l 1xbc
156 342 m 1
 153 64 l 1
 177 52 219 43 251 43 c 0
 340 43 395 109 395 213 c 0
 395 315 337 396 263 396 c 0
 238 396 194 374 156 342 c 1
EndSplineSet
Validated: 37
EndChar

StartChar: u
Encoding: 117 117 220
Width: 541
Flags: MW
HStem: -12 71<452 469> 444 20G<175 175 440 440>
LayerCount: 2
Fore
SplineSet
86 104 m 1
 90 347 l 2
 90 382 78 401 53 401 c 0
 42 401 28 397 28 397 c 1
 32 434 l 1
 94 444 175 464 175 464 c 1
 181 452 l 1
 168 417 155 272 155 155 c 0
 155 89 181 57 235 57 c 0
 281 57 323 90 356 114 c 1
 356 346 l 2
 356 386 343 400 306 400 c 0
 300 400 282 399 282 399 c 1
 286 435 l 1
 357 445 440 464 440 464 c 1
 446 452 l 1
 434 422 424 265 424 105 c 0
 424 76 439 59 465 59 c 0
 497 59 525 84 525 84 c 1
 539 68 l 1
 539 68 486 -12 452 -12 c 0
 398 -12 368 15 363 69 c 1
 358 71 l 1
 294 22 237 -12 219 -12 c 0
 133 -12 86 29 86 104 c 1
EndSplineSet
Validated: 1
EndChar

StartChar: uacute
Encoding: 250 250 221
Width: 541
Flags: MW
HStem: -12 71<452 469> 695 20G<337 337>
LayerCount: 2
Fore
SplineSet
86 104 m 1
 90 347 l 2
 90 382 78 401 53 401 c 0
 42 401 28 397 28 397 c 1
 32 434 l 1
 94 444 175 464 175 464 c 1
 181 452 l 1
 168 417 155 272 155 155 c 0
 155 89 181 57 235 57 c 0
 281 57 323 90 356 114 c 1
 356 346 l 2
 356 386 343 400 306 400 c 0
 300 400 282 399 282 399 c 1
 286 435 l 1
 357 445 440 464 440 464 c 1
 446 452 l 1
 434 422 424 265 424 105 c 0
 424 76 439 59 465 59 c 0
 497 59 525 84 525 84 c 1
 539 68 l 1
 539 68 486 -12 452 -12 c 0
 398 -12 368 15 363 69 c 1
 358 71 l 1
 294 22 237 -12 219 -12 c 0
 133 -12 86 29 86 104 c 1
385 672 m 1
 384 661 l 1
 384 661 300 597 216 521 c 1
 207 523 l 1
 187 542 l 1
 259 620 337 715 337 715 c 1
 347 713 l 1
 385 672 l 1
EndSplineSet
Validated: 1
EndChar

StartChar: ucircumflex
Encoding: 251 251 222
Width: 541
Flags: MW
HStem: -12 71<452 469> 683 20G<249 263 263 263>
LayerCount: 2
Fore
SplineSet
86 104 m 1
 90 347 l 2
 90 382 78 401 53 401 c 0
 42 401 28 397 28 397 c 1
 32 434 l 1
 94 444 175 464 175 464 c 1
 181 452 l 1
 168 417 155 272 155 155 c 0
 155 89 181 57 235 57 c 0
 281 57 323 90 356 114 c 1
 356 346 l 2
 356 386 343 400 306 400 c 0
 300 400 282 399 282 399 c 1
 286 435 l 1
 357 445 440 464 440 464 c 1
 446 452 l 1
 434 422 424 265 424 105 c 0
 424 76 439 59 465 59 c 0
 497 59 525 84 525 84 c 1
 539 68 l 1
 539 68 486 -12 452 -12 c 0
 398 -12 368 15 363 69 c 1
 358 71 l 1
 294 22 237 -12 219 -12 c 0
 133 -12 86 29 86 104 c 1
125 528 m 1
 111 550 l 1
 176 618 249 703 249 703 c 1
 263 703 l 1
 263 703 336 618 401 550 c 1
 387 528 l 1
 378 527 l 1
 331 568 283 603 256 624 c 1
 228 603 182 569 134 527 c 1
 125 528 l 1
EndSplineSet
Validated: 1
EndChar

StartChar: udieresis
Encoding: 252 252 223
Width: 541
Flags: MW
HStem: -12 71<452 469> 566 93<161.5 181.5 327.5 347.5>
LayerCount: 2
Fore
SplineSet
86 104 m 1
 90 347 l 2
 90 382 78 401 53 401 c 0
 42 401 28 397 28 397 c 1
 32 434 l 1
 94 444 175 464 175 464 c 1
 181 452 l 1
 168 417 155 272 155 155 c 0
 155 89 181 57 235 57 c 0
 281 57 323 90 356 114 c 1
 356 346 l 2
 356 386 343 400 306 400 c 0
 300 400 282 399 282 399 c 1
 286 435 l 1
 357 445 440 464 440 464 c 1
 446 452 l 1
 434 422 424 265 424 105 c 0
 424 76 439 59 465 59 c 0
 497 59 525 84 525 84 c 1
 539 68 l 1
 539 68 486 -12 452 -12 c 0
 398 -12 368 15 363 69 c 1
 358 71 l 1
 294 22 237 -12 219 -12 c 0
 133 -12 86 29 86 104 c 1
333 566 m 0
 306 566 292 588 292 609 c 0
 292 636 313 659 342 659 c 0
 369 659 383 638 383 616 c 0
 383 589 362 566 333 566 c 0
167 566 m 0
 140 566 126 588 126 609 c 0
 126 636 147 659 176 659 c 0
 203 659 217 638 217 616 c 0
 217 589 196 566 167 566 c 0
EndSplineSet
Validated: 1
EndChar

StartChar: ugrave
Encoding: 249 249 224
Width: 541
Flags: MW
HStem: -12 71<452 469> 694 20G<178 178>
LayerCount: 2
Fore
SplineSet
86 104 m 1
 90 347 l 2
 90 382 78 401 53 401 c 0
 42 401 28 397 28 397 c 1
 32 434 l 1
 94 444 175 464 175 464 c 1
 181 452 l 1
 168 417 155 272 155 155 c 0
 155 89 181 57 235 57 c 0
 281 57 323 90 356 114 c 1
 356 346 l 2
 356 386 343 400 306 400 c 0
 300 400 282 399 282 399 c 1
 286 435 l 1
 357 445 440 464 440 464 c 1
 446 452 l 1
 434 422 424 265 424 105 c 0
 424 76 439 59 465 59 c 0
 497 59 525 84 525 84 c 1
 539 68 l 1
 539 68 486 -12 452 -12 c 0
 398 -12 368 15 363 69 c 1
 358 71 l 1
 294 22 237 -12 219 -12 c 0
 133 -12 86 29 86 104 c 1
131 660 m 1
 130 671 l 1
 168 712 l 1
 178 714 l 1
 178 714 256 620 328 542 c 1
 308 523 l 1
 299 521 l 1
 215 597 131 660 131 660 c 1
EndSplineSet
Validated: 1
EndChar

StartChar: uhungarumlaut
Encoding: 369 369 225
Width: 541
Flags: MW
HStem: -12 71<452 469> 685 20G<280 280 408 408>
LayerCount: 2
Fore
SplineSet
86 104 m 1
 90 347 l 2
 90 382 78 401 53 401 c 0
 42 401 28 397 28 397 c 1
 32 434 l 1
 94 444 175 464 175 464 c 1
 181 452 l 1
 168 417 155 272 155 155 c 0
 155 89 181 57 235 57 c 0
 281 57 323 90 356 114 c 1
 356 346 l 2
 356 386 343 400 306 400 c 0
 300 400 282 399 282 399 c 1
 286 435 l 1
 357 445 440 464 440 464 c 1
 446 452 l 1
 434 422 424 265 424 105 c 0
 424 76 439 59 465 59 c 0
 497 59 525 84 525 84 c 1
 539 68 l 1
 539 68 486 -12 452 -12 c 0
 398 -12 368 15 363 69 c 1
 358 71 l 1
 294 22 237 -12 219 -12 c 0
 133 -12 86 29 86 104 c 1
322 664 m 1
 320 655 l 1
 320 655 244 600 165 534 c 1
 156 536 l 1
 140 554 l 1
 206 622 280 705 280 705 c 1
 289 702 l 1
 322 664 l 1
450 664 m 1
 448 655 l 1
 448 655 372 600 293 534 c 1
 284 536 l 1
 268 554 l 1
 334 622 408 705 408 705 c 1
 417 702 l 1
 450 664 l 1
EndSplineSet
Validated: 1
EndChar

StartChar: umacron
Encoding: 363 363 226
Width: 541
Flags: MW
HStem: -12 71<452 469> 400 247<240.5 324.5> 595 52<240.5 256> 633 20G<399 399>
LayerCount: 2
Fore
SplineSet
86 104 m 1xc0
 90 347 l 2
 90 382 78 401 53 401 c 0
 42 401 28 397 28 397 c 1
 32 434 l 1
 94 444 175 464 175 464 c 1
 181 452 l 1
 168 417 155 272 155 155 c 0
 155 89 181 57 235 57 c 0
 281 57 323 90 356 114 c 1
 356 346 l 2
 356 386 343 400 306 400 c 0
 300 400 282 399 282 399 c 1
 286 435 l 1
 357 445 440 464 440 464 c 1
 446 452 l 1
 434 422 424 265 424 105 c 0
 424 76 439 59 465 59 c 0
 497 59 525 84 525 84 c 1
 539 68 l 1
 539 68 486 -12 452 -12 c 0
 398 -12 368 15 363 69 c 1
 358 71 l 1
 294 22 237 -12 219 -12 c 0
 133 -12 86 29 86 104 c 1xc0
399 653 m 1x90
 405 643 l 1
 398 596 l 1
 256 595 l 2
 197 595 112 594 112 594 c 1
 106 603 l 1
 116 648 l 1
 116 648 211 647 270 647 c 0xa0
 320 647 399 653 399 653 c 1x90
EndSplineSet
Validated: 1
EndChar

StartChar: uogonek
Encoding: 371 371 227
Width: 541
Flags: MW
HStem: -241 59<446 453> -12 71 444 20G<175 175 440 440>
LayerCount: 2
Fore
SplineSet
540 -159 m 1
 553 -178 l 1
 553 -178 504 -224 453 -241 c 1
 385 -241 342 -205 342 -147 c 0
 342 -112 364 -72 424 -9 c 1
 388 -1 367 25 363 69 c 1
 358 71 l 1
 290 20 236 -12 219 -12 c 0
 133 -12 86 29 86 104 c 1
 90 347 l 2
 90 383 77 401 53 401 c 0
 42 401 28 397 28 397 c 1
 32 434 l 1
 94 444 175 464 175 464 c 1
 181 452 l 1
 168 416 155 268 155 155 c 0
 155 89 181 57 235 57 c 0
 266 57 295 71 356 114 c 1
 356 346 l 2
 356 386 343 400 306 400 c 0
 300 400 282 399 282 399 c 1
 286 435 l 1
 357 445 440 464 440 464 c 1
 446 452 l 1
 434 422 424 265 424 105 c 0
 424 76 439 59 465 59 c 0
 497 59 525 84 525 84 c 1
 542 65 l 1
 420 -62 405 -83 405 -126 c 0
 405 -158 429 -182 463 -182 c 0
 502 -182 540 -159 540 -159 c 1
EndSplineSet
Validated: 1
EndChar

StartChar: uring
Encoding: 367 367 228
Width: 541
Flags: MW
HStem: -12 71<452 469> 400 182<247.5 324.5> 544 164<233.5 278>
LayerCount: 2
Fore
SplineSet
86 104 m 1xc0
 90 347 l 2
 90 382 78 401 53 401 c 0
 42 401 28 397 28 397 c 1
 32 434 l 1
 94 444 175 464 175 464 c 1
 181 452 l 1
 168 417 155 272 155 155 c 0
 155 89 181 57 235 57 c 0
 281 57 323 90 356 114 c 1
 356 346 l 2
 356 386 343 400 306 400 c 0
 300 400 282 399 282 399 c 1
 286 435 l 1
 357 445 440 464 440 464 c 1
 446 452 l 1
 434 422 424 265 424 105 c 0
 424 76 439 59 465 59 c 0
 497 59 525 84 525 84 c 1
 539 68 l 1
 539 68 486 -12 452 -12 c 0
 398 -12 368 15 363 69 c 1
 358 71 l 1
 294 22 237 -12 219 -12 c 0
 133 -12 86 29 86 104 c 1xc0
258 582 m 0
 274 582 302 586 302 621 c 0
 302 649 284 669 251 669 c 0
 222 669 207 654 207 630 c 0
 207 595 237 582 258 582 c 0
251 544 m 0xa0
 202 544 175 577 175 624 c 0
 175 672 208 708 259 708 c 0
 314 708 336 670 336 632 c 0
 336 586 305 544 251 544 c 0xa0
EndSplineSet
Validated: 1
EndChar

StartChar: v
Encoding: 118 118 229
Width: 445
Flags: MW
HStem: -17 21G<182 182> 432 20G<67.5 109.5 345.5 387.5> 439 20G<199 199>
LayerCount: 2
Fore
SplineSet
346 392 m 0xa0
 346 410 335 416 303 416 c 2
 265 416 l 1
 261 422 l 1
 266 453 l 1
 266 453 321 452 370 452 c 0
 405 452 452 453 452 453 c 1
 445 416 l 1
 417 412 406 399 381 341 c 2
 236 0 l 1
 182 -17 l 1
 182 -17 89 280 60 366 c 0
 49 398 26 415 -8 416 c 1
 -10 420 l 1
 -4 453 l 1
 -4 453 56 452 79 452 c 0xc0
 140 452 199 459 199 459 c 1
 201 454 l 1
 195 423 l 1
 149 421 136 415 136 397 c 0
 136 368 221 81 221 81 c 1
 225 81 l 1
 299 265 346 368 346 392 c 0xa0
EndSplineSet
Validated: 1
EndChar

StartChar: w
Encoding: 119 119 230
Width: 705
Flags: MW
HStem: -17 21G<182 182 443 443> 432 20G<71 112 332 372.5 462 462 600 640.5> 439 20G<199 199>
LayerCount: 2
Fore
SplineSet
602 392 m 0xc0
 602 410 591 417 561 417 c 2
 524 417 l 1
 520 423 l 1
 525 454 l 1
 525 454 576 452 624 452 c 0
 657 452 706 453 706 453 c 1
 699 416 l 1
 672 413 661 399 637 341 c 2
 496 0 l 1
 443 -17 l 1
 443 -17 390 158 353 278 c 1
 347 278 l 1
 236 0 l 1
 182 -17 l 1
 182 -17 92 280 64 366 c 0
 53 398 32 415 -2 416 c 1
 -4 420 l 1
 2 453 l 1
 2 453 60 452 82 452 c 0xc0
 142 452 199 459 199 459 c 1xa0
 201 454 l 1
 195 423 l 1
 151 421 138 415 138 397 c 0
 138 366 220 81 220 81 c 1
 224 81 l 1
 275 211 312 300 330 350 c 1
 316 392 300 416 259 416 c 1
 257 420 l 1
 263 453 l 1
 263 453 321 452 343 452 c 0
 402 452 460 457 460 457 c 1
 462 452 l 1
 456 421 l 1
 410 419 399 414 399 397 c 0
 399 368 481 81 481 81 c 1
 485 81 l 1
 557 265 602 368 602 392 c 0xc0
EndSplineSet
Validated: 1
EndChar

StartChar: wacute
Encoding: 7811 7811 231
Width: 705
Flags: MW
HStem: -17 21G<182 182 443 443> 432 20G<71 112 332 372.5 462 462 600 640.5> 695 20G<435 435>
LayerCount: 2
Fore
SplineSet
602 392 m 0
 602 410 591 417 561 417 c 2
 524 417 l 1
 520 423 l 1
 525 454 l 1
 525 454 576 452 624 452 c 0
 657 452 706 453 706 453 c 1
 699 416 l 1
 672 413 661 399 637 341 c 2
 496 0 l 1
 443 -17 l 1
 443 -17 390 158 353 278 c 1
 347 278 l 1
 236 0 l 1
 182 -17 l 1
 182 -17 92 280 64 366 c 0
 53 398 32 415 -2 416 c 1
 -4 420 l 1
 2 453 l 1
 2 453 60 452 82 452 c 0
 142 452 199 459 199 459 c 1
 201 454 l 1
 195 423 l 1
 151 421 138 415 138 397 c 0
 138 366 220 81 220 81 c 1
 224 81 l 1
 275 211 312 300 330 350 c 1
 316 392 300 416 259 416 c 1
 257 420 l 1
 263 453 l 1
 263 453 321 452 343 452 c 0
 402 452 460 457 460 457 c 1
 462 452 l 1
 456 421 l 1
 410 419 399 414 399 397 c 0
 399 368 481 81 481 81 c 1
 485 81 l 1
 557 265 602 368 602 392 c 0
483 672 m 1
 482 661 l 1
 482 661 398 597 314 521 c 1
 305 523 l 1
 285 542 l 1
 357 620 435 715 435 715 c 1
 445 713 l 1
 483 672 l 1
EndSplineSet
Validated: 1
EndChar

StartChar: wcircumflex
Encoding: 373 373 232
Width: 705
Flags: MW
HStem: -17 21G<182 182 443 443> 432 20G<71 112 332 372.5 462 462 600 640.5> 683 20G<347 361 361 361>
LayerCount: 2
Fore
SplineSet
602 392 m 0
 602 410 591 417 561 417 c 2
 524 417 l 1
 520 423 l 1
 525 454 l 1
 525 454 576 452 624 452 c 0
 657 452 706 453 706 453 c 1
 699 416 l 1
 672 413 661 399 637 341 c 2
 496 0 l 1
 443 -17 l 1
 443 -17 390 158 353 278 c 1
 347 278 l 1
 236 0 l 1
 182 -17 l 1
 182 -17 92 280 64 366 c 0
 53 398 32 415 -2 416 c 1
 -4 420 l 1
 2 453 l 1
 2 453 60 452 82 452 c 0
 142 452 199 459 199 459 c 1
 201 454 l 1
 195 423 l 1
 151 421 138 415 138 397 c 0
 138 366 220 81 220 81 c 1
 224 81 l 1
 275 211 312 300 330 350 c 1
 316 392 300 416 259 416 c 1
 257 420 l 1
 263 453 l 1
 263 453 321 452 343 452 c 0
 402 452 460 457 460 457 c 1
 462 452 l 1
 456 421 l 1
 410 419 399 414 399 397 c 0
 399 368 481 81 481 81 c 1
 485 81 l 1
 557 265 602 368 602 392 c 0
223 528 m 1
 209 550 l 1
 274 618 347 703 347 703 c 1
 361 703 l 1
 361 703 434 618 499 550 c 1
 485 528 l 1
 476 527 l 1
 429 568 381 603 354 624 c 1
 326 603 280 569 232 527 c 1
 223 528 l 1
EndSplineSet
Validated: 1
EndChar

StartChar: wdieresis
Encoding: 7813 7813 233
Width: 705
Flags: MW
HStem: -17 21G<182 182 443 443> 421 238<259.5 456> 432 20G<71 112 332 372.5 462 462 600 640.5> 566 93<259.5 279.5 425.5 445.5>
LayerCount: 2
Fore
SplineSet
602 392 m 0xc0
 602 410 591 417 561 417 c 2
 524 417 l 1
 520 423 l 1
 525 454 l 1
 525 454 576 452 624 452 c 0
 657 452 706 453 706 453 c 1
 699 416 l 1
 672 413 661 399 637 341 c 2
 496 0 l 1
 443 -17 l 1
 443 -17 390 158 353 278 c 1
 347 278 l 1
 236 0 l 1
 182 -17 l 1
 182 -17 92 280 64 366 c 0
 53 398 32 415 -2 416 c 1
 -4 420 l 1
 2 453 l 1
 2 453 60 452 82 452 c 0
 142 452 199 459 199 459 c 1
 201 454 l 1
 195 423 l 1
 151 421 138 415 138 397 c 0
 138 366 220 81 220 81 c 1
 224 81 l 1
 275 211 312 300 330 350 c 1
 316 392 300 416 259 416 c 1
 257 420 l 1
 263 453 l 1
 263 453 321 452 343 452 c 0
 402 452 460 457 460 457 c 1
 462 452 l 1xb0
 456 421 l 1
 410 419 399 414 399 397 c 0
 399 368 481 81 481 81 c 1
 485 81 l 1
 557 265 602 368 602 392 c 0xc0
431 566 m 0
 404 566 390 588 390 609 c 0
 390 636 411 659 440 659 c 0
 467 659 481 638 481 616 c 0
 481 589 460 566 431 566 c 0
265 566 m 0
 238 566 224 588 224 609 c 0
 224 636 245 659 274 659 c 0
 301 659 315 638 315 616 c 0
 315 589 294 566 265 566 c 0
EndSplineSet
Validated: 1
EndChar

StartChar: wgrave
Encoding: 7809 7809 234
Width: 705
Flags: MW
HStem: -17 21G<182 182 443 443> 432 20G<71 112 332 372.5 462 462 600 640.5> 694 20G<276 276>
LayerCount: 2
Fore
SplineSet
602 392 m 0
 602 410 591 417 561 417 c 2
 524 417 l 1
 520 423 l 1
 525 454 l 1
 525 454 576 452 624 452 c 0
 657 452 706 453 706 453 c 1
 699 416 l 1
 672 413 661 399 637 341 c 2
 496 0 l 1
 443 -17 l 1
 443 -17 390 158 353 278 c 1
 347 278 l 1
 236 0 l 1
 182 -17 l 1
 182 -17 92 280 64 366 c 0
 53 398 32 415 -2 416 c 1
 -4 420 l 1
 2 453 l 1
 2 453 60 452 82 452 c 0
 142 452 199 459 199 459 c 1
 201 454 l 1
 195 423 l 1
 151 421 138 415 138 397 c 0
 138 366 220 81 220 81 c 1
 224 81 l 1
 275 211 312 300 330 350 c 1
 316 392 300 416 259 416 c 1
 257 420 l 1
 263 453 l 1
 263 453 321 452 343 452 c 0
 402 452 460 457 460 457 c 1
 462 452 l 1
 456 421 l 1
 410 419 399 414 399 397 c 0
 399 368 481 81 481 81 c 1
 485 81 l 1
 557 265 602 368 602 392 c 0
229 660 m 1
 228 671 l 1
 266 712 l 1
 276 714 l 1
 276 714 354 620 426 542 c 1
 406 523 l 1
 397 521 l 1
 313 597 229 660 229 660 c 1
EndSplineSet
Validated: 1
EndChar

StartChar: x
Encoding: 120 120 235
Width: 475
Flags: MW
HStem: -6 21G<256 256> 0 21G<58.5 83.5 348 384> 432 20G<99 143.5 299 372 372 385.5> 436 20G<217 217>
LayerCount: 2
Fore
SplineSet
368 0 m 0x60
 328 0 256 -6 256 -6 c 1xa0
 254 -1 l 1
 260 30 l 1
 293 31 306 37 306 51 c 0
 306 59 301 71 289 88 c 2
 216 190 l 1
 179 145 115 69 115 51 c 0
 115 38 124 35 159 33 c 1
 161 29 l 1
 155 -4 l 1
 155 -4 95 0 72 0 c 0
 45 0 12 -3 12 -3 c 1
 9 2 l 1
 15 33 l 1
 51 52 65 71 108 121 c 2
 194 221 l 1
 118 329 l 2
 74 392 58 408 10 416 c 1
 8 420 l 1
 14 454 l 1
 14 454 83 452 115 452 c 0x60
 172 452 217 456 217 456 c 1x50
 219 451 l 1
 213 420 l 1
 181 420 168 415 168 401 c 0
 168 388 179 373 192 354 c 2
 247 274 l 1
 308 351 l 2
 326 373 339 388 339 402 c 0
 339 412 330 415 296 415 c 1
 294 419 l 1
 299 452 l 1
 372 452 l 2
 399 452 443 455 443 455 c 1
 446 450 l 1
 440 418 l 1
 419 411 389 381 356 343 c 2
 270 242 l 1
 362 111 l 2
 396 62 423 40 463 36 c 1
 465 32 l 1
 459 -2 l 1
 459 -2 400 0 368 0 c 0x60
EndSplineSet
Validated: 1
EndChar

StartChar: y
Encoding: 121 121 236
Width: 446
Flags: MW
HStem: -241 64<31 35.5 -3 36> 432 20G<68.5 109.5 343.5 385.5> 439 20G<200 200>
LayerCount: 2
Fore
SplineSet
226 91 m 1xa0
 230 91 l 1
 276 201 347 373 347 393 c 0
 347 411 335 419 309 419 c 2
 263 419 l 1
 261 423 l 1
 267 456 l 1
 267 456 319 452 368 452 c 0
 403 452 453 453 453 453 c 1
 446 416 l 1
 416 411 404 398 390 359 c 1
 261 55 l 1
 158 -181 124 -243 36 -241 c 0
 26 -241 -8 -197 -8 -184 c 1
 -3 -177 l 1
 74 -177 147 -111 192 -1 c 1
 161 97 99 273 61 368 c 1
 45 401 26 415 -7 416 c 1
 -9 420 l 1
 -3 453 l 1
 -3 453 57 452 80 452 c 0xc0
 139 452 200 459 200 459 c 1
 202 454 l 1
 196 423 l 1
 150 421 137 415 137 397 c 0
 137 362 226 91 226 91 c 1xa0
EndSplineSet
Validated: 33
EndChar

StartChar: yacute
Encoding: 253 253 237
Width: 446
Flags: MW
HStem: -241 64<31 35.5 -3 36> 432 20G<68.5 109.5 343.5 385.5> 695 20G<311 311>
LayerCount: 2
Fore
SplineSet
226 91 m 1
 230 91 l 1
 276 201 347 373 347 393 c 0
 347 411 335 419 309 419 c 2
 263 419 l 1
 261 423 l 1
 267 456 l 1
 267 456 319 452 368 452 c 0
 403 452 453 453 453 453 c 1
 446 416 l 1
 416 411 404 398 390 359 c 1
 261 55 l 1
 158 -181 124 -243 36 -241 c 0
 26 -241 -8 -197 -8 -184 c 1
 -3 -177 l 1
 74 -177 147 -111 192 -1 c 1
 161 97 99 273 61 368 c 1
 45 401 26 415 -7 416 c 1
 -9 420 l 1
 -3 453 l 1
 -3 453 57 452 80 452 c 0
 139 452 200 459 200 459 c 1
 202 454 l 1
 196 423 l 1
 150 421 137 415 137 397 c 0
 137 362 226 91 226 91 c 1
359 672 m 1
 358 661 l 1
 358 661 274 597 190 521 c 1
 181 523 l 1
 161 542 l 1
 233 620 311 715 311 715 c 1
 321 713 l 1
 359 672 l 1
EndSplineSet
Validated: 33
EndChar

StartChar: ycircumflex
Encoding: 375 375 238
Width: 446
Flags: MW
HStem: -241 64<31 35.5 -3 36> 432 20G<68.5 109.5 343.5 385.5> 683 20G<223 237 237 237>
LayerCount: 2
Fore
SplineSet
226 91 m 1
 230 91 l 1
 276 201 347 373 347 393 c 0
 347 411 335 419 309 419 c 2
 263 419 l 1
 261 423 l 1
 267 456 l 1
 267 456 319 452 368 452 c 0
 403 452 453 453 453 453 c 1
 446 416 l 1
 416 411 404 398 390 359 c 1
 261 55 l 1
 158 -181 124 -243 36 -241 c 0
 26 -241 -8 -197 -8 -184 c 1
 -3 -177 l 1
 74 -177 147 -111 192 -1 c 1
 161 97 99 273 61 368 c 1
 45 401 26 415 -7 416 c 1
 -9 420 l 1
 -3 453 l 1
 -3 453 57 452 80 452 c 0
 139 452 200 459 200 459 c 1
 202 454 l 1
 196 423 l 1
 150 421 137 415 137 397 c 0
 137 362 226 91 226 91 c 1
99 528 m 1
 85 550 l 1
 150 618 223 703 223 703 c 1
 237 703 l 1
 237 703 310 618 375 550 c 1
 361 528 l 1
 352 527 l 1
 305 568 257 603 230 624 c 1
 202 603 156 569 108 527 c 1
 99 528 l 1
EndSplineSet
Validated: 33
EndChar

